<?xml version="1.0" encoding="utf-8"?>
<!-- Generator: Adobe Illustrator 24.0.1, SVG Export Plug-In . SVG Version: 6.00 Build 0)  -->
<svg version="1.1" id="Layer_1" xmlns="http://www.w3.org/2000/svg" xmlns:xlink="http://www.w3.org/1999/xlink" x="0px" y="0px"
	 viewBox="0 0 473 168.5" style="enable-background:new 0 0 473 168.5;" xml:space="preserve">
<style type="text/css">
	.st0{fill:#FFFFFF;}
</style>
<path class="st0" d="M176.58,24.38c6.53,0,11.91,2.29,16.28,6.8c4.37,4.51,6.59,10.09,6.59,16.75c0,6.66-2.22,12.31-6.59,16.82
	c-4.37,4.51-9.76,6.73-16.28,6.73h-18.84v-47.1H176.58z M176.58,61.11c3.7,0,6.73-1.21,9.02-3.57c2.36-2.42,3.5-5.65,3.5-9.62
	s-1.14-7.2-3.5-9.55c-2.29-2.42-5.32-3.63-9.02-3.63h-8.07v26.38H176.58z"/>
<path class="st0" d="M215.12,61.11h18.84v10.36h-29.6v-47.1h29.27v10.36h-18.5v7.81h16.82v10.23h-16.82V61.11z"/>
<path class="st0" d="M272.77,71.47l-2.35-7.4h-17.49l-2.36,7.4h-11.77l16.01-47.1h13.73l16.01,47.1H272.77z M256.15,53.98h11.03
	l-5.52-17.29L256.15,53.98z"/>
<path class="st0" d="M300.19,61.11h16.82v10.36h-27.59v-47.1h10.77V61.11z"/>
<path class="st0" d="M192.73,120.89c0,4.1-1.48,7.4-4.37,9.96s-6.53,3.83-10.83,3.83h-19.78v-47.1h18.43
	c4.24,0,7.74,1.28,10.56,3.77c2.89,2.49,4.31,5.72,4.31,9.69c0,3.77-1.35,6.86-4.1,9.22C190.78,112.75,192.73,116.25,192.73,120.89z
	 M168.51,97.68v8.34h7.67c2.42,0,4.1-1.75,4.1-4.17c0-2.42-1.68-4.17-4.1-4.17H168.51z M177.52,124.6c2.69,0,4.44-1.82,4.44-4.51
	c0-2.69-1.75-4.51-4.44-4.51h-9.02v9.02H177.52z"/>
<path class="st0" d="M222.36,134.69l-8.88-15.48h-5.11v15.48H197.6v-47.1h18.84c4.51,0,8.28,1.55,11.44,4.71
	c3.16,3.16,4.71,6.93,4.71,11.44c0,5.72-3.5,10.97-8.68,13.66l10.03,17.29H222.36z M208.37,97.68v12.11h8.07
	c2.96,0,5.38-2.62,5.38-6.06c0-3.43-2.42-6.06-5.38-6.06H208.37z"/>
<path class="st0" d="M249.58,124.33h18.84v10.36h-29.6v-47.1h29.27v10.36h-18.5v7.81h16.82v10.23h-16.82V124.33z"/>
<path class="st0" d="M307.27,134.69l-2.35-7.4h-17.49l-2.36,7.4h-11.77l16.01-47.1h13.73l16.01,47.1H307.27z M290.65,117.19h11.03
	l-5.52-17.29L290.65,117.19z"/>
<path class="st0" d="M362,134.69h-12.25l-15.07-21.8v21.8h-10.77v-47.1h10.77v20.45l14.4-20.45h12.25l-15.88,22.94L362,134.69z"/>
<path class="st0" d="M377.64,124.33h18.84v10.36h-29.6v-47.1h29.27v10.36h-18.5v7.81h16.82v10.23h-16.82V124.33z"/>
<path class="st0" d="M427.12,134.69l-8.88-15.48h-5.11v15.48h-10.77v-47.1h18.84c4.51,0,8.28,1.55,11.44,4.71
	c3.16,3.16,4.71,6.93,4.71,11.44c0,5.72-3.5,10.97-8.68,13.66l10.03,17.29H427.12z M413.12,97.68v12.11h8.07
	c2.96,0,5.38-2.62,5.38-6.06c0-3.43-2.42-6.06-5.38-6.06H413.12z"/>
<rect x="329.12" y="42.5" class="st0" width="108.21" height="10.36"/>
<path class="st0" d="M31.92,24.38L31.92,24.38v0.09v110.05v0.15h0.15h110.05v-0.15v-10.28V34.8V24.38l0,0H31.92z M131.69,116.94
	L94.12,79.36l37.57-37.57V116.94z M42.34,34.8h81.59l-81.59,81.59V34.8z M86.75,86.73l37.51,37.51H49.23L86.75,86.73z"/>
</svg>
