<?xml version="1.0" encoding="utf-8"?>
<!-- Generator: Adobe Illustrator 24.0.1, SVG Export Plug-In . SVG Version: 6.00 Build 0)  -->
<svg version="1.1" xmlns="http://www.w3.org/2000/svg" xmlns:xlink="http://www.w3.org/1999/xlink" x="0px" y="0px"
	 viewBox="0 0 283.46 283.46" style="enable-background:new 0 0 283.46 283.46;" xml:space="preserve">
<style type="text/css">
	.st0{fill:#FFFFFF;}
</style>
<g id="Layer_4">
</g>
<g id="Layer_1">
	<path class="st0" d="M72.19,189.95c0.06-0.52-0.31-0.99-0.83-1.05l-22.25-3.52c-0.52-0.06-0.99,0.31-1.05,0.82
		c-0.06,0.52,0.31,0.99,0.83,1.05l22.25,3.52C71.66,190.84,72.13,190.47,72.19,189.95z M83.18,167.96L54.4,151.17
		c-0.45-0.26-1.03-0.11-1.29,0.34c-0.26,0.45-0.11,1.03,0.34,1.29l28.77,16.79c0.45,0.26,1.03,0.11,1.29-0.34
		C83.78,168.8,83.63,168.22,83.18,167.96z M93.45,148.36c0.36,0.38,0.95,0.4,1.34,0.04c0.38-0.36,0.4-0.96,0.04-1.34L66.68,117
		c-0.36-0.38-0.95-0.4-1.33-0.04c-0.38,0.36-0.4,0.95-0.04,1.34L93.45,148.36z M104.79,127.15c0.28,0.44,0.86,0.57,1.3,0.29
		c0.44-0.28,0.57-0.86,0.29-1.3L78.85,82.81c-0.28-0.44-0.86-0.57-1.3-0.29c-0.44,0.28-0.57,0.86-0.29,1.3L104.79,127.15z
		 M116.18,105.99c0.23,0.47,0.79,0.67,1.26,0.45c0.47-0.22,0.67-0.79,0.45-1.26L98.11,47.15c-0.22-0.47-0.79-0.67-1.26-0.45
		c-0.47,0.22-0.67,0.79-0.45,1.26L116.18,105.99z M234.45,185.38l-22.25,3.52c-0.52,0.06-0.89,0.53-0.83,1.05
		c0.06,0.52,0.53,0.88,1.05,0.82l22.25-3.52c0.52-0.06,0.89-0.53,0.82-1.05C235.44,185.69,234.97,185.32,234.45,185.38z
		 M200.06,169.25c0.26,0.45,0.84,0.6,1.29,0.34l28.77-16.79c0.45-0.26,0.6-0.84,0.34-1.29c-0.27-0.45-0.84-0.6-1.29-0.34
		l-28.77,16.79C199.95,168.22,199.79,168.8,200.06,169.25z M188.78,148.4c0.38,0.36,0.98,0.34,1.34-0.04l28.15-30.06
		c0.36-0.38,0.34-0.98-0.04-1.34c-0.38-0.36-0.98-0.34-1.34,0.04l-28.15,30.06C188.38,147.45,188.4,148.04,188.78,148.4z
		 M177.48,127.44c0.44,0.28,1.02,0.15,1.3-0.29l27.53-43.33c0.28-0.44,0.15-1.02-0.29-1.3c-0.44-0.28-1.02-0.15-1.3,0.29
		l-27.54,43.33C176.91,126.58,177.04,127.17,177.48,127.44z M166.14,106.44c0.47,0.23,1.03,0.02,1.26-0.45l19.77-58.03
		c0.22-0.47,0.02-1.04-0.45-1.26c-0.47-0.22-1.03-0.02-1.26,0.45l-19.77,58.03C165.47,105.65,165.67,106.21,166.14,106.44z
		 M73.13,206.95c-4.38,0-9.3,1.82-9.3,8.09v6.88c0,7.82,11.53,14.43,11.53,21.17v5.06c0,2.43-0.74,2.96-2.16,2.96
		c-1.49,0-2.22-0.54-2.22-2.96v-10.45h-7.15v11.06c0,6.27,4.92,8.09,9.3,8.09c4.45,0,9.37-1.82,9.37-8.09v-8.5
		c0-4.85-11.53-15.24-11.53-18.67v-5.93c0-2.43,0.74-2.97,2.22-2.97c1.42,0,2.16,0.54,2.16,2.97v9.5h7.15v-10.11
		C82.5,208.77,77.58,206.95,73.13,206.95z M93.36,206.95c-4.38,0-9.3,1.82-9.3,8.09v33.71c0,6.27,4.92,8.09,9.3,8.09
		c4.45,0,9.37-1.82,9.37-8.09v-10.99h-7.15v10.38c0,2.43-0.74,2.96-2.16,2.96c-1.48,0-2.22-0.54-2.22-2.96v-32.49
		c0-2.43,0.74-2.97,2.22-2.97c1.41,0,2.16,0.54,2.16,2.97v9.77h7.15v-10.38C102.73,208.77,97.8,206.95,93.36,206.95z M104.88,255.89
		h7.15v-48h-7.15V255.89z M121.43,232.77h8.43v-6.27h-8.43v-12.33h8.77v-6.27h-15.91v48h16.05v-6.27h-8.9V232.77z M148.4,232.29
		c0,4.65,0.2,9.37,0.2,14.02v2.56h-0.27c-0.61-9.04-2.09-18.2-3.37-27.17l-2.02-13.82h-10.72v48h5.87v-34.79
		c0-2.02-0.2-4.11-0.2-6.2h0.27c0.61,5.66,1.35,10.99,2.16,16.99l3.37,24h10.58v-41.73h6.37v41.73h7.14v-41.73h6.57v41.73h7.15v-48
		H148.4V232.29z M200.51,211.49c-1.5-3.43-5.23-4.54-8.68-4.54c-4.38,0-9.3,1.82-9.3,8.09v6.88c0,7.82,11.53,14.43,11.53,21.17v5.06
		c0,2.43-0.74,2.96-2.16,2.96c-1.48,0-2.22-0.54-2.22-2.96v-10.45h-7.14v11.06c0,6.27,4.92,8.09,9.3,8.09
		c4.45,0,9.37-1.82,9.37-8.09v-8.5c0-4.85-11.53-15.24-11.53-18.67v-5.93c0-2.43,0.74-2.97,2.22-2.97c1.42,0,2.16,0.54,2.16,2.97
		v9.5h7.14v-10.11c0-0.31-0.02-0.59-0.04-0.88h5.63v41.73h7.15v-41.73h6.2v-6.27h-19.62V211.49z M165.17,186.73
		c1.69,0,2.44-0.38,2.02-2.85l-4.03-23.43c-0.43-2.47-1.12-2.85-2.42-2.85h-1.21l4.08,29.12H165.17z M149,123.64l-14.04,0.03
		c-1.37,0-2.66,0.74-3.35,1.93l-37.99,65.36c-0.7,1.2-0.7,2.69-0.01,3.89c0.69,1.2,1.98,1.94,3.37,1.94h90
		c1.38,0,2.67-0.74,3.36-1.94c0.7-1.2,0.69-2.69,0-3.89l-37.97-65.39C151.67,124.37,150.39,123.64,149,123.64z M128.32,191.29
		l2.32-17.62c0.59-4.51,1.2-8.76,1.99-13.59h-0.2c-0.68,2.85-2.84,12.68-3.42,14.72l-4.78,16.49h-6.3l1.75-18.43
		c0.47-3.92,1.25-9.51,1.69-12.79h-0.2c-0.51,2.31-1.05,5.16-1.6,7.47l-5.73,23.75h-6.03l10.97-38.26h7.24l-1.48,15.8
		c-0.18,2.36-0.45,7.09-1.29,11.93h0.3c0.9-3.97,1.83-8.81,2.7-11.87l4.15-15.85h7.24l-3.29,38.26H128.32z M149.48,191.29
		l-1.49-10.37h-4.48l-1.68,10.37h-6.23l6.67-38.26h7.33l6.83,38.26H149.48z M159.91,153.04c4.84,0,7.31,1.94,8.81,8.65l5.08,22.67
		c0.82,3.65-1.3,6.93-6.62,6.93h-9.8L154,153.04H159.91z M145.67,160.02l-1.5,15.9h3.16l-1.31-15.9H145.67z M127.07,45.26
		c0.34,0.22,0.66,0.39,0.92,0.53v72.73l-40.46,69.61l-0.06,0.12c-0.65,1.36-1.04,2.9-1.04,4.54c0,5.78,4.65,10.46,10.41,10.53h90.27
		c5.77-0.07,10.42-4.75,10.42-10.53c0-1.66-0.4-3.24-1.08-4.62l-0.06-0.1l-40.41-69.58l-0.01-47.7c1.08-0.21,2.01-0.61,2.73-1.33
		c0.97-0.98,1.23-2.27,1.22-3.38c-0.05-2.67-1.12-5.54-1.09-8.47c0-0.72,0.06-1.44,0.21-2.15c0.86-4.47,3.38-8.09,3.42-13.81
		c0-0.98-0.08-2-0.25-3.09c-0.87-5.43-2.75-8.75-4.96-10.69c-2.21-1.94-4.62-2.36-6.15-2.35c-0.23,0-0.44,0.01-0.63,0.02
		c-2.33-2.73-5.57-3.59-8.31-3.57c-2.8,0.01-5.22,0.77-6.63,1.43c-4.54,2.13-6.44,5.29-7.05,6.57c-1.76,1.26-3.37,3.09-4.23,6.13
		c-0.31,1.05-0.45,2.02-0.45,2.88c-0.01,1.9,0.66,3.28,0.92,3.94C125.35,44.22,126.28,44.7,127.07,45.26z M193.46,189.7
		c0.45,0.94,0.71,1.98,0.71,3.09c0,3.93-3.17,7.12-7.08,7.17H96.85c-3.9-0.05-7.07-3.24-7.07-7.17c0-1.07,0.25-2.09,0.68-3.02
		l40.65-69.94c0.15-0.25,0.23-0.55,0.23-0.84V41.81l0.02-0.01c0,0-0.14-1.82,1.4-2.53c1.26-0.43,2.63-0.59,3.87-0.59
		c1.57,0,2.91,0.24,3.4,0.37c0.44,0.14,0.59,0.29,0.79,0.76c0.18,0.46,0.26,1.21,0.26,2.08c0,0.98-0.09,2.11-0.09,3.21
		c0.01,1.09,0.08,2.18,0.49,3.17c0.4,0.99,1.32,1.85,2.59,2.08c0.14,0.03,0.26,0.04,0.38,0.04c1.46-0.08,3.07-1.17,2.88-2.98
		c0-0.07,0-0.14-0.01-0.23c-0.03-0.33-0.05-0.61-0.05-0.87c0-1.11,0.23-1.86,0.5-2.26c0.28-0.41,0.49-0.47,0.68-0.48
		c0.22-0.01,0.63,0.16,1.04,0.81c0.4,0.65,0.73,1.74,0.73,3.29c0.01,1.2-0.36,2.5-0.53,4.38c-0.28,3.34-1.27,7.36-1.47,10.74
		c-0.02,0.37-0.04,0.74-0.04,1.09c-0.06,2.1,0.11,6.53,4.47,6.99l-0.02,48.05c0,0.3,0.08,0.59,0.23,0.85L193.46,189.7z
		 M127.48,37.04c0.82-2.61,1.74-3.47,3.31-4.59c0.29-0.2,0.51-0.49,0.63-0.83c0,0,0,0,0.03-0.06c0.23-0.51,1.54-3.26,5.52-5.13
		c0.95-0.45,3.07-1.12,5.2-1.11c2.36,0.03,4.58,0.68,6.19,2.97c0.4,0.58,1.13,0.84,1.81,0.66c0,0,0.02-0.01,0.18-0.03
		c0.16-0.03,0.42-0.05,0.75-0.05c0.98,0.01,2.46,0.23,3.93,1.52c1.47,1.29,3.06,3.78,3.86,8.7c0.15,0.91,0.21,1.76,0.21,2.55
		c0.04,4.56-2.23,7.86-3.36,13.14c-0.2,0.96-0.14,1.63-0.18,2.54c-0.16,3.55,1.07,5.28,1.07,8.04c0.11,0.87-0.32,1.47-1.02,1.84
		c-0.78,0.41-1.75,0.68-2.72,0.67c-0.13,0-0.26-0.02-0.38-0.03c-0.09-0.01-0.17-0.01-0.25-0.02c-1.37-0.25-1.91-1.07-2.1-2.75
		c-0.04-0.36-0.07-0.74-0.08-1.18c-0.01-3.19,1.17-7.75,1.51-11.68c0.14-1.68,0.53-2.97,0.54-4.54c-0.01-3.54-1.46-5.88-3.65-5.99
		c-1.92,0.06-3.06,1.98-3.06,4.63c0,0.33,0.02,0.68,0.06,1.04c0,0,0,0.02,0,0.06c0.01,0.23,0.01,0.6-0.23,0.84
		c-0.23,0.24-0.69,0.27-0.76,0.25h-0.03c-0.7-0.17-0.94-0.42-1.21-0.97c-0.24-0.55-0.34-1.43-0.34-2.43c0-1.01,0.08-2.13,0.08-3.21
		c0-0.96-0.06-1.89-0.38-2.75c-0.3-0.86-1.04-1.66-2.08-1.91c-0.67-0.17-2.1-0.43-3.87-0.43c-2.51,0.01-5.74,0.51-8.03,2.84
		c-0.05,0.06-0.07,0.11-0.11,0.16c-0.17,0.16-0.3,0.36-0.39,0.58c-0.15,0.15-0.44,0.32-0.74-0.03c-0.11-0.4-0.19-0.84-0.2-1.39
		C127.17,38.43,127.25,37.8,127.48,37.04z"/>
</g>
<g id="Layer_2">
</g>
<g id="Layer_3">
</g>
</svg>
