<?xml version="1.0" standalone="no"?>
<!DOCTYPE svg PUBLIC "-//W3C//DTD SVG 1.1//EN" "http://www.w3.org/Graphics/SVG/1.1/DTD/svg11.dtd">
<svg width="100%" height="100%" viewBox="0 0 2126 1063" version="1.1" xmlns="http://www.w3.org/2000/svg" xmlns:xlink="http://www.w3.org/1999/xlink" xml:space="preserve" style="fill-rule:evenodd;clip-rule:evenodd;stroke-linejoin:round;stroke-miterlimit:1.41421;">
    <g transform="matrix(21.5734,1.72451e-13,1.69683e-13,22.5538,-1170.96,-2436.81)">
        <g transform="matrix(0.234746,0,0,0.227928,55.1655,87.1259)">
            <path d="M40.538,184.135C34.49,184.779 31.466,185.116 25.423,185.82C17.327,159.864 8.979,133.986 0.384,108.191C6.733,107.389 9.91,107.003 16.265,106.263C21.03,124.453 25.708,142.665 30.298,160.9C30.759,142.102 31.31,123.307 31.951,104.515C38.311,103.836 41.493,103.513 47.858,102.898C45.16,129.953 42.722,157.034 40.538,184.135" style="fill:white;fill-rule:nonzero;"/>
        </g>
        <g transform="matrix(0.234746,0,0,0.227928,55.1655,87.1259)">
            <path d="M101.257,98.617C101.658,104.913 101.858,108.061 102.259,114.357C95.278,114.801 91.788,115.042 84.811,115.563C85.291,122 85.531,125.219 86.011,131.657C91.068,131.28 93.597,131.102 98.657,130.765C99.024,136.279 99.207,139.036 99.575,144.549C94.559,144.883 92.052,145.06 87.038,145.434C87.598,152.944 87.878,156.7 88.438,164.21C95.406,163.691 98.891,163.451 105.863,163.009C106.255,169.208 106.452,172.307 106.844,178.506C94.314,179.299 88.052,179.76 75.537,180.807C73.314,154.206 71.086,127.605 68.861,101.004C81.812,99.92 88.292,99.443 101.257,98.617" style="fill:white;fill-rule:nonzero;"/>
        </g>
        <g transform="matrix(0.234746,0,0,0.227928,55.1655,87.1259)">
            <path d="M139.851,131.98C141.412,131.916 142.193,131.885 143.755,131.825C147.145,131.695 148.085,129.218 147.815,121.643C147.506,112.967 146.102,111.546 142.773,111.674C141.275,111.732 140.526,111.762 139.028,111.823C139.357,119.886 139.522,123.917 139.851,131.98M143.16,145.553C142.06,145.596 141.51,145.618 140.41,145.663C140.917,158.074 141.171,164.28 141.677,176.691C136.045,176.921 133.23,177.049 127.6,177.33C126.271,150.669 124.937,124.008 123.608,97.347C131.375,96.959 135.26,96.789 143.03,96.493C156.05,95.999 161.743,104.574 162.144,119.606C162.424,130.118 160.243,137.019 155.642,140.343C159.889,154.547 161.969,161.656 166.044,175.888C160.171,176.035 157.234,176.123 151.362,176.326C148.138,164.008 146.497,157.854 143.16,145.553" style="fill:white;fill-rule:nonzero;"/>
        </g>
        <g transform="matrix(0.234746,0,0,0.227928,55.1655,87.1259)">
            <path d="M205.451,110.845C203.328,110.844 202.267,110.846 200.144,110.852C200.194,127.358 200.244,143.863 200.294,160.369C202.352,160.362 203.381,160.361 205.439,160.362C209.171,160.363 210.692,158.171 210.726,148.634C210.764,138.071 210.783,132.789 210.821,122.225C210.854,113.057 209.301,110.846 205.451,110.845M205.456,95.317C218.378,95.321 225.606,105.229 225.399,121.611C225.259,132.613 225.189,138.115 225.05,149.118C224.841,165.623 217.723,175.403 205.435,175.4C197.762,175.398 193.926,175.42 186.254,175.513C185.931,148.821 185.606,122.129 185.285,95.436C193.353,95.339 197.387,95.315 205.456,95.317" style="fill:white;fill-rule:nonzero;"/>
        </g>
        <g transform="matrix(0.234746,0,0,0.227928,55.1655,87.1259)">
            <path d="M261.198,147.055C264.575,147.175 266.264,147.24 269.641,147.378C268.494,134.556 267.904,128.145 266.69,115.325C264.458,128.013 263.36,134.359 261.198,147.055M256.461,176.252C250.829,176.065 248.012,175.985 242.379,175.849C247.62,149.253 253.093,122.703 258.801,96.204C265.774,96.433 269.261,96.567 276.231,96.872C279.925,123.732 283.388,150.625 286.612,177.546C280.863,177.243 277.987,177.105 272.237,176.856C271.676,170.419 271.391,167.201 270.813,160.765C266.092,160.566 263.731,160.476 259.008,160.313C257.981,166.688 257.472,169.876 256.461,176.252" style="fill:white;fill-rule:nonzero;"/>
        </g>
        <g transform="matrix(0.234746,0,0,0.227928,55.1655,87.1259)">
            <path d="M322.849,99.576C327.163,112.656 331.361,125.775 335.442,138.931C336.485,126.217 337.529,113.504 338.572,100.79C343.728,101.214 346.305,101.436 351.457,101.9C349.062,128.486 346.668,155.072 344.274,181.659C340.49,181.318 338.596,181.153 334.81,180.836C330.683,166.929 326.423,153.062 322.034,139.236C321.043,152.689 320.051,166.142 319.06,179.595C314.156,179.234 311.704,179.063 306.796,178.74C308.546,152.103 310.296,125.467 312.048,98.83C316.368,99.114 318.529,99.263 322.849,99.576" style="fill:white;fill-rule:nonzero;"/>
        </g>
        <g transform="matrix(0.234746,0,0,0.227928,55.1655,87.1259)">
            <path d="M409.616,108.19C408.819,114.497 408.421,117.651 407.624,123.959C403.281,123.41 401.108,123.143 396.762,122.624C394.224,143.869 391.685,165.114 389.148,186.359C383.503,185.685 380.68,185.36 375.031,184.738C377.374,163.471 379.718,142.203 382.061,120.936C377.711,120.456 375.535,120.224 371.182,119.774C371.835,113.45 372.162,110.289 372.816,103.965C387.55,105.487 394.911,106.332 409.616,108.19" style="fill:white;fill-rule:nonzero;"/>
        </g>
        <g transform="matrix(0.234746,0,0,0.227928,55.1655,87.1259)">
            <path d="M103.06,244.695L105.092,244.695C106.046,244.695 106.795,244.556 107.333,244.279C107.872,244.002 108.281,243.617 108.558,243.124C108.834,242.632 109.004,242.047 109.065,241.369C109.127,240.692 109.157,239.953 109.157,239.152C109.157,238.32 109.111,237.597 109.019,236.981C108.927,236.365 108.734,235.849 108.441,235.433C108.149,235.018 107.741,234.702 107.218,234.487C106.694,234.272 106.001,234.163 105.139,234.163L103.06,234.163L103.06,244.695ZM103.06,230.007L105.185,230.007C106.756,230.007 107.81,229.614 108.35,228.828C108.888,228.043 109.157,226.896 109.157,225.387C109.157,223.909 108.858,222.801 108.257,222.062C107.657,221.323 106.57,220.953 105.001,220.953L103.06,220.953L103.06,230.007ZM98.349,216.519L105.232,216.519C106.74,216.519 108.026,216.75 109.088,217.211C110.151,217.674 111.02,218.29 111.698,219.059C112.375,219.83 112.86,220.715 113.153,221.715C113.445,222.716 113.591,223.755 113.591,224.833L113.591,226.034C113.591,226.927 113.522,227.682 113.384,228.297C113.245,228.913 113.038,229.452 112.761,229.914C112.483,230.376 112.144,230.784 111.745,231.138C111.344,231.492 110.882,231.823 110.358,232.131C111.467,232.655 112.283,233.432 112.807,234.464C113.33,235.496 113.591,236.874 113.591,238.598L113.591,240.445C113.591,243.34 112.891,245.557 111.49,247.096C110.089,248.637 107.848,249.406 104.77,249.406L98.349,249.406L98.349,216.519Z" style="fill:white;fill-rule:nonzero;"/>
        </g>
        <g transform="matrix(0.234746,0,0,0.227928,55.1655,87.1259)">
            <path d="M125.507,231.207L128.187,231.207C129.017,231.207 129.679,231.092 130.173,230.861C130.665,230.63 131.042,230.299 131.305,229.868C131.566,229.437 131.744,228.905 131.835,228.274C131.928,227.643 131.975,226.911 131.975,226.08C131.975,225.248 131.928,224.517 131.835,223.886C131.744,223.255 131.55,222.716 131.258,222.269C130.965,221.823 130.558,221.492 130.034,221.276C129.51,221.061 128.817,220.953 127.956,220.953L125.507,220.953L125.507,231.207ZM120.796,216.519L128.371,216.519C133.914,216.519 136.686,219.736 136.686,226.172C136.686,228.082 136.386,229.722 135.785,231.092C135.184,232.462 134.129,233.563 132.621,234.394L137.702,249.406L132.714,249.406L128.325,235.364L125.507,235.364L125.507,249.406L120.796,249.406L120.796,216.519Z" style="fill:white;fill-rule:nonzero;"/>
        </g>
        <g transform="matrix(0.234746,0,0,0.227928,55.1655,87.1259)">
            <path d="M143.245,216.519L157.287,216.519L157.287,220.953L147.956,220.953L147.956,230.607L156.086,230.607L156.086,235.041L147.956,235.041L147.956,244.695L157.287,244.695L157.287,249.405L143.245,249.405L143.245,216.519Z" style="fill:white;fill-rule:nonzero;"/>
        </g>
        <g transform="matrix(0.234746,0,0,0.227928,55.1655,87.1259)">
            <path d="M182.645,249.406L178.211,249.406L174.608,228.066L174.516,228.066L170.96,249.406L166.526,249.406L161.629,216.519L166.617,216.519L168.973,237.397L169.065,237.397L172.761,216.519L176.363,216.519L180.197,237.905L180.29,237.905L182.553,216.519L187.542,216.519L182.645,249.406Z" style="fill:white;fill-rule:nonzero;"/>
        </g>
        <g transform="matrix(0.234746,0,0,0.227928,55.1655,87.1259)">
            <rect x="193.407" y="216.519" width="4.711" height="32.887" style="fill:white;"/>
        </g>
        <g transform="matrix(0.234746,0,0,0.227928,55.1655,87.1259)">
            <path d="M205.277,216.519L209.804,216.519L216.917,236.334L217.009,236.334L217.009,216.519L221.72,216.519L221.72,249.405L217.286,249.405L210.081,229.637L209.988,229.637L209.988,249.405L205.277,249.405L205.277,216.519Z" style="fill:white;fill-rule:nonzero;"/>
        </g>
        <g transform="matrix(0.234746,0,0,0.227928,55.1655,87.1259)">
            <path d="M228.463,224.278C228.463,222.955 228.694,221.784 229.157,220.768C229.619,219.751 230.226,218.913 230.981,218.25C231.735,217.589 232.581,217.089 233.522,216.749C234.46,216.411 235.407,216.241 236.362,216.241C237.316,216.241 238.263,216.411 239.203,216.749C240.142,217.089 240.988,217.589 241.743,218.25C242.497,218.913 243.106,219.751 243.567,220.768C244.029,221.784 244.26,222.955 244.26,224.278L244.26,225.941L239.549,225.941L239.549,224.278C239.549,223.139 239.233,222.3 238.602,221.761C237.97,221.223 237.223,220.953 236.362,220.953C235.5,220.953 234.753,221.223 234.121,221.761C233.49,222.3 233.175,223.139 233.175,224.278L233.175,241.646C233.175,242.785 233.49,243.624 234.121,244.163C234.753,244.702 235.5,244.971 236.362,244.971C237.223,244.971 237.97,244.702 238.602,244.163C239.233,243.624 239.549,242.785 239.549,241.646L239.549,235.456L235.808,235.456L235.808,231.299L244.26,231.299L244.26,241.646C244.26,243.001 244.029,244.179 243.567,245.179C243.106,246.18 242.497,247.011 241.743,247.673C240.988,248.336 240.142,248.836 239.203,249.175C238.263,249.513 237.316,249.683 236.362,249.683C235.407,249.683 234.46,249.513 233.522,249.175C232.581,248.836 231.735,248.336 230.981,247.673C230.226,247.011 229.619,246.18 229.157,245.179C228.694,244.179 228.463,243.001 228.463,241.646L228.463,224.278Z" style="fill:white;fill-rule:nonzero;"/>
        </g>
        <g transform="matrix(0.234746,0,0,0.227928,55.1655,87.1259)">
            <path d="M277.518,242.062C277.518,243.078 277.324,244.048 276.94,244.971C276.555,245.895 276.023,246.704 275.346,247.397C274.668,248.089 273.876,248.644 272.967,249.06C272.059,249.475 271.081,249.683 270.034,249.683C269.141,249.683 268.234,249.56 267.309,249.314C266.386,249.068 265.554,248.644 264.815,248.043C264.076,247.443 263.468,246.65 262.991,245.665C262.513,244.68 262.274,243.432 262.274,241.923L262.274,223.817C262.274,222.739 262.46,221.738 262.829,220.814C263.199,219.89 263.722,219.09 264.4,218.412C265.076,217.735 265.884,217.205 266.825,216.819C267.763,216.434 268.803,216.241 269.943,216.241C271.02,216.241 272.02,216.434 272.945,216.819C273.868,217.205 274.668,217.742 275.346,218.436C276.023,219.128 276.555,219.96 276.94,220.93C277.324,221.9 277.518,222.955 277.518,224.094L277.518,225.941L272.806,225.941L272.806,224.371C272.806,223.447 272.544,222.647 272.02,221.969C271.497,221.292 270.789,220.953 269.896,220.953C268.726,220.953 267.949,221.315 267.564,222.038C267.178,222.762 266.987,223.678 266.987,224.787L266.987,241.6C266.987,242.555 267.194,243.355 267.61,244.002C268.026,244.648 268.771,244.971 269.85,244.971C270.158,244.971 270.489,244.918 270.843,244.81C271.196,244.703 271.52,244.526 271.813,244.279C272.105,244.033 272.344,243.694 272.528,243.263C272.714,242.831 272.806,242.293 272.806,241.646L272.806,240.03L277.518,240.03L277.518,242.062Z" style="fill:white;fill-rule:nonzero;"/>
        </g>
        <g transform="matrix(0.234746,0,0,0.227928,55.1655,87.1259)">
            <path d="M288.557,241.646C288.557,242.786 288.871,243.625 289.503,244.163C290.134,244.703 290.881,244.971 291.744,244.971C292.605,244.971 293.352,244.703 293.983,244.163C294.615,243.625 294.93,242.786 294.93,241.646L294.93,224.278C294.93,223.139 294.615,222.3 293.983,221.761C293.352,221.223 292.605,220.953 291.744,220.953C290.881,220.953 290.134,221.223 289.503,221.761C288.871,222.3 288.557,223.139 288.557,224.278L288.557,241.646ZM283.845,224.278C283.845,222.955 284.075,221.784 284.538,220.768C285,219.752 285.608,218.913 286.363,218.251C287.116,217.589 287.963,217.089 288.903,216.749C289.841,216.411 290.788,216.241 291.744,216.241C292.698,216.241 293.645,216.411 294.584,216.749C295.523,217.089 296.37,217.589 297.125,218.251C297.878,218.913 298.487,219.752 298.949,220.768C299.411,221.784 299.641,222.955 299.641,224.278L299.641,241.646C299.641,243.001 299.411,244.179 298.949,245.18C298.487,246.181 297.878,247.012 297.125,247.674C296.37,248.336 295.523,248.837 294.584,249.175C293.645,249.513 292.698,249.683 291.744,249.683C290.788,249.683 289.841,249.513 288.903,249.175C287.963,248.837 287.116,248.336 286.363,247.674C285.608,247.012 285,246.181 284.538,245.18C284.075,244.179 283.845,243.001 283.845,241.646L283.845,224.278Z" style="fill:white;fill-rule:nonzero;"/>
        </g>
        <g transform="matrix(0.234746,0,0,0.227928,55.1655,87.1259)">
            <rect x="304.444" y="244.695" width="4.712" height="4.711" style="fill:white;"/>
        </g>
    </g>
</svg>
