<?xml version="1.0" encoding="utf-8"?>
<!-- Generator: Adobe Illustrator 24.0.1, SVG Export Plug-In . SVG Version: 6.00 Build 0)  -->
<svg version="1.1" id="Layer_1" xmlns="http://www.w3.org/2000/svg" xmlns:xlink="http://www.w3.org/1999/xlink" x="0px" y="0px"
	 viewBox="0 0 2556.67 1078.11" style="enable-background:new 0 0 2556.67 1078.11;" xml:space="preserve">
<style type="text/css">
	.st0{fill:#FFFFFF;}
</style>
<g>
	<path class="st0" d="M597.62,8.73c4.65,0.72,8.33,1.31,12.02,1.83c0.81,0.11,1.81-0.33,2.46-0.01c9.44,4.69,20.26,7.68,25.6,17.92
		c2.88,5.53,4.9,11.55,6.78,17.52c1.51,4.81,1.43,10.24,3.47,14.75c3.11,6.87,0.35,11.99-2.48,17.82c-1.15,2.38-0.09,6.16,0.72,9.09
		c1.39,5.05,2.87,9.69-0.56,14.75c-1.08,1.6-0.34,5.08,0.58,7.27c2.43,5.81,5.9,11.3,3.75,18.01c-1.21,3.77-2.71,7.46-3.78,11.27
		c-0.62,2.21-1.01,4.62-0.86,6.89c0.41,6.31,0.17,12.91,2.04,18.8c2.13,6.69-0.87,13.27,0.82,19.35c1.93,6.95-0.14,11.62-4.42,16.43
		c-0.49,0.55,0.77,3.16,1.76,4.37c0.69,0.84,2.3,0.93,4.16,1.58c-4.85,6.21-3.4,11.79-0.04,17.83c1.26,2.26,0.76,6.42-0.48,8.95
		c-2.52,5.13-3.63,9.99-2.92,15.79c1,8.23,1.05,16.59,1.21,24.91c0.05,2.41-0.75,4.89-1.48,7.25c-1.62,5.26-2.62,10.74,0.73,15.37
		c3.55,4.91,2.32,9.29,0.12,13.81c-2.06,4.24-4.6,8.25-6.81,12.43c-0.41,0.77-0.67,2.08-0.29,2.68c0.4,0.62,1.64,0.82,2.56,0.98
		c1.89,0.34,4.12,0.02,5.62,0.93c1.22,0.75,2.5,3.14,2.17,4.38c-1.25,4.7-3.26,9.18-4.73,13.83c-0.68,2.17-1.77,5.02-0.94,6.7
		c2.42,4.86,1.47,9.22,0.5,14.18c-0.74,3.81,1.52,8.11,1.45,12.18c-0.43,25.3-1.1,50.59-1.82,75.89c-0.06,2.1-1.14,4.15-1.49,6.27
		c-0.39,2.42-1.54,5.5-0.53,7.22c3.25,5.54,3.54,11.83,1.69,16.88c-2.68,7.33-1.31,13.4,1.04,20.09c0.79,2.26-0.71,5.23-0.66,7.86
		c0.12,6.49,0.97,12.99,0.65,19.44c-0.17,3.51-1.39,7.5-3.45,10.29c-3.69,4.97-4.06,6.03,1.12,9.33c3.16,2.01,4.67,4.12,2.45,7.75
		c-0.57,0.94-0.83,2.23-0.79,3.35c0.22,7.11,0.67,14.2,0.83,21.31c0.11,4.8,0.63,9.79-0.41,14.38c-1.57,6.92-0.27,13.47,0.29,20.25
		c1.35,16.32,3.74,32.71-2.47,48.79c-0.84,2.17,1.73,5.61,2.61,8.49c0.53,1.74,1.27,3.59,1.13,5.32c-0.32,3.71-1.35,7.35-1.71,11.05
		c-0.33,3.3-0.44,6.68-0.12,9.97c0.42,4.38,1.45,8.7,2.02,13.08c0.39,2.95,1.02,6.04,0.54,8.89c-1.28,7.67-3.35,15.21-4.59,22.88
		c-0.5,3.09-0.51,6.82,0.79,9.52c2.08,4.32,2.45,8.41,0.51,12.45c-4.16,8.65-2.99,16.83,1.78,24.63c1.92,3.14,1.75,5.42-0.65,7.99
		c-3.49,3.73-4.14,7.5-0.69,11.95c5.43,7.02,1.23,14.05-1,20.82c-1.54,4.69-4.27,8.98-5.93,13.65c-0.62,1.73-0.11,4.17,0.62,6
		c1.18,2.97,2.8,5.82,4.54,8.52c1.9,2.95,2.47,5.57,0.31,8.75c-0.67,0.98,0.39,3.04,0.39,4.6c0,3.18,0.5,6.58-0.47,9.48
		c-1.4,4.2-2.06,8.05,0.34,11.92c1.86,3,1.48,5.37-0.89,8.06c-4.7,5.33-4.68,6.03,0.13,11.27c2.82,3.07,2.75,6.02,1.3,9.6
		c-1.03,2.54-1.84,5.33-1.94,8.03c-0.29,7.16,0.13,14.34-0.25,21.49c-0.27,5.08-1.7,10.1-2.01,15.18c-0.29,4.75-0.52,9.72,0.5,14.3
		c2.48,11.14,3.12,22.08-1.58,32.71c-1.06,2.39-3.31,4.91-5.64,5.95c-7.74,3.45-15.89,6.74-24.48,4.86
		c-3.9-0.86-7.93-3.61-10.72-6.61c-7.92-8.51-12.39-18.79-15.47-30.13c-2.66-9.78-2.13-19.4-2.52-29.17
		c-0.16-4.18-1.81-8.28-2.14-12.47c-0.29-3.71-0.1-7.56,0.59-11.22c1.8-9.6,3.03-19.05-0.47-28.61c-0.85-2.31-1.19-5.64-0.15-7.67
		c3.82-7.5,1.5-14.92,0.3-22.25c-0.51-3.11-1.22-5.49,1.06-8.25c5.05-6.1,1.15-12.69,0.61-19.12c-0.34-4.04-0.29-8.13-0.14-12.19
		c0.29-8.06,2.36-16.25-2.2-23.89c-0.57-0.95-0.97-2.28-0.82-3.35c2.5-18.05-6.19-32.8-14.36-47.54
		c-4.37-7.89-11.53-12.78-20.07-16.35c-12.24-5.13-23.7-12.17-35.99-17.16c-11.15-4.53-22.97-7.42-34.5-11.02
		c-2.05-0.64-4.09-1.36-6.18-1.88c-5.61-1.4-11.3-2.54-16.86-4.1c-4.25-1.2-8.31-3.12-12.57-4.27c-2.74-0.73-6.35-1.84-8.44-0.7
		c-9.37,5.08-19.12,4.49-29.2,3.92c-16.79-0.96-33.61-1.72-50.42-1.65c-20.46,0.09-40.92,1.23-61.39,1.68
		c-5.3,0.12-10.64-0.51-15.92-1.1c-5.19-0.58-10.29-1.29-14.94,2c-0.52,0.37-1.39,0.78-1.86,0.59c-9.34-3.75-17.73,4.33-26.92,2.13
		c-0.16-0.04-0.34-0.05-0.5-0.02c-6.32,1.2-12.58,4.7-19.06,0.28c-0.6-0.41-2.15,0.53-3.24,0.9c-2.81,0.95-5.59,2.69-8.42,2.78
		c-12.98,0.42-23.83,6.69-35.06,12.03c-1.34,0.64-2.79,1.64-4.14,1.56c-11.32-0.67-20.21,5.9-29.96,9.84
		c-3.39,1.37-7.03,2.61-9.82,4.83c-5.25,4.18-9.66,9.53-17.09,9.95c-0.48,0.03-1.22,0.85-1.32,1.4c-1.31,7.16-8.19,8.54-12.69,12.37
		c-6.71,5.72-13.07,11.91-20.19,17.06c-5.01,3.63-9.65,7.17-11.74,13.15c-1.11,3.17-2.61,6.43-2.68,9.68
		c-0.11,5.87,0.25,11.49-3.73,16.62c-1.56,2.01-1.55,5.25-2.19,7.95c-0.71,2.99-1.33,6.01-2.01,9.01c-0.11,0.48-0.56,1-0.46,1.39
		c2,7.53-2.03,14.04-3.39,21c-0.38,1.96-0.11,4.54,0.92,6.17c2.56,4.06,2.14,7.88,0.24,11.82c-5.28,10.93-0.22,20.4,12.05,22
		c3.73,0.49,5.03,1.63,2.76,4.97c-1.72,2.55-1.15,4.51,0.82,6.66c1.18,1.29,1.73,3.16,2.56,4.77c-1.79,0.08-3.57,0.16-5.36,0.26
		c-0.32,0.02-0.63,0.15-2.06,0.52c1.37,3.59,2.54,7.18,4.13,10.59c0.95,2.02,1.9,3.6-0.8,4.87c-2.92,1.37-4.9,3.97-3.42,6.76
		c1.11,2.09,4.04,3.48,6.44,4.55c1.65,0.73,3.79,0.38,6.54,0.57c-1.23,1.92-1.94,3.16-2.77,4.3c-3.77,5.19-3.13,8.4,2.31,11.91
		c0.77,0.5,1.8,1.46,1.78,2.18c-0.09,3.73-0.48,7.46-0.79,11.57c-1.76-0.44-2.99-0.86-4.26-1.05c-4.4-0.66-5.87,1.94-5.24,6.18
		c0.81,5.44,1.81,11.65-0.02,16.48c-2.44,6.47-7.39,12.03-11.51,17.81c-2.84,3.99-6.98,5.61-11.85,4.74
		c-5.07-0.91-11.09-0.67-14.87-3.44c-3.81-2.8-6.33-8.38-7.73-13.23c-3.08-10.62-5.1-21.54-7.54-32.35
		c-0.18-0.79-0.37-1.63-0.3-2.42c0.89-9.28,2.38-18.55,2.54-27.84c0.09-5.6-2.14-11.2-2.83-16.86c-0.43-3.53-0.75-7.47,0.37-10.71
		c2.37-6.84,4.22-13.25-0.08-20.04c-0.7-1.11,0.47-3.33,0.59-5.05c0.26-3.82,1.62-8.12,0.35-11.38c-2.83-7.29-2.12-14.2-0.81-21.49
		c0.67-3.71,0.15-7.69-0.19-11.51c-0.41-4.62-1.74-9.2-1.74-13.79c0-15.65,0.45-31.31,0.61-46.97c0.02-2.29-0.23-4.74-1.03-6.87
		c-2.09-5.53-1.33-10.49,2.27-15.01c2.04-2.56,2.17-4.96-0.45-6.93c-5.27-3.98-4.28-9.12-2.33-13.98c1.55-3.87,1.69-7.19-0.04-10.98
		c-2.73-5.99-2.3-12.32-1.06-18.62c0.16-0.82,0.8-1.92,0.48-2.39c-4.58-6.81,2.92-14.67-1.91-21.42c-0.26-0.36-0.46-1.12-0.27-1.39
		c3.6-5.1,1.36-9.97,0-15.18c-1.23-4.71,1-7.02,6.09-8.01c-0.03-0.76,0.26-1.85-0.15-2.29c-5.56-5.91-3.04-12.38-2.7-19.28
		c0.28-5.7,0.13-11.55,0.32-17.38c0.12-3.67-2.82-7.52,0.15-11.48c0.32-0.42,0.24-1.35,0.02-1.93c-3.9-10.3-2.3-20.5-0.07-30.87
		c1.07-4.98,0.86-10.27,0.87-15.43C0.08,553.28-0.1,533.95,0,514.62c0.02-3.07,1.26-6.11,1.63-9.2c0.29-2.39,0.7-5,0.04-7.21
		c-1.85-6.21-3.19-12.2,0.41-18.28c0.58-0.97,0.33-2.57,0.15-3.84c-0.64-4.54-1.51-9.06-2.11-13.61c-0.79-6.05-1.52-12.12-2.06-18.2
		c-0.28-3.14-0.02-6.32-0.14-9.47c-0.16-3.98-0.65-7.95-0.65-11.92c0.01-5.91,0.31-11.82,0.53-17.73c0.03-0.81,0.54-1.64,0.47-2.43
		c-0.63-7.15-1.34-14.3-2.03-21.45c-0.03-0.33-0.25-0.72-0.14-0.98c2.66-6.06,0.65-11.72-0.83-17.66c-0.76-3.03,0.1-7,1.5-9.93
		c2.73-5.72,3.05-11-0.28-16.4c-2.45-3.98-2.12-7.78,0.1-11.78c1.78-3.22,2.8-6.49,0.95-10.4c-1.05-2.22-0.55-5.21-0.61-7.85
		c-0.04-1.83,0.8-3.97,0.11-5.43c-3.74-7.91,1.16-14.03,4.11-20.4c1.55-3.34,2.14-5.97,0.11-9.29c-1.05-1.71-1.32-4.12-1.33-6.22
		c-0.09-16.16-0.78-32.37,0.31-48.46c0.49-7.28,1.83-14.13,0.06-21.56c-1.35-5.68-0.82-11.99-0.18-17.92
		c0.66-6.18,1.89-12.44,3.9-18.31c2.1-6.15,2.89-11.81-0.51-17.64c-0.73-1.26-1.45-2.83-1.37-4.22c0.56-10.02,1.33-20.03,2.02-30.05
		c0.08-1.16,0.17-2.34,0.05-3.48C2.97,91.84,4.06,80.85,9.75,70.5c3.48-6.33,6.41-12.97,9.52-19.5c0.64-1.34,1.16-2.78,1.44-4.23
		c0.82-4.31,2.36-6.99,7.66-7.42c2.98-0.24,5.99-3.31,8.47-5.65c4.38-4.13,8.31-8.4,15.11-8.71c1.88-0.09,3.89-3.23,5.34-5.32
		c2.48-3.57,11.38-7.11,15.37-5.54c7.71,3.04,15.39,6.16,23.02,9.42c1.78,0.76,3.62,1.9,4.83,3.36c4.31,5.25,8.18,10.86,12.55,16.07
		c4.92,5.88,3.72,13.6,6.57,20.06c-4.92,7.21,0.39,12.12,3.83,17.52c0.66,1.04,1.37,3.06,0.88,3.66c-3.94,4.82-2.6,10.52-2.67,15.82
		c-0.07,4.88,0.42,9.97,1.84,14.6c2.09,6.78,1.98,13.12-1.32,19.28c-1.76,3.27-2.07,6.17,0.02,9.34c2.35,3.56,1.33,7.09-0.7,10.33
		c-1.75,2.78-1.5,4.99,0.27,7.78c1.33,2.1,1.87,4.92,2.05,7.48c0.67,9.46,1.25,18.93,1.43,28.41c0.07,3.54-0.81,7.15-1.64,10.64
		c-1.65,6.89-0.87,13.53,1.72,19.97c1.12,2.79,1.59,4.89,0.57,8.23c-1.14,3.74-0.45,8.87,1.29,12.52
		c5.05,10.59,10.87,20.84,16.69,31.05c5.09,8.93,10.4,17.75,16.03,26.35c1.32,2.01,4.15,3.52,6.58,4.19
		c2.88,0.79,5.07,1.38,6.52,4.49c0.76,1.62,3.49,2.69,5.53,3.27c5.73,1.61,11.66,2.55,17.34,4.29c5.97,1.83,11.74,2.45,17.41-0.6
		c4.09-2.21,7.48-2.02,10.44,1.95c2.5,3.36,5.73,3.36,9.36,1.69c4.93-2.26,9.74-2.7,14.58,0.82c5.34,3.88,10.87,0.56,16.36-0.16
		c2.95-0.39,6.02,0.27,9.04,0.25c1.84-0.01,3.68-0.48,5.53-0.6c2.79-0.17,5.71-0.79,8.35-0.21c6.88,1.51,13.6,3.75,20.48,5.24
		c1.06,0.23,3.19-1.73,3.87-3.14c1.48-3.07,3.64-3.84,6.82-3.75c5.83,0.17,11.67-0.21,17.49,0.03c2.75,0.11,5.75,0.6,8.12,1.88
		c4.18,2.25,7.83,1.87,11.83-0.23c1.39-0.73,3.5-1.1,4.93-0.61c7.67,2.67,15.27,3.01,23.22,1.13c3.62-0.86,7.66-0.71,11.38-0.15
		c4.18,0.63,8.13,3.15,12.38-0.09c0.74-0.56,2.76,0.06,3.92,0.66c3.46,1.77,6.21,1.32,8.96-1.52c4.42-4.57,6.12-4.53,10.93-0.47
		c7.21,6.09,9.54,5.95,16.17-1.02c1.37-1.44,2.6-3.03,3.89-4.55c2.21-2.61,4.32-4.48,7.97-1.68c1.09,0.84,3.69,0.1,5.46-0.39
		c4.89-1.37,9.63-3.43,14.59-4.4c8.28-1.62,15.81-4.66,22.9-9.23c9.21-5.93,18.23-11.83,26.4-19.42c5.06-4.7,9.4-7.91,7.69-15.35
		c-0.24-1.02,0.64-2.65,1.5-3.52c4.1-4.15,5.16-9.43,6.48-14.84c2.08-8.48,4.67-16.86,7.45-25.15c1.61-4.82,1.88-9.3,0.05-14.1
		c-2.07-5.46-1.33-7.05,3.85-9.25c3.72-1.58,4.05-4.16,2.39-7.26c-2.51-4.68-5.38-9.16-7.76-13.89c-0.69-1.37-0.38-3.31-0.27-4.98
		c0.15-2.29,0.8-4.57,0.8-6.85c0.02-5.48-0.4-11.07-0.6-16.42c-0.27-7.29,0.49-13.93,2.29-20.75c0.27-1.01-0.07-2.38-0.57-3.36
		c-1.9-3.76-1.5-6.94,1.63-9.92c2.64-2.52,2.39-5.41,0.02-7.98c-4.12-4.48-5.33-8.82-1.83-14.63c1.58-2.62,0.44-6.79,0.91-10.2
		c0.6-4.31,1.69-8.54,2.38-12.84c0.4-2.45,1.25-5.27,0.44-7.36c-1-2.58-0.01-3.28,1.45-4.9c1.25-1.4,2.36-4.32,1.72-5.75
		c-1.97-4.39-0.51-8.19,1.77-11.3c6.78-9.25,14-18.17,21.25-27.06c0.96-1.17,3.21-2.21,4.61-1.95
		C592.34,15.22,597.2,14.95,597.62,8.73z M443.25,647.95c7.13,4.83,7.64,4.45,12.81-1.85c1.55-1.89,5.51-3.39,7.74-2.77
		c4.2,1.15,7.62,1.41,11.84-0.26c2.78-1.1,5.09-1.7,6.32-4.67c1.29-3.11,3.68-4.59,7.18-3.91c4.39,0.85,8.77,1.75,13.19,2.38
		c1.46,0.21,4.06,0.1,4.38-0.63c2.26-5.15,7.56-5.72,11.57-8.04c7.88-4.55,16.66-7.78,23.91-13.12c5.66-4.17,10.4-8.42,18.05-7.47
		c3.16,0.39,5.49-1.1,2.52-4.78c-0.65-0.81-1.47-2.43-1.12-2.97c2.44-3.73,3.37-8.75,9.01-9.87c2.12-0.42,4.74-2.12,5.68-3.98
		c2.28-4.49,3.89-9.36,5.43-14.18c0.92-2.9,2.37-4.52,5.28-5.84c3.57-1.61,6.76-4.27,9.68-6.95c1.02-0.94,1.57-4.3,0.92-4.83
		c-5.26-4.33-3.45-8.36,0.01-12.46c2.87-3.4,2.97-6.57,0.47-10.43c-1.01-1.56-1.06-4.9-0.04-6.4c3.64-5.31,2.98-10.13,0.13-15.42
		c-3.06-5.67-2.87-17.05,0.58-19.49c4.12-2.92,3.29-4.44-0.38-6.76c-5.68-3.59-5.89-5.72-1.1-10.32c3.07-2.96,2.67-5.42-0.22-7.97
		c-3.37-2.97-6.96-5.72-10.15-8.87c-2.56-2.53-5.73-5.18-6.78-8.38c-2.7-8.23-7.33-14.76-13.82-20.29
		c-7.83-6.68-15.31-13.8-23.3-20.28c-3.52-2.85-7.9-6.34-11.98-6.47c-10.49-0.32-18.67-5.2-27.1-10.29
		c-12.74-7.7-25.77-14.57-41.52-13.14c-2.74,0.25-5.61-1.62-8.48-2.13c-3.2-0.56-6.77-1.65-9.65-0.77
		c-4.82,1.47-8.89,0.62-12.82-1.73c-3.97-2.37-7.11-1.71-9.28,2.14c-1.75,3.1-3.7,2.91-6.06,1.13c-3.29-2.47-6.53-2.82-10.19-0.62
		c-0.97,0.58-2.89,0.44-3.95-0.14c-3.46-1.9-6.3-1.73-9.71,0.54c-1.69,1.12-5.43,1.29-6.94,0.15c-4.33-3.26-8.2-2.9-12.5-0.49
		c-4.22,2.37-8.31,1.87-12.92,0.37c-4.59-1.5-9.73-2.04-14.58-1.8c-3.85,0.19-7.41,4.44-11.69,0.77c-0.35-0.3-1.72,0.14-2.3,0.62
		c-4.17,3.44-6.97,1.58-10.04-1.9c-5.05-5.71-6.93-5.61-12.85-0.62c-0.49,0.41-1.12,0.99-1.66,0.97
		c-5.94-0.18-11.88-0.45-17.82-0.71c-4.18-0.18-8.46-1.05-12.51-0.42c-6.8,1.06-13.29,2.33-19.74-1.6c-1.83-1.12-4.64-0.83-7-0.86
		c-3.88-0.05-7.77,0.05-11.64,0.33c-2.28,0.16-4.64,0.49-6.76,1.27c-3.48,1.28-6.66,3.67-10.21,4.37
		c-8.1,1.59-16.37,2.31-24.53,3.65c-3.25,0.53-6.41,1.71-9.57,2.7c-11.35,3.58-22.78,6.93-33.99,10.92
		c-7.33,2.61-14.36,6.08-21.44,9.34c-4.52,2.08-8.89,4.47-13.13,6.62c-2.84,0.81-5.96,1.06-8.3,2.53c-2.88,1.81-5,4.78-7.65,7.01
		c-2.85,2.4-5.9,4.59-8.94,6.77c-2.93,2.09-6.39,3.61-8.85,6.13c-5.45,5.59-9.79,12.42-15.73,17.36
		c-9.24,7.68-11.33,19.34-17.67,28.57c-1.28,1.87-0.41,5.19-0.61,7.84c-0.36,4.63-0.51,9.31-1.33,13.87
		c-0.33,1.85-1.87,3.89-3.45,5.02c-4.58,3.28-5.21,5.01-2.05,9.77c3.95,5.95,7.01,12.13,6.12,19.53c-0.49,4.1-1.05,8.22-1.88,12.26
		c-1.29,6.26-0.74,7.67,4.79,10.27c4.48,2.1,8.65,11.51,7.65,16.2c-0.3,1.38,0.61,3.53,1.69,4.59c1.74,1.71,4.25,2.63,6.1,4.26
		c0.82,0.72,1.52,2.76,1.08,3.51c-2.69,4.57-0.15,5.07,3.61,6.06c2.91,0.77,5.61,2.9,8.03,4.88c3,2.44,5.31,5.8,8.47,7.93
		c3.24,2.18,5.21,3.98,2.89,7.97c-0.6,1.02-0.33,2.55-0.51,4.27c5.27-2.21,4.96-2.01,7.69,2.32c1.2,1.89,3.89,2.97,6.07,4.08
		c2.55,1.3,5.84,1.64,7.81,3.47c3.95,3.67,8.1,5.29,13.51,5.11c2.09-0.07,5.4,1.66,6.17,3.43c1.82,4.21,4.26,5.49,8.54,4.53
		c1.39-0.31,2.98,0.12,4.44,0.39c7.16,1.32,14.26,3.34,21.48,3.91c8.03,0.63,14.85,3.24,20.73,8.56c5.37,4.86,6.37,4.77,9.3-0.17
		c7.45,0,14.31,0.05,21.17-0.04c1.29-0.02,2.56-0.73,3.86-0.88c2.58-0.31,5.19-0.74,7.76-0.6c4.48,0.24,8.96,0.73,13.4,1.41
		c3.89,0.59,8.57,0.46,11.39,2.62c8.04,6.16,16.13-1.91,23.94,1.01c0.34,0.13,1.2-0.59,1.55-1.1c1.73-2.5,3.7-2.18,6.08-0.92
		c2.2,1.16,4.57,2.69,6.9,2.76c5.85,0.18,11.92-0.73,17.36-2.08c3.6-0.89,5.18-1.36,7.71,1.22c5.47,5.56,6.25,5.44,12.3,0.42
		c3.94-3.27,7.88-5.35,12.99-1.52c1.45,1.08,5.07,0.91,6.64-0.19c3.1-2.17,5.61-2.04,8.79-0.59c2.19,1,5.47,2.47,6.98,1.57
		c5.54-3.28,9.32-0.58,13.54,2.36c5.11,3.55,6.65,3.01,10.86-1.9c1.13-1.31,3.22-2.68,4.78-2.59c11.1,0.65,22.21,1.36,33.23,2.71
		c4.65,0.57,8.16-0.27,11.19-3.65C441.15,650.3,442.22,649.1,443.25,647.95z M69.65,712.51c0.14,0.4,0.27,0.81,0.41,1.21
		c6.01-2.04,12.22-3.66,17.98-6.25c5.88-2.63,11.11-6.7,17-9.29c10.75-4.74,11.1-4.63,4.67-14.43
		c-6.68-10.19-14.46-18.8-27.81-20.67c-6-0.84-12.19-2.83-16.66-8.11c-2.44-2.89-5.99-1.95-8.35,0.71
		c-3.06,3.46-6.35,6.97-8.39,11.04c-2.85,5.68-5.21,11.75-6.66,17.92c-0.89,3.79,3.24,7.93,0.29,12.21
		c-0.29,0.42,0.45,2.01,1.12,2.58C50.96,705.98,58.35,713.22,69.65,712.51z M600.45,677.74c0.58-9.88-0.56-16.1-7.72-18.76
		c-4.94-1.83-10.18-2.9-15.34-4.09c-5.96-1.37-11.19,0.36-15.76,4.29c-3.15,2.72-6.08,5.76-9.51,8.06c-1.8,1.21-4.67,1.96-6.69,1.46
		c-4.76-1.17-8.46,0.71-8.02,5.76c0.39,4.5,1.86,9.06,3.66,13.25c3.78,8.77,9.09,15.52,20.42,13.19c1.49-0.31,4.02,1.72,5.2,3.31
		c2.07,2.79,3.92,5.73,7.83,5.13c8.36-1.27,16.7-2.71,24.98-4.38c3.62-0.73,5.02-3.57,3.43-6.88
		C599.27,690.47,599.9,682.57,600.45,677.74z M34.21,530.59c-2.54-1.65-4.02-3.3-4.91-3.03c-1.7,0.52-3.06,2.13-4.56,3.29
		c1.02,1.08,2.19,3.15,3.05,3.03C29.59,533.63,31.23,532.22,34.21,530.59z"/>
	<path class="st0" d="M1419.87,16.87c6.04,6.8,5.91,6.43,15.3,3.25c6.23-2.11,12.49-0.35,18.29,2.64c0.85,0.44,1.66,0.98,3.13,1.87
		c0.82-2.27,1.51-4.15,2.41-6.64c10.96,5.35,22.61,4.1,34.23,3.8c10.81-0.28,21.64-0.02,32.46-0.07c1.47-0.01,3.41,0.08,4.33-0.76
		c4.46-4.09,9.07-2.32,13.97-1.23c3.06,0.68,6.4,0.13,10.05,0.13c0.93,4.79,3.74,4.47,8.52,3.26c6.01-1.53,12.54-1.18,18.85-1.27
		c11.98-0.18,23.97-0.09,35.96-0.12c0.83,0,1.77-0.25,2.48,0.04c5.2,2.11,9.89,1.28,14.54-1.75c1.06-0.69,3.14,0.06,4.72,0.31
		c4.62,0.73,9.33,2.59,13.83,2.16c32.29-3.13,64.46-7.67,97.08-5.76c6.92,0.4,13.95-1.06,21.14-1.68c0,0.45,0,1.87,0,4.7
		c4.61-1.65,8.64-3.14,12.71-4.52c1.3-0.44,2.82-1.09,4.03-0.8c3.84,0.92,7.57,2.26,11.37,3.39c7.46,2.21,14.89,4.53,22.42,6.51
		c3.18,0.84,6.55,1.11,9.86,1.32c3.84,0.24,7.41,0.39,5.35,5.89c-0.12,0.33,0.35,0.88,0.69,1.66c6.6-2.9,11.23,1.75,15.99,4.72
		c14.33,8.95,25.07,21.77,35.72,34.59c0.91,1.1,1.64,3.42,1.09,4.46c-2.21,4.19-0.34,7.52,1.83,10.63c7.2,10.33,5.6,21.1,2.07,32.06
		c-0.5,1.57-1.37,3.36-1.03,4.8c2.63,10.88-2.24,19.71-7.37,28.51c-0.25,0.43-0.7,0.91-0.66,1.32c1.05,9.91-6.39,16.85-9.06,25.5
		c-2.66,8.62-7.44,16.58-11.29,24.83c-0.21,0.45-0.35,0.96-0.64,1.35c-9.44,12.56-19.04,25-28.25,37.72
		c-3.26,4.5-5.41,9.8-8.39,14.53c-1.51,2.39-3.79,4.27-5.65,6.45c-2.08,2.44-4.81,4.65-5.99,7.49c-3.22,7.74-6.97,14.73-15.33,17.98
		c-0.75,0.29-2.02,0.98-1.97,1.33c0.88,6.43-6.25,8.56-7.31,14.14c-1.79,9.36-7.6,16.69-13.09,24.28
		c-8.25,11.39-15.65,23.39-23.47,35.09c-2.77,4.15-5.73,8.16-8.56,12.27c-6.25,9.08-14.22,17.03-17.08,28.32
		c-0.72,2.83-4.31,5.23-7.03,7.19c-2.86,2.06-3.92,4.17-4.81,7.78c-1.25,5.05-5.26,9.43-8.16,14.06c-1.04,1.65-3.03,3.08-3.27,4.79
		c-0.39,2.87-1.22,4.33-4.26,4.11c-3.77-0.27-4.54,1.89-4.96,5.25c-0.33,2.68-1.91,5.28-3.26,7.74
		c-3.36,6.09-6.69,12.21-10.41,18.08c-13.18,20.76-26.41,41.48-39.85,62.06c-4.35,6.67-9.75,12.66-14.04,19.36
		c-3,4.69-5.4,9.89-7.25,15.15c-2.84,8.1-6.89,14.83-15.12,18.38c-0.86,0.37-1.47,1.57-1.95,2.52c-1.98,3.88-3.72,7.9-5.83,11.71
		c-3.1,5.6-6.31,11.16-9.76,16.55c-1.39,2.17-3.32,4.21-5.45,5.66c-4.69,3.2-6.69,7.8-8.76,12.86c-2.49,6.07-6.35,11.57-9.52,17.37
		c-0.86,1.57-1.13,3.47-2.06,4.98c-1.13,1.83-2.57,3.49-4.06,5.05c-1.12,1.17-3.73,2.24-3.61,3.07c1.19,8.66-9.56,9.88-10.5,17.14
		c-0.11,0.85-1.56,1.96-2.56,2.18c-5.98,1.31-6.37,6.45-7.94,10.91c-2.07,5.88-4.36,11.69-6.68,17.48c-0.33,0.83-1.3,1.68-2.16,1.98
		c-4.59,1.63-5.64,5.87-7.88,9.52c-6.32,10.28-13.01,20.37-20.19,30.06c-3.57,4.82-6.82,9.13-6.39,15.59
		c0.37,5.62-6.08,13.21-11.6,15.05c-1.2,0.4-3.05,1.93-2.94,2.69c1.21,7.95-5.28,12.55-7.82,18.82
		c-4.26,10.55-8.48,21.15-11.88,31.99c-1.22,3.9-0.46,8.64,0.24,12.85c0.92,5.55-0.13,10.38-2.45,15.43
		c-1.18,2.55-1.12,6.05-0.6,8.94c1.18,6.46,3.24,12.75,4.52,19.19c2.79,14.04,7.24,27.12,18.12,37.3
		c5.44,5.09,10.48,10.66,15.23,16.4c6.36,7.67,13.02,14.6,23.24,17.02c3.17,0.75,6.68,1.91,5.37,6.73
		c-0.14,0.52,1.22,1.98,2.05,2.13c5.31,0.96,10.64,1.78,16,2.44c3.13,0.39,6.4,0.01,9.43,0.72c2.31,0.54,4.28,2.42,6.53,3.4
		c1.51,0.65,3.25,1.06,4.88,1.04c2.71-0.03,6.21-1.73,7.98-0.58c11.03,7.17,22.85,4.77,34.47,3.35c10.99-1.34,21.51-0.44,31.88,3.45
		c1.54,0.58,3.96,0,5.52-0.87c5.82-3.23,7.91-2.97,11.64,2.16c1.84,2.54,5.2,2.5,6.28-0.53c1.19-3.35,3.41-3.82,6.2-3.58
		c8.41,0.72,16.81,1.55,25.21,2.32c0.81,0.07,1.82,0.38,2.4,0.03c8.14-5.05,17.08-0.67,25.52-2.15c0.99-0.17,2.76,1.1,3.35,2.16
		c3.53,6.36,3.8,6.36,9.21,1.26c1.17-1.1,3.44-1.58,5.14-1.45c3.59,0.28,7.13,1.13,10.69,1.78c3.9,0.71,7.81,1.39,11.69,2.19
		c4.15,0.86,6.61,3.04,5.56,6.63c4.72,2.47,8.88,4.84,13.22,6.8c1.48,0.67,3.42,0.31,6.26,0.5c-1.1,2.13-1.94,3.91-2.92,5.61
		c-1.74,3.01-2.04,5.69,1.54,7.55c4.5,2.34,3.85,5.67,1.82,9.23c-4.62,8.09-12.99,11.7-20.18,16.69c-4.21,2.92-8.35,5.42-13.45,1.09
		c-1.85-1.57-4.72-1.06-5.49,2.04c-0.91,3.68-3.03,4.24-5.86,2.43c-3.2-2.04-6.03-1.36-9.44-0.34c-4.02,1.2-8.41,1.32-12.66,1.57
		c-7.62,0.45-15.3,0.21-22.86,1.09c-5.4,0.62-10.05,0.35-14.68-2.87c-1.54-1.07-4.43-0.27-6.7-0.21c-2.28,0.05-4.55,0.38-6.82,0.32
		c-3.51-0.09-7.31-1.38-10.47-0.44c-10.25,3.06-20.35,2.85-30.48,0.1c-4.17-1.13-7.82-0.78-12.07,0.41
		c-5.93,1.66-12.37,1.84-18.6,1.97c-6.94,0.15-13.89-0.45-20.84-0.76c-4.43-0.2-8.85-0.53-13.27-0.66c-1.45-0.04-3.22-0.13-4.32,0.6
		c-3.42,2.26-6.84,1.93-9.78-0.17c-6.3-4.5-11.68-1.84-16.99,1.6c-10.27,6.66-12.91,6.64-22.56-0.63c-3.36-2.53-5.99-2.1-7.79,1.27
		c-2,3.74-5.53,5.17-9.35,2.93c-3.99-2.34-7.3-2.22-11.13,0.24c-1.49,0.96-3.84,0.56-5.8,0.84c-3.89,0.55-7.76,1.27-11.67,1.65
		c-1.75,0.17-3.77-0.93-5.3-0.4c-5.24,1.81-10.32,3.44-15.45-0.14c-9.46,5.69-19.59,1.19-29.37,2c-3.94,0.33-7.83,1.31-11.77,1.51
		c-4.07,0.2-8.17-0.25-12.27-0.32c-2.54-0.05-5.65-0.82-7.5,0.33c-3.01,1.88-5.41,2-8.75,1.24c-6.31-1.42-12.86-1.73-19.2-3.02
		c-5.31-1.08-10.46-2.92-15.68-4.41c-1.56-0.45-3.57-1.71-4.61-1.16c-4.47,2.37-6.32-1.09-9.26-3.08
		c-6.01-4.07-12.54-7.39-18.73-11.22c-2.8-1.73-5.82-3.53-7.84-6.03c-6.57-8.14-13.13-16.36-18.86-25.1
		c-2.6-3.96-3.32-9.17-4.72-13.86c-0.71-2.37-0.87-4.89-1.57-7.26c-1.35-4.54-2.66-8.97,0.54-13.34c0.5-0.68,0.78-2.22,0.37-2.74
		c-3.83-4.94-2.57-10.72-1.88-15.89c0.79-5.93,3.44-11.61,5.19-17.43c1.21-4.02,2.36-8.06,3.34-12.14c0.38-1.55,0.21-3.24,0.3-5.15
		c1.02,0.13,1.69,0.08,2.25,0.31c4.63,1.92,5.95,1.28,6.18-3.81c0.28-6,0.02-12.09,3.71-17.27c2.88-4.04,6.38-7.68,8.97-11.88
		c2.75-4.45,4.54-9.5,7.19-14.02c1.55-2.64,3.89-4.85,6.03-7.11c1.56-1.66,4.11-2.77,4.94-4.68c6.04-13.79,16.47-24.46,25.03-36.47
		c7.17-10.07,13.01-21.1,19.29-31.79c1.82-3.09,3.34-5.88,7.66-6.04c3.58-0.14,4.3-2.72,3.88-6.13c-0.27-2.2-0.1-4.99,1.05-6.76
		c12-18.52,24.22-36.89,36.42-55.27c1.65-2.49,3.07-5.39,5.34-7.15c8.41-6.54,11.18-16.21,14.87-25.4
		c3.91-9.76,9.23-18.44,16.1-26.61c7.62-9.06,13.27-19.76,19.95-29.63c8.57-12.66,17.52-25.06,25.91-37.84
		c6.26-9.54,11.98-19.45,17.75-29.3c1.81-3.1,2.62-6.83,4.62-9.77c1.51-2.22,5.74-3.39,6.09-5.46c1.4-8.49,9.26-12.24,12.85-19.16
		c5.39-10.4,12.29-20.01,18.43-30.03c11.69-19.1,23.19-38.33,35.05-57.33c1.8-2.88,4.75-5.44,7.75-7.09c4.63-2.54,8.05-5.13,7-11.15
		c-0.32-1.83,0.02-4.16,0.94-5.75c5.3-9.15,10.63-18.29,16.39-27.15c5.61-8.62,11.74-16.91,17.67-25.33
		c0.38-0.54,0.82-1.21,1.37-1.41c7.32-2.57,7.68-9.62,9.44-15.41c2.02-6.6,4.93-12.08,10.7-16.18c2.04-1.45,3.35-4.35,4.27-6.86
		c1.27-3.47,1.82-7.2,6.19-8.28c0.45-0.11,1.05-0.44,1.21-0.82c3.63-8.6,12.16-14.51,12.89-24.9c0.27-3.76,3.12-7.63,5.55-10.88
		c7.15-9.56,10.27-20.11,12.47-31.93c3.13-16.85,1.76-33.52,2.37-50.27c0.15-4.22-1.16-6.75-5.33-8.39
		c-1.72-0.68-3.61-3.63-3.61-5.55c0.02-9.71-4.2-17.28-10.7-23.97c-9.86-10.15-19.67-20.36-29.53-30.52
		c-4.43-4.56-9.44-7.39-16.22-7.56c-3.53-0.09-7.04-2.54-10.5-4.05c-6.43-2.8-12.77-5.55-20.14-4.2
		c-5.28,0.97-10.22-0.38-14.64-3.57c-4.81-3.46-9.93-3.25-15.18-1.1c-6.7,2.75-13.3,2.99-19.49-1.27c-2.91-2-5.33-1.29-8.66-0.62
		c-8.21,1.65-16.72,1.91-25.12,2.51c-3.63,0.26-7.34-0.41-10.94,0.01c-8.81,1.01-17.11,0.23-25.3-3.71
		c-2.36-1.14-6.15,0.48-9.23,1.1c-1.7,0.34-3.51,2.1-4.89,1.74c-8.91-2.32-17.76-1.24-26.64-0.15c-0.33,0.04-0.75,0.13-0.99-0.02
		c-6.01-3.77-12.21-0.27-18.3-0.52c-1.83-0.08-4.05,0.42-5.41-0.43c-6.3-3.96-12.05-1.72-17.94,0.86
		c-5.07,2.23-9.66,2.76-13.76-2.47c-2.33-2.97-6.02-3.29-10.07-2.5c-5.33,1.05-10.87,1.18-16.32,1.29c-1.11,0.02-2.73-1.57-3.31-2.8
		c-2.66-5.62-4.57-6.42-10.04-4.07c-1.45,0.62-3.25,1.08-4.76,0.82c-4.35-0.74-8.68-1.75-12.92-2.97c-1.05-0.3-2.06-1.64-2.56-2.75
		c-1.79-3.98-4.77-5.62-9.06-5.8c-5.97-0.24-9.41-4.01-10.14-10.02c-3.43-28.57,14.19-47.86,38.1-54.93
		c4.54-1.34,9.42-1.8,14.18-2.12c5.44-0.36,10.91,0.5,15.85-3.08c1.48-1.07,4.28-1.01,6.26-0.56c10.16,2.33,19.82-1.08,29.65-2.33
		C1416.19,19.33,1418.02,17.79,1419.87,16.87z M1839.08,52.15c-3.96,0-7.35,0.51-10.53-0.1c-7.48-1.44-14.03-4.67-16.48-12.63
		c-2.17-7.04-3.66-7.45-9.77-3.31c-3.44,2.33-7.7,4.94-11.55,4.87c-11.6-0.2-22.97-1.27-34.49,2.38c-7.82,2.48-16.72,1.5-24.59,3.87
		c-13.15,3.96-25.91,9.26-38.75,14.21c-6.57,2.53-10.85,7.99-13.71,13.93c-1.27,2.64,0.65,6.81,1.09,10.29
		c0.19,1.49,0.32,2.98,0.47,4.47c0.68,6.71,2.42,13.05,6.39,18.64c4.52,6.36,9.37,12.53,13.39,19.19
		c6.42,10.63,12.31,21.59,18.29,32.47c0.54,0.99,0.74,3,0.14,3.63c-1.53,1.62-3.55,2.79-5.45,4.02c-1.3,0.84-2.79,1.4-4.03,2.31
		c-0.22,0.17,0.19,1.97,0.61,2.1c1.5,0.48,3.14,0.86,4.68,0.71c1.02-0.1,1.87-1.4,2.93-1.74c1.32-0.41,2.78-0.38,4.17-0.54
		c0.09,1.39,0.74,3.1,0.17,4.12c-2.55,4.59,0.03,7.09,3.59,8.72c5.95,2.73,7.97,7.38,8.24,13.56c0.14,3.06,1.64,6.03,2.04,9.11
		c0.44,3.44,1.18,7.21,0.22,10.36c-1,3.3-0.85,4.58,2.31,6.17c1.95,0.98,3.8,3.33,4.47,5.45c1.5,4.72,1.76,9.86,3.42,14.5
		c1.6,4.46,3.9,8.86,6.82,12.55c0.94,1.19,4.84-0.12,7.37,0.03c1.45,0.08,2.84,1.08,4.29,1.18c3.25,0.2,6.71,0.77,9.72-0.09
		c2.52-0.72,4.37-3.53,6.79-4.94c17.68-10.27,31.68-25.21,47.74-37.54c0.91-0.7,1.95-1.49,2.42-2.48c2.55-5.35,6.81-8.32,13.04-9.17
		c-2.49-7.07,0.88-12.36,3.83-18.06c5.77-11.15,11.07-22.56,16.2-34.03c2.08-4.64,3.33-9.66,4.77-14.56
		c2.31-7.84,6.36-15.66,0.77-23.81c-0.38-0.55-0.37-1.87,0.03-2.38c3.52-4.43,0.28-8.13-1.13-12.04c-0.67-1.85-1.63-3.71-1.78-5.62
		c-0.63-8.36-4.86-14.74-10.96-19.95c-3.53-3.01-8.19-4.91-11.13-8.35C1842.21,60.18,1840.75,55.44,1839.08,52.15z M1293.31,960.09
		c0.09,0.69,0.28,2.35,0.54,3.99c1.81,11.32,3.98,22.59,5.32,33.96c0.63,5.28,3.02,8.89,6.67,12.28c3.77,3.5,7.48,7.11,10.81,11.02
		c6.4,7.5,14.32,11.41,24.15,12.38c3.73,0.37,7.5,2.24,10.85,4.13c5.85,3.3,11.32,7.42,18.29,2.63c0.77-0.53,1.9-0.72,2.87-0.76
		c5.58-0.21,11.22,0.08,16.74-0.58c4.84-0.58,9.52-2.39,14.34-3.25c2.33-0.42,5.1-0.56,7.18,0.33c4.62,1.97,7.53,0.94,9.57-3.56
		c0.92-2.04,2.78-4.1,4.75-5.11c3.2-1.64,7.11-1.93,10.25-3.65c10.81-5.93,16.02-15.38,16.5-27.63c0.1-2.6,0.25-5.5,1.45-7.68
		c2.04-3.71,1.45-6.66-0.23-10.29c-3.66-7.93-6.82-16.1-10.02-24.24c-2.72-6.91-5.16-13.92-7.79-20.86
		c-3.23-8.5-6.51-16.99-9.84-25.45c-1.63-4.14-3.1-8.39-5.25-12.26c-1.67-3.01-3.61-5.48-1.42-9.11c0.53-0.89,0.01-3.15-0.83-4
		c-6.03-6.14-7.26-14.26-9.44-22c-1.28-4.56-2.6-9.48-7.88-10.52c-3.57-0.7-6.48-1.14-8.51-4.68c-0.63-1.1-3.72-1.57-5.37-1.14
		c-3.82,1-7.77,2.22-11.1,4.27c-6.91,4.23-13.36,9.2-20.18,13.6c-6.9,4.45-13.74,8.84-17.11,16.86c-0.36,0.87-1.14,1.81-1.97,2.19
		c-5.15,2.38-5.86,9.79-12.31,10.78c-0.63,0.1-1.52,2-1.41,2.97c0.6,5.18-2.67,7.7-6.24,10.42c-2.18,1.66-4.25,3.97-5.36,6.43
		c-3.18,7.07-5.05,14.86-8.98,21.44c-3.15,5.28,0.26,13.72-7.99,16.35c-0.36,0.11-0.54,1.18-0.59,1.81
		C1293.6,953.82,1293.49,956.48,1293.31,960.09z M1495.59,706.75c3.2-0.89,5.74-1.34,8.05-2.32c1.52-0.65,3.26-1.79,3.96-3.18
		c3.05-6.13,0.59-11.17-7.18-14.4c-0.33,3.7-0.93,7.22-0.88,10.73C1499.6,701.27,1492.65,702.1,1495.59,706.75z M1509.48,637.13
		c-2.92-2.19-5.38-4.83-6.09-4.42c-3.04,1.76-5.57,4.41-8.29,6.73c2.03,1.61,4.6,4.91,5.97,4.48
		C1503.86,643.02,1506.01,640.11,1509.48,637.13z M1441.14,1039.44c0.05,4.84,2.41,6.83,4.54,5.11c2.16-1.75,4.21-3.9,5.55-6.29
		c0.62-1.11-0.15-3.51-1.05-4.8c-0.63-0.9-3.35-1.63-3.74-1.19C1444.21,1034.79,1442.39,1037.68,1441.14,1039.44z M1713.11,380.22
		c2.83-1.56,5.6-2.74,7.91-4.52c0.9-0.69,1.44-3.14,0.9-4.06c-0.58-1-2.87-1.89-3.96-1.52c-2.46,0.86-4.8,2.33-6.88,3.94
		c-0.96,0.75-1.89,2.64-1.58,3.63C1709.83,378.72,1711.65,379.27,1713.11,380.22z M1456.27,698.79c-0.49,0.53-2.28,2.14-2.12,2.37
		c2.16,3.08,4.57,6,7.09,8.8c0.09,0.1,2.03-1.47,3.08-2.28c0.09-0.07,0.04-0.32,0.06-0.48
		C1464.7,704.17,1460.13,698.86,1456.27,698.79z M1472.9,1028.71c0.49-4.06-3.49-8.75-6.85-8.95c-1.08-0.06-2.26,1.49-3.4,2.31
		c2.39,2.98,4.74,6,7.32,8.8C1470.08,1030.99,1472.35,1029.12,1472.9,1028.71z M1721.7,364.4c2.09,1.32,3.87,3,4.39,2.68
		c2.33-1.46,4.3-3.49,6.4-5.32c-1.43-1.59-2.86-3.18-4.3-4.78C1726.24,359.21,1724.29,361.44,1721.7,364.4z M1477.62,731.37
		c0.95-0.5,2.03-0.77,2.61-1.45c1.03-1.22,1.75-2.69,2.6-4.06c-1.91,0.09-4.21-0.47-5.66,0.4c-4.7,2.8-3.48,6.36-0.32,9.59
		c0.92,0.94,2.39,1.34,3.6,1.99c-0.32-1.36-0.58-2.75-1.01-4.07C1479.26,733.2,1478.7,732.76,1477.62,731.37z M1507.16,674.07
		c-1.89,2.29-3.78,4.1-3.57,4.39c1.79,2.48,3.97,4.69,6.03,6.98c1.12-1.18,3.4-2.95,3.15-3.43
		C1511.47,679.49,1509.53,677.28,1507.16,674.07z M1677.2,438.7c-1.92-2.6-3.06-4.14-4.2-5.67c-1.64,2.02-3.8,3.83-4.67,6.14
		c-0.38,0.99,1.92,3,3,4.54C1673.1,442.2,1674.86,440.7,1677.2,438.7z M1535.72,656.74c-3.39-2.53-5.54-4.28-7.92-5.63
		c-0.21-0.12-3.05,3.3-2.78,3.66c1.53,2.06,3.49,3.93,5.66,5.27C1531.21,660.38,1533.11,658.5,1535.72,656.74z M1486.9,677.99
		c-0.43-5.05-3.19-5.92-6.14-5.7c-1.37,0.11-2.63,1.71-3.94,2.64c2.11,1.84,4.05,4,6.45,5.32
		C1483.96,680.63,1485.98,678.59,1486.9,677.99z M1431.01,786.21c2.09,2.16,3.87,4.38,4.13,4.21c2.2-1.4,4.12-3.24,6.13-4.94
		c-1.17-1.33-2.76-3.96-3.43-3.74C1435.72,782.42,1433.93,784.17,1431.01,786.21z M1677.98,373.72c-1.39-2.21-2.36-5.59-4.17-6.12
		c-1.88-0.55-4.78,1.34-6.8,2.79c-0.88,0.63-0.67,2.8-0.77,3.33C1670.36,373.72,1673.58,373.72,1677.98,373.72z M1759.22,295.79
		c2.11,1.95,3.38,3.13,4.65,4.31c1.23-1.49,3.23-2.89,3.43-4.51c0.14-1.17-1.98-3.46-3.36-3.69
		C1762.86,291.72,1761.38,293.92,1759.22,295.79z M1723.85,302.62c-2.75-1.93-4.2-3.75-5.55-3.67c-1.42,0.08-2.74,1.97-4.11,3.07
		c1.31,1.38,2.42,3.42,4.01,3.91C1719.27,306.26,1721.01,304.38,1723.85,302.62z M1639.17,501.18c0.02-0.63,0.03-1.25,0.05-1.88
		c-1.56-1.02-3.13-2.85-4.67-2.82c-1.27,0.02-2.5,2.24-3.74,3.49c1.29,1.14,2.46,2.99,3.9,3.22
		C1636.04,503.41,1637.67,501.92,1639.17,501.18z M1694.45,331.46c-2.48-1.88-3.84-3.56-5.44-3.85c-0.84-0.15-3.25,2.6-2.99,3.21
		c0.71,1.7,2.28,3.27,3.91,4.21C1690.4,335.31,1692.19,333.29,1694.45,331.46z M1659.18,458.94c-2.2-1.96-3.5-3.6-5.19-4.31
		c-0.52-0.22-3.25,2.58-3,3.18c0.7,1.7,2.26,3.25,3.86,4.25C1655.29,462.34,1657.06,460.51,1659.18,458.94z M1529.7,582.33
		c-1.77,2.56-2.86,4.13-3.94,5.69c1.34,0.88,2.84,2.62,3.98,2.41c1.39-0.25,3.17-2.01,3.45-3.39
		C1533.4,586.04,1531.47,584.59,1529.7,582.33z M1543.84,578.27c-2.73-1.77-4.31-3.6-5.59-3.41c-1.35,0.2-2.41,2.32-3.6,3.6
		c1.34,1.09,2.57,2.81,4.05,3.05C1539.81,581.7,1541.24,580,1543.84,578.27z M1679.03,131.19c1.07-2.53,2.09-4.22,2.41-6.04
		c0.12-0.69-1.34-1.67-2.09-2.51c-1.61,1.64-3.22,3.28-4.82,4.93C1675.71,128.51,1676.89,129.46,1679.03,131.19z M1474.1,681.03
		c-1.65-1.74-2.77-2.92-3.88-4.1c-0.9,1.55-2.44,3.08-2.5,4.67c-0.05,1.34,1.6,2.76,2.5,4.14
		C1471.35,684.37,1472.49,682.99,1474.1,681.03z M1291.39,931.32c-0.54,0.01-1.08,0.01-1.61,0.02c-0.72,1.45-2.1,2.95-1.99,4.33
		c0.12,1.46,1.65,2.81,2.57,4.2c1.06-1.22,2.89-2.39,2.98-3.69C1293.46,934.62,1292.11,932.94,1291.39,931.32z M1610.16,467
		c-1.54-1.79-2.58-3.01-3.63-4.22c-0.99,1.46-2.65,2.86-2.77,4.39c-0.1,1.23,1.66,2.6,2.59,3.91
		C1607.45,469.9,1608.55,468.73,1610.16,467z M1781.04,283.04c-1.4-1.78-2.38-3.03-3.37-4.29c-1.05,1.4-2.89,2.79-2.93,4.21
		c-0.03,1.4,1.78,2.84,2.78,4.27C1778.56,286,1779.58,284.77,1781.04,283.04z M1654.01,392.81c-1.62-1.92-2.66-3.15-3.7-4.37
		c-0.98,1.27-2.66,2.48-2.76,3.82c-0.1,1.34,1.38,2.79,2.16,4.19C1650.92,395.42,1652.14,394.39,1654.01,392.81z M1654.97,383.85
		c1.77,1.42,3,2.4,4.22,3.37c0.75-1.25,2.24-2.63,2.05-3.73c-0.23-1.38-1.83-2.52-2.84-3.77
		C1657.46,380.85,1656.52,381.98,1654.97,383.85z M1587.78,567.06c-5.43,0.2-6.07,1.19-4.2,5.7
		C1585.18,570.59,1586.48,568.83,1587.78,567.06z M1430.75,904.73c1.61-1.82,3.21-3.65,4.82-5.47
		C1429.71,899.36,1429.37,899.69,1430.75,904.73z M1677.04,115.7c-0.55-0.53-1.11-1.06-1.66-1.59c-1.63,1.57-3.26,3.15-4.9,4.72
		c0.62,0.47,1.66,1.45,1.79,1.34C1673.94,118.77,1675.47,117.22,1677.04,115.7z"/>
	<path class="st0" d="M2171.18,580.43c0.34-1.65,0.57-4.44,1.53-6.95c1.4-3.63,0.78-5.81-2.86-7.69c-1.83-0.95-3.35-3.21-4.2-5.21
		c-2.09-4.92-2.65-9.63-0.39-15.2c1.18-2.91-1.42-7.84-3.25-11.37c-3.33-6.43-2.29-10.62,4.21-13.41c5.52-2.37,7.25-7.18,3.94-12.13
		c-1.66-2.5-2.28-3.82,0.6-6.08c1.45-1.14,1.24-4.41,1.78-6.71c-0.55-0.2-1.09-0.39-1.64-0.59c1.48-1.27,2.96-2.54,4.43-3.82
		c3.81-3.31,4.54-5.33,4.85-10.46c0.07-1.25,1.48-2.72,2.66-3.56c2.75-1.96,5.77-3.46,4.52-7.83c-0.26-0.89,0.74-2.5,1.61-3.29
		c2.08-1.91,4.22-3.92,6.7-5.17c3.54-1.79,4.08-4.36,4.43-8.04c0.38-4.09,2.11-8.18,3.99-11.91c0.48-0.95,4.03-1.22,5.64-0.54
		c2.64,1.12,4.83,3.13,7.64,0.54c2.9-2.68,2.38-5.51,0.59-8.54c-0.48-0.8-0.55-1.85-1.26-4.43c3.03,1.29,4.91,2.2,6.87,2.9
		c1.48,0.53,3.07,0.78,4.6,1.16c-0.45-1.87-0.7-3.83-1.42-5.59c-0.38-0.94-1.59-1.54-2.26-2.14c3.06-5.01,5.95-9.75,9.05-14.84
		c0.15,0.12,0.91,0.82,1.76,1.37c1.27,0.83,2.6,1.55,3.9,2.32c0.59-1.46,1.71-2.95,1.66-4.39c-0.12-3.61,0.88-5.96,4.53-7.31
		c1.52-0.56,3.02-2.31,3.62-3.87c0.49-1.27,0.08-3.43-0.79-4.49c-0.59-0.73-2.76-0.58-4.05-0.22c-1.63,0.45-3.09,1.52-4.63,2.32
		c-0.37-0.3-0.73-0.6-1.1-0.9c0.46-1.18,0.83-2.41,1.41-3.54c2.99-5.85,1.51-9.78-4.59-12.05c-7.26-2.7-7.26-2.7-3.84-9.96
		c1.81-3.84,0.38-6.58-4.6-8.79c-4.48-1.99-4.75-3.1-1.3-6.57c2.49-2.5,5.74-4.89,4.14-8.85c-1.53-3.82-4.97-5.52-9.2-5.66
		c-3.43-0.11-5.61-1.94-4.36-5.52c1.67-4.78,0.11-6.26-4.57-5.54c-0.6,0.09-1.26-0.17-1.82-0.25c-2.04-7.9-1.99-7.78-9.47-4.5
		c-1.16,0.51-3.77-0.07-4.42-1.02c-3.12-4.59-5.26-9.53-3.85-15.43c1.22-5.09-0.21-7.3-5.35-7.85c-4.04-0.43-5.93-2.17-7.47-5.96
		c-1.76-4.34-4.51-8.46-7.58-12.03c-5.16-6-6.67-12.92-6.4-20.39c0.19-5.1-1.31-9.36-4.17-13.5c-9.25-13.37-7.91-26.66-0.75-40.74
		c3.98-7.82,5.51-16.89,8.09-25.41c0.84-2.79,1.49-5.63,2.22-8.45c0.4,0.4,0.8,0.79,1.2,1.19c2.35-0.89,5.97-1.17,6.75-2.81
		c1.07-2.24,0.78-5.88-0.33-8.26c-2.87-6.15-2.36-6.48,2.86-10.42c3.41-2.57,5.25-7.31,7.56-11.21c1.99-3.36,3.57-6.97,5.51-10.36
		c0.4-0.69,1.89-1.53,2.37-1.29c4.38,2.24,6.68-1.69,9.72-3.21c0.72-0.36,1.19-1.81,1.19-2.76c0-0.39-1.59-1.16-2.4-1.09
		c-2.1,0.16-4.18,0.69-6.34,1.09c-2.06-4.66-0.32-8.21,1.74-11.99c3.37-6.2,6.26-12.65,9.38-18.99c0.68-1.38,1.46-2.7,3.02-3.72
		c0,2.07-0.49,4.31,0.13,6.17c0.66,1.99,2.02,4.44,3.73,5.16c1.39,0.59,4.33-0.54,5.53-1.86c2.65-2.94,4.83-6.36,6.83-9.81
		c2.11-3.64,1.4-7.03-2.77-8.53c-4.8-1.72-9.75-3.2-14.76-4.08c-3.56-0.62-5.25-1.84-5.54-5.6c-0.6-7.94-5.49-13.38-13.33-15.41
		c-5.03-1.3-9.82-2.85-13.43-7.07c-2.2-2.57-4.99-3.01-8.57-1.7c-2.19,0.8-5.55,0.13-7.69-1.09c-4.45-2.55-8.45-5.9-12.62-8.94
		c-2.88-2.1-5.6-2.23-8.75-0.2c-1.82,1.17-4.31,2.13-6.37,1.93c-5.22-0.5-10.57-1.16-15.48-2.88c-2.46-0.86-4.09-4.13-6.02-6.39
		c-0.83-0.98-1.46-2.13-2.8-4.13c-2.01,2.66-3.68,4.79-5.26,6.98c-2.08,2.89-4.34,3.89-8.12,2.62c-2.7-0.91-6-0.26-9.01,0.01
		c-4.43,0.39-8.85,1.62-13.25,1.52c-24.18-0.55-47.08,4.38-67.7,17.1c-10.71,6.61-20.59,14.67-30.27,22.76
		c-3.2,2.67-4.46,7.59-6.89,11.29c-1.75,2.67-3.46,6.06-6.07,7.33c-9.1,4.45-10.63,12.54-12.54,21.22
		c-1.57,7.13-4.44,14.15-7.87,20.62c-2.41,4.54-5.11,8.28-0.78,13.36c-5,1.81-5.76,5.02-4.84,9.55c0.39,1.92-1.02,4.49-2.22,6.39
		c-2.62,4.16-3.18,7.61,0.68,11.62c1.55,1.61,1.56,4.97,1.75,7.57c0.18,2.44-0.3,4.93-0.53,7.39c-0.15,1.62,0.14,3.57-0.65,4.8
		c-3.16,4.93-2.49,10.1-1.92,15.46c0.36,3.41-0.37,6.93-0.22,10.38c0.27,6.06,0.18,12.25,1.47,18.12c1.65,7.47,0.8,14.26-3.01,20.63
		c-3.34,5.58-2.81,11.45-0.73,16.77c2.96,7.6,1.52,14.45,0.46,22.18c-1.89,13.85-2,28.21-0.59,42.12c0.55,5.44,1.41,9.95-0.18,15.5
		c-1.92,6.71-2.43,14.01,1.09,20.92c1.01,1.97,1.2,5.11,0.38,7.14c-4.23,10.39-3.68,20.36-0.26,31.01
		c1.77,5.52,1.34,12.44-0.17,18.18c-3.43,13.06-3.34,25.62,0.23,38.64c1.57,5.72,1.92,12.68,0.09,18.16
		c-1.65,4.96-2.42,8.39,0.55,12.8c0.83,1.23-0.32,3.94-0.83,5.89c-0.4,1.54-2.17,3.49-1.7,4.36c2.5,4.59,1.97,9.52,1.65,14.21
		c-0.49,7.32,3.53,14.89-1.5,22.06c-1.27,1.81-0.99,4.79-1.21,7.25c-0.41,4.54-1.03,9.11-0.85,13.64c0.12,2.95,1.59,5.83,2.28,8.78
		c0.55,2.37,1.27,4.82,1.12,7.19c-0.22,3.43-1.6,6.8-1.69,10.21c-0.26,10.27-0.26,20.56-0.06,30.84c0.05,2.69,1.41,5.34,1.81,8.05
		c0.27,1.79-0.1,3.68-0.17,5.52c-0.14,3.65-1.27,7.63-0.19,10.87c2.04,6.18,2.03,11.78,0.04,17.95c-1.14,3.54-1.39,8.03-0.24,11.5
		c1.83,5.54,2.44,10.47-0.28,15.82c-0.8,1.57-0.98,4.18-0.21,5.69c1.76,3.49,0.91,6.48,0.3,10.02c-0.69,3.96,0.03,8.39,1.09,12.36
		c1.58,5.88,4.6,11.24,1.11,17.7c-1.48,2.73-0.65,6.68-0.98,10.07c-0.23,2.41-0.89,4.79-0.94,7.19c-0.08,3.81,0.09,7.63,0.37,11.44
		c0.13,1.76,1.6,3.87,1.01,5.15c-3.63,7.95,0.77,15.35,1.11,23c0.11,2.58-0.06,5.18-0.23,7.77c-0.2,3.11-0.58,6.21-0.77,9.31
		c-0.48,7.91-1.03,15.83-1.28,23.75c-0.08,2.57,0.55,5.2,1.1,7.75c1.68,7.91,3.98,15.73,4.98,23.72c0.38,3.02-1.92,6.49-3.35,9.6
		c-2.78,6.08-3.34,11.93-0.11,18.14c1.22,2.35,1.03,5.44,1.49,8.19c-2.92,0.46-5.84,0.92-7.53,1.19c-1.31-5.2-2.92-9.11-3.18-13.1
		c-0.65-9.78-3.77-19.49,0.28-29.49c1.56-3.85,0.7-8.85,0.35-13.27c-0.47-5.9-1.74-11.73-2.24-17.63c-0.38-4.47,0.04-9-0.11-13.49
		c-0.14-4.08,0.05-7.87,3.2-11.07c3.66-3.71-0.31-7.09-0.9-10.61c-0.68-4.03-2.22-8.02-2.25-12.04c-0.2-26.49-0.02-52.98-0.17-79.47
		c-0.02-3.38-1.35-6.74-1.73-10.15c-0.16-1.41,0.07-3.47,0.98-4.29c6.12-5.59,6.61-6.6,3.05-13.42c-3.02-5.79-4.96-11.43-2.7-18.06
		c0.88-2.57,0.52-5.61,0.52-8.44c0.02-62.5-0.03-124.99,0.1-187.49c0.01-3.3,1.48-6.59,2.29-9.88c0.35-1.43,1.07-2.86,1.06-4.29
		c-0.1-11.79,0.96-23.78-0.82-35.33c-2.44-15.78-3.68-31.3-0.71-47.03c-4.06-25.35-0.55-50.9-1.99-76.31
		c-0.29-5.11-1.22-10.18-1.76-15.28c-0.24-2.31-0.56-4.67-0.32-6.96c0.77-7.44,1.33-14.94,2.78-22.25
		c2.99-15.08,2.89-30.03,0.49-45.18c-2.45-15.5-0.59-30.72,3.97-45.8c2.73-9.01,3.96-18.47,6.01-27.69
		c2.19-9.84,4.46-19.67,6.97-29.44c0.45-1.75,2.09-3.37,3.52-4.67c6.92-6.3,13.21-12.96,17.22-21.7c1.67-3.63,5.21-6.39,7.86-9.57
		c3.72-4.47,7.61-8.82,11.05-13.49c2.33-3.17,4.93-4.74,8.94-5.42c3.03-0.52,6.11-2.82,8.38-5.11c1.65-1.67,2.48-2.83,4.78-1.39
		c3.04,1.9,5.68,0.97,8.05-1.45c1.98-2.02,3.82-4.32,6.16-5.81c1.99-1.27,4.62-1.48,6.92-2.29c2.88-1.01,6.16-1.56,8.45-3.35
		c3.8-2.96,7.42-4.05,12.36-3.65c5.13,0.42,10.4-1.19,15.63-1.65c7.43-0.66,14.91-1.67,22.33-1.42c6.62,0.22,12.4-1.4,18.27-4.01
		c1.9-0.84,4.53-0.2,6.79,0.05c1.09,0.12,2.16,1.38,3.16,1.29c5.39-0.48,9.94,0.99,14.25,4.36c1.14,0.89,4.33,0.32,5.89-0.67
		c8.14-5.12,16.19-0.96,24.27-0.2c0.29,0.03,0.7,0.28,0.81,0.54c2.68,5.94,6.1,4.37,11.38,2.79c6.01-1.8,12.92-1.92,19.49,1.09
		c4.41,2.01,9.6,2.55,14.52,3.15c10.04,1.22,20.11,2.14,30.19,2.95c2.17,0.17,4.86-0.03,6.55-1.18c3.18-2.16,5.95-1.82,8.81-0.02
		c4.1,2.58,8.12,3.38,13.19,2.64c5.03-0.73,10.38,0.93,15.61,1.31c3.09,0.23,6.48,0.75,9.26-0.2c3.69-1.27,6.63-1.3,9.81,0.95
		c3.92,2.77,8,3.95,12.48,0.77c0.9-0.64,2.73,0.06,4.14,0.13c2.98,0.15,6.13,0.97,8.91,0.27c4.01-1.01,7.61-1.89,11.5,0.4
		c4.52,2.66,8.53-0.28,12.16-2.25c3.31-1.79,6.17-2.12,9.43-0.69c7.09,3.12,14.04,2.72,21.33,0.15c2.92-1.03,6.6,0.14,9.94,0.26
		c2.57,0.09,5.5,0.92,7.63-0.03c3.07-1.36,4.95-1.03,7.66,0.81c2.44,1.66,5.7,2.57,8.69,2.85c4.62,0.44,9.36,0.43,13.97-0.08
		c3.15-0.35,6.66-1.2,9.13-3.02c3.18-2.34,5.4-2.09,7.74,0.51c3.46,3.84,6.91,5.07,12.3,3.01c3.79-1.45,8.56-0.18,12.87-0.46
		c2.75-0.18,6.08-0.13,8.08-1.62c5.17-3.85,9.72-3.02,14.57,0.13c3.43,2.23,6.99,3.87,11.19,1.76c0.82-0.41,2.2-0.57,2.92-0.15
		c7.44,4.29,17.13,4.54,22.38,12.9c1.2,1.91,4.07,3.6,6.34,3.84c4.08,0.43,6.31,2.53,8.04,5.78c1.01,1.91,1.84,3.94,3.06,5.7
		c1.93,2.79,3.27,5.45,0.5,8.47c-0.3,0.33-0.42,0.93-0.43,1.42c-0.54,14.25-10.96,20.64-21.62,26.42
		c-12.89,7-26.66,11.66-40.98,15.13c-5.53,1.34-10.2,1.22-15.7,0.71c-5.98-0.55-12.98-1.68-18.42,0.28
		c-8.35,3.01-15.76,2.75-23.72-0.05c-1.69-0.59-3.99-0.42-5.7,0.22c-6.49,2.43-12.14,1.22-17.79-2.57
		c-2.12-1.42-5.33-2.41-7.76-1.98c-8.55,1.52-16.93,3.95-25.47,5.6c-3.22,0.62-7.18,1.14-9.93-0.15c-8.86-4.16-17.06-0.21-25.43,1.1
		c-6.36,0.99-12.14,1.6-18.89,0.08c-6.26-1.4-13.88,1.52-20.43,3.85c-3.05,1.08-4.79,1.78-7.48-0.2c-1.2-0.88-3.57-1.18-4.97-0.63
		c-6.09,2.39-11.97,5.34-18.04,7.77c-3.49,1.4-7.35,1.89-10.81,3.35c-2.51,1.06-5.09,2.66-6.84,4.69
		c-3.04,3.52-6.83,4.96-10.88,6.94c-6.33,3.08-11.67,8.52-16.8,13.6c-3.85,3.8-6.28,9.05-10.13,12.86
		c-8.61,8.54-14.56,18.64-18.03,30.01c-1.57,5.12-1.48,10.89-1.4,16.35c0.2,12.14,0.78,24.27,1.46,36.39
		c0.09,1.57,1.27,3.79,2.59,4.47c8.63,4.44,12.43,12.64,16.7,20.53c2.21,4.08,4.34,8.23,6.86,12.11c2.63,4.06,6.14,6.87,11.49,6.79
		c1.63-0.02,3.55,0.98,4.86,2.08c4.19,3.55,8.34,7.19,12.13,11.16c1.85,1.94,2.85,4.68,3.67,6.07c3.85,0.83,6.91,1.57,10.01,2.14
		c2.28,0.41,4.7,0.26,6.87,0.95c4.66,1.47,10.39,2.13,13.55,5.27c6.88,6.84,15.12,5.44,23.19,6.4c8.17,0.97,16.26,2.58,24.37,4.01
		c2.88,0.51,5.71,1.9,8.56,1.9c34.8,0.11,69.61-0.01,104.41,0.1c3.19,0.01,6.36,1.29,9.56,1.86c1.42,0.25,2.93,0.45,4.33,0.22
		c3.82-0.62,7.58-2.04,11.39-2.13c9.99-0.23,20-0.05,29.99,0.31c1.71,0.06,3.46,1.67,5.01,2.82c3.41,2.53,6.57,5.42,10.08,7.78
		c3.96,2.66,8.22,4.88,12.33,7.32c1.85,1.1,3.63,2.31,5.47,3.44c2.26,1.38,5.3,2.19,6.66,4.17c3.32,4.84,4.41,10.61,2.36,16.2
		c-1.26,3.44-1.32,6.18,0.18,9.47c1.47,3.21,0.75,5.42-3.16,7.38c-3.34,1.68-5.73,5.59-8.05,8.86c-1.49,2.1-1.92,4.94-3.18,7.24
		c-0.51,0.93-2.21,2.07-3,1.84c-6.72-1.99-10.83,2.15-14.7,6.27c-5.29,5.62-4.66,5.93-11.68,0.75c-2.97-2.19-4.3-2.27-4.9,1.61
		c-0.65,4.22-4.07,3.07-6.71,3.31c-6.05,0.53-12.11,0.93-18.15,1.52c-1.09,0.11-2.12,1.34-3.16,1.31c-1.65-0.05-3.96-0.19-4.8-1.25
		c-4.52-5.65-5.12-5.73-8.65,0.31c-0.5,0.85-1.07,1.65-1.87,2.85c-1.68-1.57-2.94-2.4-3.73-3.55c-2.39-3.49-4.84-4.85-9.22-2.63
		c-1.92,0.97-5.23,0.03-7.6-0.87c-5.22-1.97-9.67-2.85-13.81,2.44c-1.2,1.53-4.93,2.1-7.15,1.59c-6.94-1.58-13.39-1.37-19.91,1.83
		c-1.74,0.85-4.41-0.28-6.65-0.34c-3.18-0.09-6.38,0.05-9.56-0.08c-2.11-0.09-4.64,0.18-6.21-0.87c-2.89-1.94-5.16-2.11-8.24-0.46
		c-1.7,0.91-4.12,0.6-6.22,0.64c-4.75,0.09-9.53-0.18-14.26,0.15c-4.25,0.3-8.45,1.41-12.7,1.78c-3.14,0.27-6.33-0.01-9.49-0.14
		c-9.79-0.42-19.04,0.69-27.89,5.82c-6.53,3.79-14.47,5.17-20.92,9.05c-11.75,7.05-23.43,14.45-34.11,23.01
		c-13.05,10.46-19.62,25.7-26.14,40.67c-2.44,5.61-4.68,11.34-6.7,17.12c-2.78,7.93-3.44,15.88,0.75,23.67
		c0.61,1.14,1.34,2.7,1.03,3.78c-2.14,7.37,2.64,12.21,5.93,17.71c1.91,3.2,3.07,6.83,4.67,10.22c0.69,1.46,1.37,3.14,2.55,4.13
		c5.33,4.48,10.53,9.24,16.36,12.99c12.28,7.89,24.53,15.98,37.53,22.52c11.17,5.62,23.3,9.4,35.16,13.56
		c3.35,1.17,7.24,0.7,10.85,1.24c3.56,0.53,7.07,1.38,10.6,2.08c0.97,0.19,2.06,0.78,2.88,0.52c9.35-2.93,18.48,2.69,27.91,0.65
		c1.99-0.43,4.52,2.44,6.98,3.25c2.51,0.83,5.57,2.03,7.82,1.3c11.39-3.72,22.94-5.02,34.89-4.55c9.79,0.38,19.63-0.3,29.44-0.13
		c3.34,0.06,6.82,0.85,9.96,2.02c3.62,1.35,6.8,2.25,10.39-0.16c1.2-0.81,3.56-0.97,4.89-0.35c6.9,3.23,13.39,2.1,20.54-1.32
		c1.1,1.83,2.3,3.91,3.58,5.93c1.78,2.82,3.8,2.94,5.03-0.22c1.89-4.83,3.88-6.66,9.51-3.95c6.66,3.2,14.09,4.79,21.19,7.08
		c0.32,0.1,0.72,0.16,0.91,0.38c9.12,10.79,22.97,17.59,24.99,34.3c1.26,10.44,0.15,19.72-6.74,26.76
		c-6.72,6.86-13.8,14.32-24.78,15.19c-2.51,0.2-5.03,2.84-7.14,4.79c-4.36,4.03-6.3,4.1-9.32-0.85c-2.19-3.59-4.33-2.11-5.76,0.07
		c-2.34,3.57-4.5,3.71-8.17,1.76c-3.12-1.66-6.74-1.88-8.67,2.74c-0.43,1.03-3.15,1.94-4.45,1.58c-2.81-0.77-5.55-2.15-8.01-3.75
		c-2.85-1.85-3.87-1.11-4.1,1.98c-0.37,5.14-1.81,6.33-6.86,4.91c-3.5-0.98-6.73-3.28-10.24-3.76c-4.93-0.67-10.02-0.27-15.03-0.2
		c-3.06,0.04-6.37,1.13-9.14,0.32c-9.92-2.92-19.19-2.72-28.4,2.6c-2.2,1.27-5.9,0.98-8.56,0.2c-6.79-1.98-13.36-4.72-20.09-6.93
		c-0.93-0.31-2.69,0.29-3.36,1.07c-5.67,6.71-9.1,7.64-17.47,3.26c-3.4-1.78-6.05-2.44-8.96,0.43c-0.53,0.52-1.57,1.01-2.23,0.86
		c-9.8-2.21-18.4,3.08-27.62,4.44c-9.68,1.43-19.41,3.16-28.73,6.05c-5.12,1.59-9.7,5.48-13.99,8.98
		c-3.26,2.66-5.93,4.59-10.17,2.16c-1.07-0.62-3.37-0.3-4.44,0.49c-3.62,2.64-6.85,5.8-10.39,8.55c-4.42,3.44-9.23,6.4-13.42,10.09
		c-2.91,2.57-5.05,6.01-7.54,9.06c-1.23,1.51-2.26,4.09-3.7,4.34c-6.17,1.06-8.15,5.95-10.42,10.49
		c-3.76,7.54-7.59,15.09-10.65,22.92c-2.28,5.82-3.4,12.1-5.02,18.18c-0.08,0.31-0.11,0.73,0.03,0.99
		c2.45,4.43,2.57,8.49-1.65,12.04c-0.38,0.32-0.53,1.44-0.27,1.9c3.87,6.96,0.11,16.2,6.69,22.36c0.68,0.64,1.27,1.67,1.38,2.59
		c1.66,13.37,10.32,22.72,18.57,32.24c7.46,8.62,14.85,17.36,23,25.31c5.78,5.64,12.57,10.34,19.33,14.82
		c1.87,1.24,5.26,0.19,7.36,0.19c3.57,1.99,6.73,4.7,10.33,5.58c7.55,1.85,15.34,2.69,23.02,4.06c3.39,0.61,6.72,1.55,10.09,2.27
		c4.45,0.95,8.88,2.17,13.39,2.66c7.39,0.81,14.83,1.43,22.25,1.53c4.57,0.06,8.84-0.11,13.26,1.95c2,0.93,5.29-1.19,8.04-1.48
		c3.31-0.35,6.67-0.3,10.01-0.29c1.58,0,3.57,1,4.67,0.35c5.92-3.5,11.61-1.7,17.28,0.3c5.28,1.86,9.98,1.69,15.34-0.73
		c3.22-1.46,8.03-0.52,11.76,0.58c3.72,1.1,6.61,1.36,10.42-0.16c3.21-1.28,7.35-0.38,11.06-0.18c1.43,0.07,2.86,1.37,4.21,1.24
		c5.87-0.55,11.7-1.62,17.57-2.09c2.75-0.22,5.61,0.32,8.37,0.8c3.18,0.55,6.4,2.28,9.45,1.98c11.32-1.13,22.13-0.82,32.37,5.18
		c3.92,2.3,9.57,2.1,12.89,4.88c6.95,5.81,12.93,12.78,19.15,19.43c0.73,0.78,0.78,2.59,0.56,3.81c-0.95,5.22-1.8,10.5-3.41,15.53
		c-0.52,1.61-3.29,3.6-4.95,3.53c-3.37-0.14-5.25,0.84-6.78,3.74c-2.25,4.24-4.91,6.99-10.15,3.11c-2.62-1.94-5.45-0.75-6.59,2.77
		c-0.4,1.23-0.93,2.41-1.65,4.28c-5.87-4.58-9.95,0.17-14.76,2.02c-3.21,1.23-6.87,1.53-10.36,1.71c-6.59,0.34-13.22,0-19.79,0.49
		c-6.85,0.51-13.3,0.9-19.89-2.53c-2.86-1.49-7.88-0.41-11.22,1.07c-3.56,1.58-6.31,2.31-9.75,0.23c-1.25-0.76-3.28-1.2-4.58-0.74
		c-7.38,2.59-14.54,2.65-21.82-0.4c-1.46-0.61-3.48,0.13-5.24,0.24c-4.36,0.26-8.91,1.41-13.05,0.56
		c-7.54-1.55-14.73-2.93-21.67,1.66c-0.68,0.45-1.59,1.02-2.28,0.9c-4.96-0.89-9.89-1.94-14.82-2.97c-0.31-0.06-0.58-0.47-0.87-0.46
		c-6.16,0.06-12.32,0.31-18.47,0.55c-3.35,0.13-6.64,2.25-9.99,2.35c-10.82,0.33-21.66,0.14-32.49,0.15c-2,0-4.19-0.59-5.96,0.03
		c-5.74,2.02-11.34,4.21-17.42,1.4c-0.12-0.06-0.35,0-0.48,0.08c-10.23,5.61-21.46,1.86-32.15,3.4c-14.49,2.08-29.04,3.79-43.6,5.28
		c-13.86,1.42-27.8,2.18-41.66,3.62c-3.49,0.36-6.79,2.34-10.25,3.36c-1.79,0.53-4.06,1.37-5.51,0.73
		c-5.95-2.63-11.85-1.9-17.6-0.12c-4.96,1.54-9.28,0.94-13.16-2.17c-3.66-2.94-7.26-3.09-11.01-0.61c-4.4,2.91-8.29,3.3-12.57-0.6
		c-4.42-4.03-9.83-6.08-16.03-5.79c-8.67,0.41-16.23-2.83-23.24-7.61c-5.96-4.07-11.86-8.24-17.91-12.19
		c-1.16-0.76-2.87-1.07-4.28-0.96c-5.2,0.43-8.81-2.16-12.21-5.63c-3.48-3.56-6.93-7.24-10.88-10.24
		c-10.88-8.29-17.75-19.75-24.82-30.99c-1.59-2.52-1.16-6.43-1.3-9.71c-0.19-4.7-1.79-8.19-6.26-10.43
		c-1.3-0.65-2.51-3.18-2.36-4.71c0.85-8.96-2.84-16.21-6.73-23.97c-2.42-4.83-1.2-11.56-1.16-17.44c0-0.54,3.4-1.64,5.05-1.38
		c1.15,0.18,2.4,2.11,2.91,3.5c1.17,3.2,1.62,6.68,2.89,9.83c1.52,3.76,1.91,7.07-0.06,10.95c-0.98,1.92-0.96,5.27,0.1,7.12
		c2.11,3.71,5.32,6.78,7.95,10.21c4.63,6.02,8.08,12.4,7.84,20.45c-0.07,2.26,1.72,4.94,3.35,6.83
		c10.39,12.13,21.07,24.01,31.44,36.15c3.28,3.84,6.84,5.62,12.02,5.71c4.08,0.07,8.26,1.63,12.15,3.15
		c2.94,1.15,5.27,3.07,4.15,7.3c-0.83,3.12,2.39,5.01,5.67,3.09c6.58-3.85,12.26-2.81,18.6,0.93c4.31,2.54,9.6,3.7,14.6,4.72
		c6.5,1.32,13.16,1.89,19.76,2.77c0.32,0.04,0.75,0.09,0.98-0.07c7.09-4.82,14.83-2.03,22.35-2.03c2.43,0,4.86-0.92,7.3-1.39
		c2.43-0.46,4.86-1.25,7.3-1.26c6.23-0.02,6.23,0.12,10.42-4.48c4.36,2.37,8.41,0.32,12.95-0.65c6.42-1.37,13.51-1,20.07,0.11
		c5.75,0.97,12.22-2.39,12.66-8.37c0.68-9.06,0.79-8.76,9.26-11.89c6.24-2.31,12.14-5.53,18.67-8.57c-0.27-0.3,0.38,0.1,0.54,0.65
		c1.45,4.84,3.44,8.62,9.7,6.53c0.87-0.29,2.24,1.28,3.48,1.65c1.44,0.43,3.66,1.21,4.33,0.57c1.12-1.06,1.95-3.25,1.69-4.76
		c-0.67-3.91-1.77-7.8-3.18-11.51c-0.64-1.69-2.13-3.58-3.71-4.27c-3.68-1.6-3.29-4.15-1.67-6.43c3.25-4.55,2.08-8.05-1.77-11.27
		c-7.41-6.19-12.16-13.54-11.15-23.75c0.42-4.22-2.15-5.84-6.17-6.02c-8.36-0.39-8.16-0.44-6.76-8.28c0.31-1.74-1.14-3.91-2.1-5.71
		c-0.51-0.96-1.7-1.56-2.59-2.31c-0.74-0.63-1.5-1.24-2.47-2.04c0.6-0.96,1.38-1.7,1.52-2.55c0.42-2.48,1.41-5.32,0.59-7.4
		c-0.6-1.52-3.66-2.14-5.68-3.02c-2.4-1.05-6.12-1.35-6.94-3.09c-0.79-1.67,1.42-4.73,2.24-7.2c0.34-1.01,0.99-2.41,0.59-3.05
		c-0.45-0.72-2.15-1.32-2.96-1.03c-5.84,2.18-5.81-1.34-7.17-5.66c-2.16-6.85-5.9-13.24-9.33-19.63c-2.82-5.26-2.72-9.01,1.2-13.5
		c3.08-3.53,2.56-5.12-1.11-7.9c-2.03-1.54-4.34-4.26-4.41-6.51c-0.15-4.73,1.03-9.52,1.84-14.26c0.14-0.85,0.97-2.09,1.7-2.27
		c5.7-1.38,6.38-4.21,1.86-8.74c6.71-1.03,6.32-4.47,5.07-9.21c-0.54-2.07,1.34-5.19,2.87-7.29c1.83-2.51,4.54-4.36,6.73-6.64
		c2.95-3.08,3.18-6.12,0.36-9.73c-3.87-4.95-3.46-7.27,2.33-9.93c5.18-2.39,9.59-4.63,9.01-11.39c-0.06-0.71,1.29-1.86,2.23-2.28
		c8.01-3.56,11.7-10.63,14.52-18.18c2.36-6.31,4.9-11.2,12.01-14.48c12.72-5.86,19.52-17.38,22.94-30.91
		c0.56-2.22,2.23-4.34,3.85-6.08c2.49-2.67,5.27-3.42,7.79,0.27c0.64,0.94,1.55,2.08,2.53,2.31c1.46,0.35,3.54,0.52,4.51-0.27
		c0.7-0.57,0.57-3.18-0.14-4.25c-1.03-1.55-3-2.44-4.42-3.77c-2.51-2.35-4.92-4.82-7.37-7.24c0.4-0.5,0.8-1,1.2-1.5
		c1.52,0.75,3.06,1.47,4.56,2.26c3.04,1.59,4.92,0.67,5.2-2.69c0.26-3.15,0.34-6.35,0.03-9.48c-0.14-1.41-1.4-2.71-2.15-4.06
		c-1.12,0.83-2.32,1.59-3.34,2.53c-0.79,0.73-1.36,1.69-1.61,2.02c-2.56-2.72-4.96-5.27-7.22-7.66c3-0.53,5.42-2.34,3.13-6.92
		c-2.39-4.76-6.12-6.19-10.61-4.12c-1.59,0.73-3.53,0.7-5.31,1.01c-0.12-1.76-0.6-3.59-0.29-5.26c1.01-5.32-3.1-7.23-6.42-8.87
		c-3.6-1.77-4.68-2.92-1.95-6.45c1.8-2.32,0.91-4.9-1.94-6.14c-7.36-3.2-10.06-9.57-12.01-16.7c-1.68-6.15-4.19-11.69-12.18-11.51
		c-2.83,0.06-3.81-1.62-2.47-4.37c2.09-4.3,2.44-8.23-2.14-11.42c-0.72-0.5-0.89-2.47-0.61-3.58c0.85-3.33,3.27-7.32-0.67-9.43
		C2179.36,579.34,2175.53,580.43,2171.18,580.43z M2210.32,761.62c1.18-1.24,5-4.29,4.61-5.01c-1.85-3.37-4.37-7.55-7.6-8.66
		c-3.81-1.31-3.3,3.41-3.45,5.98C2203.67,757.47,2203.68,761.17,2210.32,761.62z M2228.95,743.64c-3.36-2.67-5.18-4.85-7.45-5.52
		c-0.82-0.24-4,3.3-3.81,4.82c0.29,2.28,2.61,4.3,4.06,6.44C2223.72,747.8,2225.7,746.23,2228.95,743.64z M2189.75,470.87
		c2.24,2.9,3.84,4.97,5.43,7.03c1.81-2.02,4.67-3.81,5.17-6.12c0.65-2.96-1.93-5.51-5.15-5.13
		C2193.49,466.85,2192.01,469.03,2189.75,470.87z M2256.21,391.4c0.31-0.23,1.44-0.68,1.47-1.19c0.09-2,0.61-4.83-0.46-5.87
		c-2.07-2.01-5.09-3.06-7.79-4.35c-0.17-0.08-1.18,1.06-1.42,1.76C2247.11,384.4,2252.93,391.6,2256.21,391.4z M2250.6,92.15
		c-2.96-1.32-4.3-2.42-5.6-2.39c-3.31,0.09-5.99,1.7-5.81,5.37c0.06,1.19,2.75,3.44,3.09,3.24
		C2244.81,96.9,2247.05,94.92,2250.6,92.15z M2167.59,225.89c-2.96-2.38-4.81-4.25-7.04-5.38c-0.55-0.28-2.33,1.88-3.55,2.92
		c1.87,2.15,3.67,4.39,5.76,6.31C2162.94,229.9,2165.11,227.89,2167.59,225.89z M2282.83,676.63c-2.56-1.92-4.02-3.84-5.25-3.71
		c-1.34,0.15-3.4,2.18-3.43,3.44c-0.04,1.3,1.83,3.53,3.14,3.74C2278.53,680.31,2280.11,678.44,2282.83,676.63z M2231.9,1012.55
		c-0.02-0.63-0.05-1.27-0.07-1.9c-1.74-0.68-3.51-1.92-5.22-1.85c-1.3,0.05-2.53,1.77-3.79,2.74c1.52,1.22,2.91,3.14,4.59,3.44
		C2228.72,1015.22,2230.39,1013.44,2231.9,1012.55z M2241.97,370.64c-1.5-1.98-2.57-3.39-3.64-4.8c-1.15,1.35-3.35,2.82-3.21,4.03
		c0.2,1.73,2.09,3.27,3.26,4.9C2239.42,373.57,2240.47,372.37,2241.97,370.64z M2182.69,1042.22c0.06,0.58,0.11,1.16,0.17,1.74
		c1.47,0.61,3.1,1.93,4.39,1.66c1.5-0.32,2.71-2.03,4.04-3.14c-1.34-0.98-2.68-2.74-4.01-2.73
		C2185.74,1039.75,2184.22,1041.32,2182.69,1042.22z M2261.25,381.68c1.83-2.35,2.93-3.77,4.02-5.18c-1.3-1-2.57-2.77-3.89-2.8
		c-1.32-0.03-2.67,1.67-4.01,2.62C2258.42,377.77,2259.47,379.23,2261.25,381.68z M2251.14,413.48c-1.88-1.67-3.03-2.69-4.19-3.72
		c-1.08,1.43-2.88,2.8-3,4.3c-0.1,1.19,1.87,2.55,2.91,3.83C2248.06,416.66,2249.25,415.42,2251.14,413.48z M2202.93,970.56
		c1.6,1.76,2.77,3.04,3.94,4.32c1.02-1.51,2.85-3.05,2.82-4.54c-0.03-1.41-2.02-2.78-3.15-4.17
		C2205.51,967.44,2204.47,968.7,2202.93,970.56z M2251.07,369.73c-1.73-1.68-2.87-2.77-4-3.87c-1.08,1.27-3.06,2.59-3,3.79
		c0.08,1.47,1.89,2.85,2.95,4.27C2248.14,372.76,2249.27,371.59,2251.07,369.73z M2242.01,716.37c-1.72-1.59-2.97-2.74-4.21-3.88
		c-0.99,1.11-3,2.58-2.76,3.26c0.61,1.74,2.22,3.14,3.43,4.67C2239.44,719.31,2240.4,718.21,2242.01,716.37z M2251.09,84.39
		c-1.66-3.39-2.7-5.5-4.08-8.32C2244.52,81.19,2244.6,81.36,2251.09,84.39z"/>
	<path class="st0" d="M1982.42,901.33c0.77-9.37,0.94-16.39-4.33-22.48c-1.02-1.18-0.28-4.83,0.79-6.68c2.22-3.84,4.59-7,1.64-11.81
		c-1.03-1.68,0.72-4.94,0.85-7.5c0.15-2.76-0.02-5.55-0.25-8.32c-0.08-0.92-1.35-2.03-1.09-2.64c3.34-7.82-3.48-14.36-2.5-22.08
		c0.93-7.37,0.05-14.96,0.23-22.44c0.34-13.87-0.67-27.6-4.5-40.95c-1.71-5.95-0.06-11.05,1.85-16.44c0.71-2.01,0.26-4.51,0.04-6.76
		c-0.19-1.95-1.15-3.86-1.16-5.8c-0.11-15.99-0.43-32,0.04-47.98c0.22-7.44,3.87-14.59,0.27-22.4c-1.15-2.51,1.38-6.55,1.74-9.95
		c0.43-4.08,1.62-8.71,0.23-12.22c-3.85-9.75-2.08-19.33-1.01-29.05c1.62-14.67,4.08-29.25,2.21-44.18
		c-0.63-5.05,1.19-10.39,1.75-15.61c0.37-3.41,0.65-6.84,0.67-10.26c0.03-8.82,0.03-17.65-0.27-26.47c-0.1-2.9-1.4-5.74-1.67-8.65
		c-0.36-3.87-1.05-8-0.12-11.63c0.9-3.48,0.82-6.24-1.29-8.84c-3.4-4.16-3.57-8.18-0.79-12.82c0.97-1.61,0.89-4.13,0.64-6.15
		c-0.73-5.86-2.53-11.68-2.58-17.53c-0.22-25.99,0.09-51.99,0.08-77.99c0-5.48-0.68-10.96-0.8-16.45c-0.07-3.3,0.38-6.6,0.54-9.9
		c0.21-4.42,0.23-8.85,0.58-13.26c0.23-2.89,0.97-5.74,1.35-8.63c0.16-1.2,0.47-2.77-0.11-3.62c-2.47-3.65-1.29-6.58,1.31-9.42
		c0.11-0.12,0.19-0.28,0.31-0.39c4.34-4.36,6.74-8.33,3.27-15.21c-4.65-9.22-3.62-19.75-3.13-29.92
		c0.69-14.63,1.29-29.26,1.89-43.89c0.33-7.99,0.17-16.02,1.01-23.96c0.57-5.38,2.33-10.67,3.84-15.91
		c1.28-4.44,3.33-8.68,4.33-13.17c0.62-2.79,0.9-6.4-0.36-8.73c-2.78-5.17-0.4-8.48,2.6-12.04c2.67-3.17,5.29-6.38,7.89-9.61
		c0.51-0.64,1.22-1.44,1.2-2.15c-0.42-11.76,11.66-15.58,15.57-24.58c0.26-0.59,1.34-1.09,2.09-1.15
		c7.43-0.62,13.01-4.91,18.31-9.48c4.91-4.23,10.58-6.24,16.85-6.69c15.29-1.11,30.37-0.43,44.26,7.01
		c3.28,1.76,6.56,4.13,8.82,7.02c3.66,4.69,6.58,9.98,9.61,15.13c2.85,4.86,2.11,9.53-0.26,14.64c-2.95,6.34-4.85,13.17-7.13,19.81
		c-0.26,0.74-0.37,1.84,0,2.45c6.03,10.08,0.42,19.31-2.86,28.16c-4.29,11.56-6.43,23.46-6.9,35.45
		c-0.47,12.07,0.57,24.33,2.3,36.31c1.31,9.09,5.39,17.76,7.05,26.83c1.85,10.12,7.39,17.49,14.3,24.47
		c3.06,3.1,4.23,6.98,1.4,11.34c-1.61,2.48-2.11,5.39,1.34,7.27c0.42,0.23,1,0.68,1.01,1.04c0.09,8.41,8.28,11.9,11.47,18.74
		c3.83,8.19,6.58,15.98,6.88,24.98c0.32,9.45,2.14,18.87,2.09,28.29c-0.1,17.33-5.45,33.25-15.08,47.7
		c-5.04,7.56-10.13,14.84-11.39,24.48c-0.58,4.41-4.75,8.57-7.87,12.37c-2.28,2.77-3.57,5.01-2.72,8.89
		c0.75,3.43,0.2,7.29-0.43,10.85c-1.3,7.34-3.38,14.55-4.5,21.91c-1.5,9.83-2.66,19.74,0.82,29.53c0.56,1.58-0.37,3.64-0.44,5.49
		c-0.13,3.13-0.6,6.36-0.05,9.39c0.81,4.5,3.08,8.81,3.5,13.31c0.96,10.45,5.64,19.29,10.5,28.21c4.27,7.84,8.23,15.85,12.31,23.79
		c0.3,0.59,0.74,1.28,0.66,1.86c-0.88,6.55,3.29,10.96,6.16,16.14c2.83,5.11,4.35,11.05,5.78,16.79c1.64,6.54,2.99,13.22,3.61,19.91
		c0.32,3.44-1.33,7.04-1.88,10.6c-0.29,1.86-0.74,4.06-0.05,5.65c1.92,4.43,1.19,7.94-1.22,12.13c-2.76,4.77-4.03,10.38-6.11,15.57
		c-3.07,7.65-5.79,15.51-9.56,22.81c-7.74,15.03-16.63,29.49-23.93,44.72c-3.43,7.15-4.19,15.56-6.3,23.36
		c-0.84,3.1-2.22,6.06-3.08,9.15c-0.9,3.22-1.59,6.52-2.14,9.82c-0.4,2.39-0.61,4.85-0.57,7.27c0.06,3.31,0.4,6.62,0.7,9.92
		c0.1,1.08,1.04,2.52,0.63,3.16c-4.96,7.65-1.2,14.65,1.26,21.84c1.32,3.86,3.09,7.87,3.11,11.83c0.08,11.48,2.68,22.2,7.47,32.54
		c0.45,0.97,0.21,2.81-0.46,3.65c-2.92,3.71-1.93,6.96,1.07,9.73c4.24,3.92,6.2,7.76,2.5,13.35c-1.04,1.57,0.16,4.56,0.18,6.9
		c0.02,2.16,0.57,4.77-0.42,6.38c-2.62,4.26-4.65,9.09-10.19,11.06c-1.73,0.61-3.43,3.83-3.54,5.94c-0.24,4.25-2.08,6.21-5.94,7.42
		c-4.41,1.39-8.86,5.21-12.9,4.72c-8.35-1.01-16.52,1.73-25.09-1.15c-14.03-4.7-25.61-13.17-37.84-20.81
		c-6.12-3.82-8.26-10.23-11.86-15.69c-3.83-5.81-7.54-11.77-10.61-18.01c-1.99-4.05-3.22-8.63-3.95-13.11
		C1984.37,918.37,1983.38,908.79,1982.42,901.33z M2052.66,946.32c-0.87,2.29-2.2,4.08-1.94,5.6c0.27,1.6,1.99,4.14,3.2,4.21
		c5.92,0.35,12.11-9.54,9.04-14.57c-2.25-3.68-1.57-6.66-0.28-10.32c3.68-10.43,4.83-20.97,0.24-31.6c-0.7-1.63-0.51-4.23,0.33-5.82
		c2.38-4.51,3.8-8.85,1.15-13.72c-1.82-3.34-3.61-6.7-5.25-10.12c-1.55-3.23-2.51-6.12,2.36-7.89c1.99-0.72,4.38-3.29,4.54-5.2
		c0.14-1.57-2.45-3.92-4.35-5c-3.04-1.72-3.22-3.13-1.17-5.8c2.77-3.59,3.78-7.43,1.95-12.14c-0.74-1.92,0.37-5.1,1.6-7.12
		c2.58-4.23,6.32-7.79,8.67-12.11c6.49-11.93,12.37-24.19,18.75-36.18c5.28-9.93,11.8-19.29,16.18-29.58
		c4.97-11.66,9.02-23.88,11.86-36.23c2.24-9.71,3.34-20.08,2.55-29.97c-0.84-10.56-3.46-21.29-7.16-31.25
		c-5.8-15.59-7.72-33.19-21.31-45.17c-0.46-0.4-0.63-1.16-0.86-1.78c-3.74-10.08-7.19-20.28-11.26-30.23
		c-4.18-10.23-7.76-20.44-6.56-31.76c0.14-1.33-0.69-2.93-1.46-4.15c-2.07-3.28-1.05-6.08,0.31-9.38
		c2.94-7.14,6.26-14.36,7.59-21.87c1.78-10.07,10.18-17.69,9.66-28.41c-0.03-0.62,1.11-1.23,1.46-1.96
		c3.06-6.39,6.24-12.72,9.04-19.23c4.74-11.06,8.45-22.65,14.05-33.23c5.05-9.53,7.72-18.86,6-29.56
		c-2.03-12.58-2.94-25.38-5.66-37.79c-2.35-10.74-6.22-21.2-10.05-31.55c-3.95-10.67-8.44-21.15-13.11-31.53
		c-2.83-6.29-6.59-12.15-9.64-18.35c-1.77-3.6-3.1-7.45-4.4-11.26c-0.9-2.62-1.4-5.38-2.1-8.07c-1.28-4.91-3.32-9.76-3.66-14.73
		c-0.33-4.66-0.36-8.79-4.44-11.98c-2.23-1.74-3.05-5.1-0.12-6.18c7.05-2.59,5.96-7.66,5.42-13.1c-0.49-4.92-1.49-10.16-0.38-14.81
		c3.38-14.14,2.11-27.94-0.97-41.83c-0.42-1.88-0.48-4.3,0.36-5.93c3.17-6.17,2.27-8.18-4.25-11.3c-4.26-2.04-10.44-2.62-10.17-9.78
		c0.02-0.67-1.94-2-2.97-1.99c-2.76,0.02-5.51,0.58-8.26,0.97c-1.22,0.17-2.77,1.07-3.56,0.6c-2.97-1.76-4,0.16-5.61,2.05
		c-2.78,3.24-5.69,6.45-8.97,9.16c-7.97,6.58-14.74,13.67-16.78,24.47c-0.96,5.08-2.97,10.23-5.68,14.62
		c-3.19,5.15-3.39,9.96-1.14,15.12c1.18,2.7,1.05,4.41-1.54,6.34c-3.78,2.8-6.74,6.91-4.89,11.64c4.13,10.58,2.84,21.35,2.04,32.08
		c-0.77,10.26-2.21,20.48-3.42,30.7c-0.71,6-1.4,12.01-2.41,17.97c-0.21,1.21-1.65,2.35-2.74,3.25c-2.38,1.96-3.25,4.18-1.71,7.01
		c2.69,4.95,1.99,9.69,0.06,14.82c-2.1,5.59-3.55,11.4,0.47,17.19c0.99,1.43,0.71,4.55-0.16,6.31c-3.02,6.15-4.83,12.27-3.25,19.22
		c0.8,3.53,0.97,7.27,0.97,10.91c-0.01,15.14-0.12,30.28-0.36,45.42c-0.05,3.29-0.77,6.57-1.16,9.86
		c-0.93,7.79-1.93,15.64,2.21,22.9c2.4,4.21,4.45,8.16,0.48,12.65c-0.68,0.76-0.42,2.61-0.18,3.88c1.95,10.48,4,20.94,6.03,31.41
		c0.06,0.32,0.29,0.62,0.31,0.94c0.39,5.09,2.53,10.9,0.79,15.12c-4.05,9.83,2.1,17.68,2.95,26.45c0.27,2.79-0.26,5.66-0.37,8.5
		c-0.16,3.99-1.15,8.23-0.12,11.9c0.76,2.7,1.1,4.32-1.07,5.92c-3.28,2.42-3.4,5.56-3.1,9.32c0.4,5.05,0.22,10.19-0.25,15.25
		c-0.4,4.36-1.45,8.67-2.39,12.97c-0.72,3.28-1.83,6.47-2.56,9.75c-0.52,2.36-0.93,4.79-0.96,7.2c-0.03,2.63,0.72,5.27,0.66,7.89
		c-0.17,7.32-0.25,14.67-0.99,21.94c-0.58,5.74-2.33,11.36-3.1,17.1c-0.59,4.43-1.14,9.06-0.51,13.43
		c0.79,5.48,2.97,10.75,4.19,16.2c0.31,1.4-0.92,3.08-1.08,4.67c-0.37,3.66-0.82,7.36-0.65,11.01c0.16,3.55,1.22,7.05,1.61,10.6
		c0.8,7.21,1.46,14.43,2.08,21.65c0.17,1.94,0.68,4.23-0.1,5.8c-3.18,6.47-2.49,12.05,2.35,17.44c2.86,3.18,3.71,6.85,1.3,11.02
		c-0.74,1.28-0.37,3.43-0.01,5.07c0.85,3.94,2.05,7.79,3,11.71c0.85,3.53,1.5,7.1,2.32,10.64c1.19,5.17,2.85,10.27,3.6,15.5
		c1.43,10.03,2.31,20.14,3.54,30.19c0.26,2.12,1.26,4.15,1.55,6.28c0.81,5.94,3.32,11.87-1.08,17.75c-1.16,1.55-1.04,5.19,0,7.03
		c2.86,5.08,2.22,9.57,0.24,14.72c-0.94,2.44-0.6,7.54,0.87,8.37c5.35,2.99,4.22,5.83,1.34,9.49c-0.71,0.9-1.1,2.04-1.62,3.09
		c-1.58,3.18-1.76,5.64,2.59,6.78c1.53,0.4,3.69,1.94,3.88,3.21c0.61,4.12,3.39,6.01,6.55,7.53c3.77,1.82,5.8,4.2,6.12,8.73
		c0.45,6.27,4.98,8.3,10.09,4.81C2042.42,945.02,2047.12,945.25,2052.66,946.32z"/>
	<path class="st0" d="M969.01,168.76c-2.29,1.43-4.43,3.21-6.89,4.22c-18.89,7.8-35.78,18.88-52.22,30.87
		c-5.03,3.67-11.6,5.23-17.4,7.88c-1.9,0.87-4.51,1.71-5.29,3.29c-4.12,8.41-11.97,12.72-18.88,18.05
		c-18.7,14.44-32.69,33.08-46.58,51.82c-3.57,4.81-7.68,9.37-10.38,14.64c-3.12,6.08-4.91,12.84-7.38,19.26
		c-1.14,2.97-1.95,6.32-3.92,8.65c-2.94,3.48-5.04,6.87-4.71,11.59c0.35,4.88-1.02,9.02-4.98,12.45c-1.31,1.14-2.23,4.91-1.39,6
		c4.25,5.52,1.17,10.35-0.46,15.48c-0.99,3.11-2.17,6.36-2.19,9.56c-0.11,17.32,0.61,34.66,0.09,51.97
		c-0.53,17.74,4.6,33.96,10.62,50.23c4.03,10.9,8.11,21.68,14.74,31.32c0.61,0.88,0.9,2.24,0.78,3.31
		c-0.68,5.78,2.59,9.6,6.02,13.63c3.49,4.11,6.23,8.84,9.51,13.15c4.51,5.93,8.89,12.01,13.89,17.52
		c19.5,21.49,41.64,39.71,67.35,53.39c1.31,0.7,2.89,1.38,3.68,2.52c5.84,8.49,14.39,11.91,23.96,14.63
		c5.34,1.52,9.75,6.16,14.76,9.08c2.05,1.19,4.6,1.51,6.88,2.32c2.41,0.85,5.02,1.45,7.13,2.8c5.01,3.22,9.77,6.83,14.92,10.48
		c-5.02,3.18-10.98,7.16-17.17,10.74c-1.75,1.01-4.47,1.69-6.24,1.08c-11.12-3.89-21.84-0.9-32.84,0.64
		c-5.46,0.77-11.34-1.65-17.06-2.38c-2.78-0.35-5.85-0.82-8.41-0.02c-4.16,1.29-7.16,1.03-11.01-1.61c-4.37-2.99-9.85-4.5-15-6.2
		c-6.44-2.12-13.08-3.63-19.53-5.7c-5.21-1.67-10.56-3.27-15.31-5.89c-3.51-1.94-6.07-5.54-9.19-8.25
		c-2.16-1.87-4.31-4.29-6.87-5.04c-16.2-4.76-29.07-14.45-40.31-26.57c-2.9-3.13-5.13-6.89-7.68-10.35
		c-1.18-1.59-2.08-3.76-3.67-4.6c-3.72-1.95-4.95-5.3-6.8-8.66c-2.84-5.16-6.16-10.28-10.23-14.5
		c-11.68-12.12-18.56-26.94-25.27-41.99c-3.07-6.9-6.89-13.47-10.02-20.36c-0.88-1.93-0.59-4.43-0.68-6.68
		c-0.07-1.68,0.82-3.87,0.05-4.99c-4.76-6.91-7.23-14.41-7.62-22.79c-0.12-2.55-1.31-5.17-2.48-7.52
		c-4.23-8.51-2.09-17.68-2.96-26.53c-1.12-11.37-1.93-22.77-2.58-34.18c-0.12-2.16,0.91-4.47,1.75-6.58
		c1.21-3.08,1.84-5.72-0.41-8.88c-0.94-1.32-0.37-4.33,0.43-6.16c1.93-4.37,5.13-8.43,1.13-13.27c-0.29-0.35-0.44-0.98-0.35-1.43
		c1.66-8.74,1.02-17.87,4.65-26.31c1.6-3.72,2.87-7.36,7.14-9c0.65-0.25,1.22-3.16,0.69-3.66c-4.47-4.3-1.57-8.56-0.15-12.75
		c2.5-7.36,4.82-14.81,7.97-21.89c1.82-4.1,4.96-7.65,7.78-11.24c1.74-2.21,4.23-3.71,2.1-7.21c-1.77-2.92,0.87-4.07,3.02-4.19
		c4.28-0.24,5.72-2.49,7.41-6.3c7.34-16.53,14.47-33.4,31.49-42.92c0.95-0.53,1.83-1.59,2.23-2.6
		c4.01-10.05,12.23-16.41,20.07-23.09c4.18-3.56,8.53-6.92,12.75-10.44c2.48-2.07,4.5-5.21,8.48-2.6c0.51,0.33,2.36-0.22,2.57-0.76
		c2.86-7.36,10.61-7.8,16.09-11.32c12.31-7.9,26.74-10.57,40.27-15.47c8.08-2.92,16.18-3.11,24.53-3.18
		c4.54-0.04,9.04-2.33,13.62-2.6c6.57-0.39,13.2,0.11,19.8,0.27c3.95,0.1,7.99-0.18,11.82,0.58c2.67,0.53,6.41,1.97,7.28,4.02
		c2.47,5.82,6.12,9.23,12.85,9.3C968.87,167.52,968.94,168.14,969.01,168.76z M795.3,549.66c-0.77,0.38-1.55,0.76-2.32,1.13
		c-1.65-3.06-3.63-6.01-4.85-9.23c-0.9-2.39-1.89-5.65-0.96-7.63c2.06-4.36,1.83-7.7-1.07-11.5c-2.58-3.38-5.36-7.01-6.5-10.98
		c-1.85-6.47-2.08-13.4-3.68-19.96c-1.23-5.06-3.68-9.81-5.25-14.8c-0.6-1.91-0.34-4.11-0.34-6.17c0-2.53,0.36-5.08,0.13-7.59
		c-0.18-2.05-1.17-4.01-1.5-6.05c-1.6-9.79-4.44-19.44-3.18-29.56c0.15-1.23-0.67-2.56-0.89-3.87c-0.76-4.53-1.88-9.06-2.09-13.62
		c-0.3-6.64-0.17-13.33,0.32-19.96c0.13-1.76,2.12-3.51,3.53-5.01c1.14-1.21,3.88-2.14,3.8-2.99c-0.17-1.85-1.33-4-2.76-5.25
		c-2.49-2.17-3.43-3.63,0.17-5.43c2.51-1.25,2.99-2.86,1.56-5.68c-0.98-1.93-0.49-4.66-0.47-7.04c0.01-1.6,1-3.51,0.42-4.76
		c-2.48-5.34-1.13-9.03,3.58-12.38c3.37-2.39,4.62-5.59,2.08-9.95c-2.27-3.89-1.78-8.2,0.84-12.25
		c7.1-10.97,12.71-22.49,13.06-35.98c0.03-1.2,1.85-3,3.18-3.39c2.87-0.84,3.96-2.24,3.08-5.07c-0.82-2.64-0.13-4.35,2.52-5.62
		c1.59-0.76,4.04-2.68,3.85-3.59c-0.42-1.98-1.92-4.47-3.66-5.27c-4.09-1.87-4.23-4.52-3.51-6.79c3.01-1.51,5.25-2.24,6.87-3.66
		c0.63-0.55,0.4-3.4-0.36-3.96c-1.6-1.18-4.51-2.7-5.63-2.02c-4.52,2.77-10.34,4.45-11.79,10.61c-0.96,4.08-1.63,8.23-2.57,13.06
		c-1.46-1.29-2.31-2.26-3.36-2.92c-1.84-1.16-3.79-2.14-5.7-3.2c-0.83,1.95-2.35,3.89-2.39,5.86c-0.18,9.31-5.54,15.36-12.93,19.32
		c-3.57,1.91-7.43,0.65-6.44,7.6c0.68,4.76-3.98,10.18-5.92,15.42c-3.33,8.98-6.74,17.96-9.44,27.14c-1.29,4.37,0.73,10.6-7.82,8.34
		c0.29,1.7,0.58,2.63,0.6,3.57c0.1,4.36,0.53,8.76,0.07,13.07c-0.61,5.73-2.72,11.39-2.72,17.08c0,4.83-1.42,8.24-4.57,11.53
		c-3.9,4.07-3.62,5.69,1.23,8.16c2.18,1.11,2.47,2.06,1.99,4.61c-0.57,3,0.38,6.32,0.82,9.48c0.25,1.76,1.11,3.46,1.19,5.21
		c0.19,4.29,0.23,8.61,0.06,12.9c-0.08,2.09-0.71,4.17-1.17,6.24c-0.5,2.23-1.26,4.41-1.6,6.65c-0.65,4.39-1.31,8.81-1.48,13.24
		c-0.06,1.69,1.22,3.42,1.89,5.14c1.43-0.67,2.87-1.31,4.27-2.03c0.46-0.24,0.81-0.69,1.58-1.37c0.24,1.43,0.41,2.23,0.5,3.04
		c1.59,14.03,3.12,28.05,10.73,40.5c1.9,3.1,4.01,6.36,0.81,10.04c-0.11,0.12,1.94,2.54,2.11,2.43c4.4-2.65,4.95,1.04,5.54,3.57
		c3,12.86,11.7,21.51,21.29,29.57c0.97,0.82,1.68,1.95,2.66,3.1c-2.4,0.49-3.98,0.81-5.56,1.14c1.56,3.21,2.68,8.76,4.78,9.16
		c4.77,0.9,6.11,2.65,6.01,7.05c-0.03,1.3,1.44,2.63,2.23,3.94c1.44-0.97,3.23-1.68,4.2-3c0.77-1.06,0.69-2.84,0.74-4.32
		c0.2-6.38,0.16-6.3,6.29-5.27c4.27,0.72,8.63,0.79,10.73-3.98c1.87-4.25,0.58-7.77-3.55-10.18c-0.81-0.48-1.26-1.56-2.04-2.11
		c-0.71-0.5-1.66-0.66-2.5-0.97c-0.22,1.03-0.8,2.14-0.59,3.08C793.81,546.81,794.66,548.21,795.3,549.66z M789.82,571.49
		c-0.46,0.26-0.91,0.51-1.37,0.77c1.29,2.05,2.3,4.37,3.94,6.09c2.26,2.38,15.04-0.23,16.03-3.27c0.38-1.17-0.32-3.52-1.29-4.17
		c-4.41-2.93-9.04-5.58-13.75-8.01c-1.09-0.56-3.24-0.37-4.14,0.39c-0.74,0.62-0.55,2.6-0.43,3.95
		C788.94,568.67,789.47,570.07,789.82,571.49z M812.22,587.75c-0.24-1.08-0.38-2.06-0.68-2.99c-1.12-3.48-4.04-4.28-6.17-1.38
		c-1.61,2.19-2.5,4.94-3.5,7.53c-0.19,0.48,0.46,1.69,1.01,1.95c0.55,0.27,1.49-0.16,2.22-0.4c1.28-0.43,3.29-1.72,3.68-1.33
		c5.72,5.63,5.69-1.73,8.05-3.89C815.36,587.4,813.88,587.57,812.22,587.75z M816.36,238.17c-1.93-1.72-3.59-3.41-3.73-3.3
		c-2.13,1.79-4.17,3.73-5.88,5.91c-0.19,0.24,1.76,2.16,2.71,3.31C811.54,242.3,813.62,240.52,816.36,238.17z"/>
	<path class="st0" d="M1199.04,670.46c-10.77-1.35-23.8-2.97-36.83-4.61c-5.61-0.71-11.24-1.33-16.82-2.21
		c-4.39-0.7-8.7-1.9-13.09-2.59c-2.68-0.42-5.47-0.03-8.16-0.42c-5.31-0.77-10.61-1.66-15.84-2.81c-3.4-0.75-6.71-1.94-9.99-3.13
		c-6.57-2.4-9.19-6.38-8.35-12.86c0.17-1.33,1.05-2.75,1.99-3.76c4.03-4.32,8.24-8.46,12.32-12.74c2.86-2.99,5.53-6.16,8.4-9.13
		c14.76-15.25,30.66-29.43,41.76-47.97c3.62-6.06,9.01-11.08,13.69-16.49c5.15-5.96,10.55-11.29,13.2-19.44
		c3.4-10.46,9.61-19.96,13.84-30.2c3.21-7.77,5.21-16.03,7.72-24.08c1.23-3.95,2.52-7.88,3.61-11.87c0.71-2.6,1.1-5.29,1.65-7.94
		c0.16-0.79,0.16-2.08,0.61-2.27c5.03-2.13,3.08-6.16,2.95-9.82c-0.17-5.16,1.57-10.31-1.55-15.45c-0.99-1.63,0.98-4.99,1.43-7.58
		c1-5.78-0.48-11.89,2.88-17.42c0.83-1.36-0.11-3.87-0.41-5.82c-1.06-6.96-2.48-13.87-3.2-20.86c-0.47-4.61,0.06-9.32,0.08-13.98
		c0-0.99,0.03-2.12-0.41-2.94c-7.16-13.14-6.12-29.35-15.6-41.6c-2.1-13.32-9.63-24.52-14.51-36.75c-0.89-2.24-3.21-4.14-5.27-5.63
		c-2.92-2.1-4.77-3.75-2.24-7.63c2.42-3.71,0.75-6.81-3.66-6.67c-5.29,0.17-7.44-2.85-9.86-6.77c-5.68-9.17-11.81-18.07-17.86-27.01
		c-0.8-1.18-2.09-2.54-3.37-2.81c-5.78-1.22-8.59-5.76-12.09-9.77c-5.89-6.73-12.33-12.97-18.2-19.72
		c-5.64-6.48-10.91-13.3-16.18-20.1c-0.6-0.77-0.59-2.86,0.02-3.56c1.95-2.2,4.38-3.97,6.51-6.03c2.28-2.21,4.52-3.1,8.01-2.58
		c2.81,0.41,6.15-0.94,8.89-2.27c3.25-1.58,5.98-2.24,9.36-0.23c1.3,0.78,4.78,0.57,5.2-0.25c3.06-5.95,8.33-5.25,13.48-5.09
		c1.82,0.05,3.74,0.02,5.44,0.57c4.19,1.35,7.4,1.41,9.88-3.27c0.79-1.5,4.27-2.07,6.57-2.18c7.59-0.36,15.54,1.6,22.52-2.56
		c5.39-3.22,10.45-3.6,16.09-1.12c1.6,0.7,3.64,0.88,5.4,0.66c13.5-1.72,25.05,3.65,36.47,9.67c5.43,2.86,10.9,5.69,16.48,8.25
		c11.12,5.09,18,14.37,22.95,24.77c4.79,10.08,7.96,20.93,11.81,31.45c1.07,2.91,3.53,6.33,2.78,8.69c-2,6.31,0.8,12.8-0.42,18.07
		c-1.59,6.84,0.42,12.51,0.54,18.71c0.44,21.98,0.11,43.98-0.06,65.97c-0.02,2.09-1.26,4.15-1.38,6.25c-0.18,3.15,0,6.34,0.3,9.49
		c0.25,2.6,1.39,5.19,1.29,7.75c-0.55,13.95-1.56,27.88-2,41.84c-0.17,5.43,0.53,10.92,1.17,16.34c0.89,7.47,1.58,14.76-0.97,22.18
		c-0.98,2.84-0.55,6.58,0.38,9.55c1.28,4.05,2.3,7.63-1.03,11.1c-0.55,0.57-1.12,1.49-1.06,2.2c0.34,4.53-0.02,9.39,1.57,13.47
		c1.34,3.44,1.43,6.07,0.52,9.45c-0.64,2.38,0.18,5.12,0.2,7.7c0.03,4.19-0.02,8.37-0.14,12.56c-0.14,5-0.41,9.99-0.58,14.99
		c-0.01,0.29,0.4,0.59,0.41,0.89c0.45,17.22,0.92,34.44,1.22,51.67c0.03,1.54-1.42,3.06-1.58,4.65c-0.24,2.32-0.72,5.13,0.29,6.95
		c1.81,3.24,1.56,5.66-0.15,8.78c-1.56,2.85-2.26,6.18-3.24,9.33c-1.35,4.35-2.31,8.85-3.99,13.06c-2.45,6.13-5.72,11.94-8.05,18.11
		c-4.9,12.94-14.73,20.06-27.24,24.37c-3.28,1.13-6.64,2.29-9.61,4.04c-9.18,5.41-19.22,7.08-29.63,7.49
		C1211.32,669.74,1206.33,670.07,1199.04,670.46z M1283.98,233.93c2.54-11.07-2.73-18.1-5.36-25.88
		c-3.79-11.24-10.31-20.04-19.74-27.29c-14.27-10.97-30.33-16.56-48.03-17.05c-10.99-0.31-21.84,1.86-32.22,5.8
		c-4.78,1.81-9.38,3.1-14.27-0.05c-2.85-1.84-3.7,0.8-4.32,2.95c-0.78,2.7-1.21,5.53-2.26,8.11c-0.45,1.11-1.97,2.21-3.19,2.51
		c-2.67,0.65-5.46,0.78-8.2,1.12c0.87,2.71,1.74,5.43,2.61,8.14c0.1,0.32,0.17,0.65,0.33,0.94c3.35,6.34-0.57,12.38-0.69,18.56
		c-0.04,2.02,0.78,4.29,1.86,6.03c2.3,3.71,5.33,6.99,7.54,10.75c7.3,12.42,12.85,25.95,23.8,36c1.11,1.02,1.68,3.71,1.17,5.16
		c-1.04,2.95-0.28,4.56,2.41,5.41c4.15,1.32,5.77,4.43,7.1,8.29c1.04,3.03,3.31,5.62,4.85,8.5c1.58,2.96,3.09,5.97,4.34,9.08
		c1.64,4.08,2.74,8.39,4.55,12.38c1.69,3.72,4.17,7.08,6,10.74c2.05,4.11,3.49,8.53,5.68,12.55c3.69,6.77,7.29,13.33,5.7,21.61
		c-0.49,2.56,0.03,6.19,1.59,8.11c5,6.17,4.67,13.09,4.7,20.3c0.01,3.74,1.33,7.61,2.72,11.17c2.06,5.26,4.22,9.92-0.79,15.12
		c-1.61,1.67-1.7,6.12-0.73,8.61c1.18,3.03,0.75,4.97-0.33,7.81c-1.83,4.81-3.86,10.14-3.38,15.02c0.34,3.44,0.39,6.26-0.76,9.39
		c-1.02,2.75-1.88,5.6-2.48,8.47c-2.04,9.87-2.69,20.22-9.03,28.64c-4.8,6.38-8.4,12.87-8.67,21.25c-0.11,3.44-1.88,8.5-6.92,8.13
		c-3.31-0.24-3.32,1.2-4.16,3.33c-4.26,10.91-8.12,22.06-13.36,32.49c-3.14,6.25-9.19,10.97-12.84,17.03
		c-7.26,12.04-13.58,24.63-20.68,36.77c-2.56,4.39-3.1,8.55-1.92,13.31c0.86,3.48,1.01,7.15,2.1,10.54c0.67,2.08,2.12,4.39,3.9,5.5
		c2.47,1.53,5.57,2.08,8.42,2.96c15.84,4.88,31.67,9.76,47.53,14.57c3.78,1.14,7.65,2.82,11.47,2.8
		c11.57-0.07,22.3-2.71,30.86-11.52c2.22-2.29,5.95-3.06,8.9-4.69c2.53-1.4,5.83-2.44,7.24-4.64c5.29-8.24,12.17-15.69,13.58-26.07
		c0.66-4.87,2.61-9.56,3.5-14.42c1.26-6.92,2.06-13.91,3.09-20.87c0.07-0.48,0.27-0.97,0.52-1.4c3.69-6.42,2.21-13.33,1.59-20.01
		c-1.28-13.69-3.37-27.31-4.43-41.01c-0.68-8.78,0.34-17.68-0.25-26.47c-0.39-5.87-3.09-11.6-3.31-17.45
		c-0.42-10.8,0.27-21.63,0.39-32.45c0.04-3.74-0.07-7.5-0.44-11.22c-0.46-4.56-1.86-9.11-1.72-13.62c0.12-4.06,2.03-8.04,2.65-12.13
		c0.26-1.71-0.19-4.26-1.34-5.3c-2.69-2.43-2.02-4.3-0.5-6.94c2.42-4.19,4.31-8.35,1.18-13.44c-3.75-6.11-2.39-12.4,0.89-18.49
		c0.74-1.37,1.05-3.78,0.33-4.98c-2.76-4.62-1.97-8.61,0.43-13.12c2.36-4.43,5.76-9.11,3.26-14.52c-3.43-7.43-3.23-14.56-0.34-22.11
		c1.04-2.72,1.34-6.81,0.01-9.15c-4.26-7.47-0.31-14.87,2.3-20.1c3.51-7.03,1.48-12.3,0.19-18.38
		C1286.96,247.4,1285.24,239.71,1283.98,233.93z"/>
	<path class="st0" d="M1052.32,959.06c0-6.16-0.09-12.33,0.02-18.49c0.14-7.48-2.83-13.89-8-18.72
		c-9.71-9.05-19.75-17.78-30.17-26.01c-12.31-9.73-23.35-20.66-30.18-34.73c-3.59-7.38-5.36-16.13-5.89-24.4
		c-0.93-14.44-0.65-28.99-0.17-43.47c0.6-18.01,7.19-33.2,24.02-41.81c6.12-3.13,13.02-5.41,19.81-6.4
		c19.29-2.82,37.44,0.65,53.4,12.56c9.84,7.34,13.15,18.06,15.93,29.46c3.01,12.35,2.81,24.73,2.66,37.19
		c-0.12,10.35-5.92,16.5-16.13,17.08c-4.15,0.24-8.34,0.35-12.48,0.08c-7.97-0.52-12.37-5.3-12.51-13.29
		c-0.18-10.16-0.14-20.33-0.46-30.48c-0.24-7.35-5.03-11.93-12.35-12.21c-3.66-0.14-7.33-0.21-10.99-0.05
		c-7.95,0.35-12.95,5.28-13.18,13.23c-0.3,10.46-0.46,20.94-0.44,31.41c0.01,6.04,3.14,10.82,7.39,14.76
		c13.79,12.8,27.3,25.93,41.65,38.07c11.75,9.95,20.88,21.46,25.86,35.92c2.07,6.02,3.33,12.54,3.63,18.9
		c0.55,11.64,0.05,23.32,0.11,34.98c0.03,5.83,0.39,11.61-3.43,16.7c-1.01,1.35-1.52,3.43-1.49,5.17
		c0.25,17.57-10.22,27.5-24.8,33.92c-11.66,5.14-24.18,8.87-36.87,5.93c-11.2-2.59-22.41-6.41-32.63-11.62
		c-8.33-4.25-11.02-14.03-14.93-22.28c-4.98-10.53-1.08-21.38-1.67-32.05c-0.43-7.85,0.35-15.92,1.85-23.64
		c0.54-2.76,4.59-6.48,7.39-6.81c6.79-0.79,14.02-0.86,20.61,0.7c5.87,1.39,6.65,7.75,6.92,13.15c0.44,8.97-0.38,18.11,1.03,26.91
		c2.11,13.2,6.52,16.64,17.89,15.26c16.09-1.95,18.53-4.21,18.86-20.46c0.1-4.83,0.01-9.66,0.01-14.5
		C1052.49,959.06,1052.4,959.06,1052.32,959.06z"/>
	<path class="st0" d="M863.91,889.72c0-42.81,0.1-85.62-0.09-128.44c-0.03-7.64,2.71-12.25,11.71-12.14
		c28.8,0.35,57.6,0.18,86.4,0.19c4.61,0,7.39,1.91,8.45,6.66c1.91,8.56,1.59,17.13-1.6,25.04c-1.29,3.2-5.69,6.11-9.26,7.18
		c-4.64,1.4-9.88,1.04-14.86,1.07c-10.15,0.07-20.3-0.17-30.45-0.17c-6.48,0-8.74,2.23-8.75,8.72c-0.05,21.66-0.05,43.31-0.01,64.97
		c0.01,6.7,2,8.72,8.61,8.73c12.16,0.03,24.34,0.33,36.47-0.23c7.35-0.34,11.46,3.02,12.08,11.33c0.49,6.53-0.9,13.24-1.85,19.81
		c-0.59,4.05-3.84,5.01-7.5,5c-12.66-0.04-25.32-0.05-37.98-0.03c-8.37,0.01-9.84,1.5-9.85,9.96c-0.02,20.82-0.02,41.65,0,62.47
		c0.01,8.01,1.85,9.79,10.1,9.9c13.48,0.18,26.98,0.14,40.45,0.63c8.3,0.3,12.72,4.14,13.75,12.27c0.82,6.53,0.53,13.22,0.4,19.84
		c-0.1,5.2-3.29,7.12-8.29,7.03c-6.49-0.12-12.99,0.1-19.49,0.11c-21.99,0.02-43.98-0.13-65.97,0.06
		c-10.17,0.09-12.59-2.59-12.55-12.53C863.99,974.68,863.91,932.2,863.91,889.72z"/>
	<path class="st0" d="M750.61,885.37c0-40.32,0-80.64,0.01-120.96c0-2.67,0.06-5.33,0.12-8c0.1-4.45,2.5-6.75,6.83-6.97
		c6.32-0.33,12.64-0.75,18.96-0.72c23.32,0.11,46.64,0.36,69.95,0.6c7.98,0.08,9.86,1.87,9.95,9.67c0.06,5.66,0.11,11.34-0.33,16.98
		c-0.52,6.75-5.82,12.34-12.6,12.6c-13.47,0.51-26.97,0.46-40.46,0.54c-9.77,0.06-12.46,2.66-12.46,12.46
		c0,19.31-0.01,38.62,0,57.92c0.01,9.49,2.67,12.08,12.25,12.08c11.83,0,23.66-0.05,35.49,0.03c7.16,0.05,9.2,2.14,9.3,9.27
		c0.08,5.66,0.11,11.33,0.04,16.99c-0.09,7.27-2.22,9.46-9.66,9.56c-11.16,0.15-22.33,0.1-33.49,0.16
		c-14.27,0.08-12.1,2.14-12.24,11.39c-0.5,31.3-0.98,62.61-1.54,93.91c-0.07,3.81-0.51,7.62-0.93,11.42
		c-0.37,3.34-2.52,5.04-5.75,5.11c-8.48,0.19-16.97,0.58-25.44,0.23c-6.57-0.27-7.85-1.86-7.88-8.36
		c-0.12-27.98-0.11-55.95-0.13-83.93C750.6,920.02,750.61,902.7,750.61,885.37z"/>
	<path class="st0" d="M1177.51,909.44c0,26.49,0.05,52.98-0.03,79.47c-0.03,9.83-0.28,19.65-0.56,29.48
		c-0.26,8.99-2.39,11.07-11.47,11.19c-5.49,0.07-11.01,0.08-16.49-0.28c-6.96-0.45-11.66-5.13-12.38-12.07
		c-0.34-3.31-0.42-6.65-0.42-9.98c-0.02-67.32-0.02-134.65-0.02-201.97c0-2.33,0.05-4.67-0.05-7c-0.24-6.2-3.25-9.12-9.38-9.14
		c-4.5-0.02-9.01,0.26-13.49-0.02c-7.48-0.47-11.48-4.16-11.76-11.52c-0.31-8.14,0.14-16.31,0.22-24.47
		c0.03-3.12,2.13-3.23,4.45-3.31c8.82-0.32,17.64-1.04,26.46-1.02c24.99,0.04,49.97,0.28,74.96,0.66c7.35,0.11,8.14,1.23,8.26,8.71
		c0.09,5.5,0.16,11,0.01,16.5c-0.2,7.32-5.56,13.41-12.85,14.1c-5.28,0.51-10.64,0.39-15.96,0.24c-6.45-0.18-8.77,1.53-9.61,8
		c-0.34,2.63-0.42,5.31-0.42,7.97c-0.03,34.83-0.02,69.66-0.02,104.49C1177.16,909.44,1177.33,909.44,1177.51,909.44z"/>
	<path class="st0" d="M76.48,895.8c-0.52-0.35-0.78-0.44-0.78-0.53c0.02-6.06,0.33-12.14,0.02-18.18
		c-0.35-6.95,3.56-11.16,8.05-15.68c3.62-3.64,6.01-8.5,8.93-12.83c0.91-1.35,1.55-2.97,2.7-4.07c3.91-3.75,7.05-7.81,8.28-13.32
		c0.32-1.42,2.55-2.62,4.14-3.45c0.57-0.3,2.74,0.95,2.69,1.2c-0.33,1.66-0.91,3.32-1.7,4.82c-2.99,5.69-6.01,11.38-9.2,16.97
		c-1.63,2.85-3.12,6.12-5.57,8.08c-7.53,5.99-10.32,13.57-9.14,22.85c0.79,6.18-1.66,10.64-6.92,13.71
		C77.57,895.6,77.05,895.64,76.48,895.8z"/>
	<path class="st0" d="M297.49,755.07c-12.46,1.43-24.93,2.77-37.37,4.33c-5.03,0.63-10.01,1.74-15.01,2.63
		c-1.47,0.26-2.99,0.85-4.4,0.66c-1-0.13-1.85-1.32-2.77-2.04c0.79-0.67,1.47-1.63,2.38-1.96c4.5-1.6,9.08-2.98,13.6-4.55
		c3.74-1.29,7.13-1.68,10.97,0.46c2.13,1.19,5.35,0.88,7.99,0.53c2.23-0.3,4.6-1.26,6.44-2.58
		C285.73,747.94,291.58,749.24,297.49,755.07z"/>
	<path class="st0" d="M194.76,772.31c-8.13,4.24-16.25,8.5-24.39,12.72c-6.71,3.48-13.47,6.88-20.16,10.41
		c-4.19,2.21-8.28,4.6-12.56,6.98c-1.5-4.54-1.08-5.65,2.71-5.75c5.15-0.14,8.39-2.46,10.44-7c0.36-0.79,1.25-1.73,2.03-1.88
		c12.97-2.61,23.7-10.06,35.11-16.04c1.77-0.93,3.84-1.29,5.77-1.92C194.05,770.67,194.4,771.49,194.76,772.31z"/>
	<path class="st0" d="M132.06,808.93c-1.46,2.03-2.66,4.33-4.45,6.02c-3,2.83-6.31,5.34-9.62,7.8c-0.89,0.66-2.28,0.64-3.45,0.94
		c-0.02-1.08-0.38-2.3,0-3.21c3.04-7.21,9.64-9.83,15.88-12.89C130.97,808.03,131.51,808.48,132.06,808.93z"/>
	<path class="st0" d="M204.62,766.25c6.93-1.43,13.83-2.98,20.8-4.16c1.01-0.17,2.32,1.4,3.49,2.16c-1.04,1.09-2.04,3.08-3.12,3.12
		c-7.02,0.28-14.06,0.15-21.09,0.15C204.67,767.1,204.64,766.68,204.62,766.25z"/>
	<path class="st0" d="M61.46,920.13c5.46-3.98,10.02-7.3,14.85-10.82c0.46,5.62-3.43,10.05-6.38,15.36
		C67.22,923.22,64.94,922,61.46,920.13z"/>
	<path class="st0" d="M324.19,753.48c-5.28,0-10.07,0-14.42,0C318.35,748.18,320.31,748.04,324.19,753.48z"/>
	<path class="st0" d="M1219.79,608.49c-2.69-4.17-5.64-7.11-6.55-10.59c-1.04-4.01-1.47-8.94-0.06-12.68
		c3.38-8.95,12.1-13.33,19.1-19.05c0.95-0.78,4.46-0.29,5.03,0.66c1.79,2.97,3.07,6.37,3.93,9.75c1.01,3.98,1.71,8.12,1.89,12.21
		c0.09,2.01-0.97,4.29-2.1,6.07c-1.67,2.62-4.05,4.79-5.82,7.37C1231.3,607.87,1228.67,608.95,1219.79,608.49z M1231.02,600.66
		c-0.03-0.53-0.06-1.07-0.09-1.6c-1.47-0.64-3.07-1.99-4.38-1.75c-1.54,0.29-2.82,1.95-4.22,3.02c1.31,1.02,2.63,2.87,3.92,2.84
		C1227.86,603.15,1229.43,601.57,1231.02,600.66z"/>
	<path class="st0" d="M1217.54,215.65c1.66,3.11,2.78,5.54,4.24,7.75c0.49,0.73,1.84,0.89,2.79,1.32c0.19-1.04,0.88-2.37,0.48-3.05
		c-1.59-2.72-0.3-4.54,2-4.88c1.63-0.24,4.09,0.81,5.19,2.12c2.73,3.25,5.07,6.87,7.22,10.54c1.37,2.35,3.13,5.16,2.91,7.61
		c-0.53,6.02-1.87,12-3.42,17.86c-0.42,1.59-3.54,4.06-4.02,3.77c-1.95-1.17-4.62-3.18-4.71-5c-0.18-3.69-2.14-5.01-4.75-6.72
		c-5.21-3.4-8.81-7.51-7.58-14.79c0.75-4.43-0.68-9.22-1.04-13.85C1216.81,217.61,1217.22,216.85,1217.54,215.65z"/>
</g>
</svg>
