<?xml version="1.0" encoding="utf-8"?>
<!-- Generator: Adobe Illustrator 24.0.1, SVG Export Plug-In . SVG Version: 6.00 Build 0)  -->
<svg version="1.1" id="Layer_1" xmlns="http://www.w3.org/2000/svg" xmlns:xlink="http://www.w3.org/1999/xlink" x="0px" y="0px"
	 viewBox="0 0 587 457" style="enable-background:new 0 0 587 457;" xml:space="preserve">
<style type="text/css">
	.st0{fill:#DD2C64;}
	.st1{fill:#FFFFFF;}
	.st2{fill:#DD2C64;stroke:#FFFFFF;stroke-width:19;stroke-linejoin:round;stroke-miterlimit:10;}
</style>
<g>
	<path class="st0" d="M579.77,65.14c-1.67-4.73-4.57-8.95-8.72-12.65c-3.77-3.07-8.53-5.38-14.34-6.87l-4.45-0.78l-4.74,0.32h-1.03
		c-6.06,1.09-11.22,3.27-15.6,6.33c-3.92,3.02-7.16,7.12-9.55,12.3c-2.16,5.11-3.03,11.19-2.71,18.31c1.2,7.58,4.14,13.82,8.6,18.54
		c4.45,4.76,10.51,7.85,18.25,9.04c6.64,0.46,12.5-0.34,17.78-2.36c5.06-2.33,9.05-5.58,11.88-9.74c3.05-4.3,5.23-9.28,6.42-14.89
		C582.29,75.85,581.7,70.06,579.77,65.14z M574.49,83.46c-0.78,3.07-1.4,5.54-2.99,7.96c0,0-0.39,0.65-0.26,0.58
		c-0.12,0.07-0.63,0.95-0.63,0.95c-0.39,0.27-0.27,0.32-0.56,0.42c-1.01,1.9-2.72,3.2-5.36,5.34c-2.49,1.62-5.35,2.83-8.67,3.63
		c-3.06,0.88-6.24,1.15-9.65,0.67c-3.06-0.13-6.09-1.22-9.05-3.19c-2.62-1.24-4.97-3.15-7-5.8c-1.72-2.54-3.11-5.55-4.08-9.1
		c-0.91-3.29-1.11-6.8-0.71-10.6c0.2-3.47,1.32-6.75,3.26-9.84c0.03-0.11,0.06-0.17,0.09-0.24c1.68-2.65,5.72-6.8,8.46-8.75
		c2.68-1.63,5.89-2.87,9.68-3.62c5.22-0.37,9.83,0.35,13.75,2.12c4.15,1.87,7.28,4.41,9.18,7.54c2.23,3.02,3.8,6.81,4.82,11.24
		C575.42,76.73,575.29,80.26,574.49,83.46z"/>
	<path class="st1" d="M203.94,31.13v0.02l0,0 M287.57,0.16c-1.06-0.14-2.12-0.14-3.22,0l-0.49,0.04l-0.49,0.1
		c-0.75,0.12-1.44,0.31-2.13,0.59c-0.36-0.09-0.75-0.13-1.14-0.21l-0.39-0.04l-0.36-0.04c-2.48-0.18-4.69-0.15-6.98,0.04l-0.31,0.04
		c-1.57,0.09-3.37,0.16-5.05,0.33c-0.87,0.04-2.09,0.1-3.49,0.46c-2.35,0.47-4.17,1.47-5.5,2.27l-0.23,0.14l-0.17,0.13
		c-0.29,0.18-0.49,0.38-0.74,0.55c-6.33-0.17-17.13-0.12-24.25,1.92c-6.77,2.07-10.11,4.96-12.79,7.28
		c-0.71,0.62-1.5,1.31-2.47,2.05c-5.61,3.67-9.43,8.64-12.12,12.94l3.46-6.88l-0.17-0.09l-0.14-0.07
		c-3.47-1.67-7.09-2.86-11.13-3.64l-2.22-0.39l-2.21,0.51c-4.58,1.14-9.45,2.46-15.41,4.13c-5.71,1.64-10.78,3.67-15.68,6.19
		c-2.32,1.17-4.52,2.63-6.56,4.2c-1.28-0.87-2.71-1.75-4.32-2.54L150.58,30l-0.29-0.15c-2.92-1.25-5.91-2.16-8.95-2.62
		c-0.77-0.12-1.51-0.21-2.22-0.29c-2.69-0.33-5.4-0.18-8.23,0.35c-2.82,0.5-5.52,1.52-7.91,3.05c-6.01,0.97-11.27,3.2-15.65,6.54
		c-3.67,2.65-6.61,6.11-8.83,10.32c-2-0.79-4.07-1.28-6.23-1.46c-0.38-0.05-0.74-0.09-1.1-0.09c-2.9-0.17-5.65-0.09-8.5,0.32
		l-3.01,0.48l-3.5,0.48c-6.47,0.97-11.82,3.59-15.86,7.8c-1.33,1.32-2.51,2.75-3.57,4.3c-0.1-0.03-0.24-0.03-0.34-0.07
		c-0.95-0.18-2-0.33-3-0.44c-3.02-0.32-6.32-0.25-9.82,0.14l-0.29,0.06l-0.31,0.05c-2.2,0.38-5.39,1.04-8.66,2.26
		c-0.96,0.36-1.93,0.71-2.95,1.06c-1.08,0.39-2.18,0.76-3.26,1.14c-3.21,1.11-5.99,3-8.27,5.62c-1.82,2.03-3.34,4.51-4.39,7.32
		l-0.17,0.43L15.15,77c-1.64,5.76-2.84,12.1-3.65,19.4c-0.7,7.25-1.16,13.84-1.44,20.32c-0.17,5.92-0.48,12.06-1.01,18.88
		c-0.09,0.61-0.15,1.21-0.2,1.81c-0.17,1.19-0.16,2.53,0.2,4.05l-0.09,0.06c-1.85,2.56-3.04,5.2-3.55,8.21l-0.09,0.41l-0.06,0.43
		c-1.34,14.04-2.8,27.4-4.02,38.62l-0.07,0.46v0.44c-0.26,11.85-0.58,23.38-0.91,35.01l-0.52,20.64l-0.04,1.23l0.27,1.2
		c1.74,7.95,3.26,13.67,5.12,19.09c2.29,6.79,4.39,12.26,6.61,17.31c2.55,6.28,6.44,12.19,11.72,17.78
		c5.01,5.2,10.72,9.55,17.54,13.34c7.05,3.78,14.06,6.29,21.61,7.79c2.57,0.6,5.34,1.05,8.01,1.3c5.09,0.51,10.2,0.46,15.66-0.05
		c8.04-0.75,16.02-3.03,24.23-6.9l1.15-0.55l0.97-0.72c2.49-2.09,5.02-4.07,7.83-6.25c3.12-2.32,6.08-4.89,8.52-7.05l0.21-0.19
		l0.2-0.17c0.1-0.11,0.2-0.19,0.33-0.36c1.65,1.1,3.42,2.1,5.28,3.01c5.23,2.69,10.92,4.67,17.25,6.04
		c2.99,0.67,6.06,1.14,9.26,1.49c3.17,0.32,6.34,0.45,9.71,0.38c6.1,0.02,12.18-0.64,18.47-2c5.89-1.2,11.36-3.16,17.05-6.17
		c2.38-1.33,4.56-2.75,6.48-4.26c1.43,0.86,2.93,1.66,4.49,2.42c5.39,2.47,10.31,4.01,15.68,4.95c1.87,0.39,3.99,0.67,6.05,0.89
		c3.3,0.34,6.67,0.42,10.04,0.3c5.72-0.27,10.99-1.14,16.07-2.74c3.56-1.08,6.76-2.47,9.67-4.18c0.82,0.23,1.65,0.47,2.44,0.76
		l0.26,0.07l0.29,0.09c2.56,0.64,5.3,1.35,8.47,1.99l2.07,0.39l2.11-0.41l12.09-2.53l4.57-0.95c0.07,0.02,0.09,0.05,0.11,0.05
		c1.64,0.58,3.25,1.13,4.92,1.66l0.16,0.06l0.16,0.05c1.79,0.58,3.43,0.88,4.95,1.05c1.16,0.11,2.3,0.11,3.38,0.02l0.38-0.02
		l0.32-0.08l0.97-0.13c2.35-0.39,5.01-0.82,7.79-1.42c2.42-0.43,4.77-0.69,7.78-1.04c1.73-0.08,3.34-0.05,4.89,0.13
		c0.66,0.05,1.29,0.13,1.94,0.26l0.89,0.17l0.87-0.05c2,0,4.3-0.36,7.01-1.13l0.19-0.07l0.18-0.07c1.59-0.48,3.16-0.93,5.12-1.44
		c0.36-0.05,0.57-0.06,0.74-0.08c2.88,0.77,5.61,1.27,8.45,1.55l0.94,0.11c3.45,0.27,6.95,0.27,10.72,0.04
		c4.09-0.29,7.8-0.99,10.88-1.57l0.23-0.07l0.17-0.02c2.58-0.61,4.99-1.37,7.43-2.31c0.41,0.06,0.84,0.13,1.35,0.15
		c3.62,0.41,7.09,0.36,10.48,0.36c1.37,0,2.75,0.03,4.13,0.05c4.26,0.19,8.53-0.24,12.57-0.58c2.13-0.2,4.26-0.39,6.51-0.53
		c5.35-0.35,9.57-0.57,12.96-0.77c2.58-0.14,4.66-0.27,6.38-0.4c5.91-0.42,11.6-0.64,17.58-0.82l1.17-0.07
		c0.72,0,1.39,0.07,2.07,0.13c2.2,0.18,4.92,0.39,7.98-0.18c0.55-0.14,1.37-0.15,2.11-0.19c1.63-0.05,3.62-0.14,5.94-0.69
		c2-0.37,3.91-0.67,5.89-0.86l0.5,0.11c0.58,0.15,1.16,0.23,1.75,0.32c1.3,0.13,2.41,0.07,3.18-0.04c0.61,0.12,1.12,0.24,1.71,0.25
		c1.19,0.13,2.34,0.11,3.46-0.06l8.71-1.17l6.04-0.81l0.66-0.07l0.65-0.21c3.19-0.84,6.13-2.45,8.74-4.75
		c2.44-2.21,4.27-4.78,5.69-8.03l0.09-0.21l0.09-0.22c1.22-3.14,1.79-6.45,1.67-9.85c-0.49-11.33-1.35-22.88-2.74-37.42l-0.09-0.78
		c-1.35-12.16-2.6-23.61-4.25-35.59l-0.04-0.64l-0.21-0.63c-0.09-0.32-0.16-0.62-0.21-0.95c-0.27-1.23-0.58-2.95-1.33-4.76
		l-0.12-0.21l-0.14-0.21l-0.13-0.3c-0.38-0.88-0.96-2.3-2.32-3.92c1.31-2.47,2.47-5.12,3.51-7.96c2.07-5.9,3.42-11.63,4.24-17.7
		c0.85-5.91,1.07-12.21,0.58-18.53c-0.3-6.38-1.26-12.35-2.96-18.11c-1.59-5.94-4.02-11.43-7.1-16.08
		c-3.22-5.13-7.46-9.32-12.45-12.45l-0.82-0.49l-0.86-0.36L313.64,13.1L293.11,1.86C291.22,0.86,289.43,0.36,287.57,0.16
		L287.57,0.16z"/>
	<path class="st0" d="M526.02,232.14c-1.33-12.25-2.62-23.87-4.26-35.89c-0.36-1.44-0.54-3.03-1.05-4.28
		c-0.56-1.1-0.61-1.63-1.48-2.53c-0.8-1-1.66-1.84-2.51-2.61c-0.78-0.82-1.4-1.51-1.8-2.23c0,0-0.24-0.19-0.46-0.27
		c2.83-3.7,5.06-7.89,6.85-12.74c1.64-4.81,2.9-9.92,3.63-15.43c0.78-5.48,0.95-11.03,0.54-16.53c-0.21-5.54-1.03-10.8-2.55-15.81
		c-1.37-5.06-3.32-9.57-5.88-13.38c-2.46-3.95-5.6-7.06-9.23-9.26L309.15,22.55L288.11,11c-0.89-0.42-1.78-0.58-2.73-0.47
		c-1.08,0.19-1.89,0.75-2.57,1.82c-1.14-0.66-2.57-1.11-4.2-1.32c-1.75-0.15-3.48-0.15-5.46,0.04c-1.86,0.1-3.84,0.18-5.58,0.4
		c-0.57,0-1.13-0.02-1.79,0.21c-0.73,0.08-1.39,0.42-2.29,0.97c-0.76,0.5-1.5,1.42-2.29,2.59c-6.96-0.52-19.46-0.52-25.72,1.29
		c-6.23,1.92-7.59,4.47-12.1,7.83c-5.2,3.34-8.65,8.58-11.03,12.98c-3.38-2.84-9.11-6.5-8.4-6.17c-2.73-1.37-5.54-2.24-8.62-2.81
		c-5.12,1.25-10.14,2.66-15.07,3.99c-5.02,1.49-9.54,3.32-13.7,5.46c-4.17,2.16-7.59,5.07-10.37,8.53
		c-0.31,0.53-0.53,1.22-0.66,1.96c-0.1,0.75-0.23,1.28-0.44,1.61c-0.11,0.33-0.55,0.24-1.11-0.42c-0.29-0.46-0.63-1.13-0.83-1.9
		c-0.1-0.77-0.33-1.5-0.66-2.4c-0.21-0.76-0.63-1.51-1.35-2.28c-1.31-1.32-3.05-2.46-5-3.46c-2.06-0.92-4.26-1.58-6.55-1.91
		c-2.39-0.46-4.58-0.37-6.77,0.04c-2.29,0.4-4.25,1.37-5.89,2.77c-5.27,0.52-9.76,2.1-13.37,4.9c-3.74,2.7-6.41,6.82-8.02,12.17
		c0.34,1.66,0.89,3.27,1.61,5.16c0.73,1.72,1.61,3.72,2.46,5.66c0.94,1.98,1.71,4.05,2.33,6.06c-1.1,1.05-2.32,2.12-3.72,2.96
		c-1.51,1-2.96,1.87-4.51,2.73c0.12-1.76,0.05-3.48-0.36-5.15c-0.43-1.63-0.75-3.31-0.84-5.12c-0.2-2.5-0.71-4.93-1.68-7.14
		c-0.97-2.17-2.48-3.83-4.42-4.95c-1.88-1-3.83-1.47-5.9-1.57c-2.14-0.14-4.27-0.07-6.42,0.25c-2.1,0.32-4.28,0.63-6.35,0.95
		c-4.03,0.59-7.46,2.12-9.97,4.8c-2.69,2.6-4.54,5.86-5.47,9.99c-2.18-1.32-4.78-2.32-7.73-2.76c-2.93-0.63-6.23-0.66-9.79-0.24
		c-2.32,0.41-4.62,0.95-6.79,1.78c-2.08,0.76-4.29,1.5-6.37,2.26c-1.54,0.53-2.85,1.38-3.94,2.68c-1.12,1.15-1.9,2.6-2.47,4.12
		c-1.57,5.43-2.61,11.19-3.3,17.66c-0.62,6.29-1.13,12.85-1.41,19.64c-0.18,6.68-0.58,13.21-1.06,19.66
		c-0.13,0.75-0.17,1.24-0.21,2.12c-0.15,0.24,1.35,1.95,2.26,2.79c0.45,0.22,1.64,0.68,2.08,0.88c-0.79,0.68-1.72,1.4-2.9,2.18
		c-1.26,0.9-2.29,1.82-3.33,2.91c-0.89,1.21-1.4,2.39-1.69,3.8c-1.25,13.08-2.6,25.64-4.03,38.78c-0.44,18.74-0.97,36.75-1.43,55.64
		c1.4,6.41,2.8,12.25,4.76,17.92c1.97,5.76,3.96,11.18,6.33,16.51c2.18,5.41,5.41,10.18,9.75,14.77c4.23,4.41,9.16,8.13,15.02,11.4
		c5.81,3.12,11.84,5.31,18.58,6.7c6.76,1.44,13.34,1.81,20.55,1.05c7.13-0.64,13.9-2.63,20.86-5.93c2.57-2.06,5.16-4.08,7.96-6.32
		c2.85-2.06,5.42-4.25,8.05-6.64c2.43-2.38,4.51-4.92,6.39-7.81c2.91,3.5,6.5,6.3,11.11,8.53c4.52,2.34,9.4,4.05,14.84,5.21
		c5.4,1.25,10.85,1.76,16.66,1.68c5.67,0,11-0.61,16.36-1.79c5.49-1.12,10.06-2.87,14.48-5.22c4.35-2.4,7.72-5.27,10.47-8.89
		c2.7,2.73,5.9,4.99,9.86,6.89c4.08,1.89,8.2,3.29,12.89,4.08c4.65,0.89,9.24,1.25,13.95,1.04c4.76-0.24,9.15-0.96,13.42-2.25
		c4.17-1.32,7.78-3.09,10.92-5.66c2.57,0.75,5.01,1.4,7.43,2.22c2.59,0.67,5.11,1.35,7.9,1.9c6.29-1.32,12.28-2.59,18.6-3.87
		c0.92,0,1.94,0.21,3.62,0.78c1.63,0.54,3.25,1.08,4.92,1.63c1.85,0.58,3.25,0.79,4.38,0.71c2.68-0.46,5.42-0.89,8.34-1.51
		c3.02-0.58,5.86-0.83,9.02-1.2c3.11-0.2,6.17-0.11,9.43,0.5c0.91,0,2.26-0.2,4.18-0.74c2.01-0.68,3.91-1.2,6.07-1.79
		c2.07-0.38,3.92-0.51,5.35-0.06c2.36,0.67,4.91,1.19,7.93,1.44c2.82,0.24,5.82,0.24,9.18,0.05c3.24-0.22,6.21-0.75,9.45-1.4
		c3.08-0.75,5.88-1.73,8.68-2.9c5.64,1.07,11.3,0.75,17.41,0.88c6.01,0.19,11.96-0.8,18.33-1.1c9.14-0.58,15.24-0.92,19.16-1.22
		c6.54-0.46,12.67-0.65,19.34-0.84c2.89,0.02,5.54,0.6,8.24,0.07c2.59-0.5,5.11-0.16,7.81-0.8c2.64-0.52,5.41-0.94,8.52-1.16
		c0.55,0.02,1.27,0.24,2.42,0.48c1.17,0.3,2.37-0.31,3.61-0.07c1.18,0.37,2.04,0.45,2.63,0.33c4.97-0.67,9.79-1.29,14.85-1.95
		c1.65-0.42,3.13-1.3,4.51-2.51c1.32-1.23,2.33-2.7,3.08-4.43c0.7-1.76,1.02-3.7,0.91-5.67
		C528.18,256.46,527.21,244.61,526.02,232.14z"/>
	<g>
		<path class="st1" d="M197.89,43.36c-0.45-0.77-1.08-1.4-1.7-2.07c-0.89-0.77-1.78-1.1-2.72-1.11c-0.97,0-2.09,0.1-3.19,0.42
			c-1.09,0.32-2.05,0.61-3.22,0.84c-0.08,0.11-0.4,0.3-0.69,0.74c-0.46,0.44-0.91,0.89-1.35,1.19c-0.33,0.45-0.79,0.66-1.1,0.78
			c-4.49,0.04-8.4,0.74-11.63,2.16c-3.25,1.4-5.57,3.21-6.92,5.4l-3.29,93.95c0.11,0.24,0.44,0.68,1,1.09
			c0.63,0.59,1.27,1.03,1.92,1.47c0.66,0.36,1.09,0.57,1.31,0.57c2.85-0.42,5.61-0.64,8.41-0.58c2.75,0.04,5.57,0.04,8.2,0.19
			c2.74,0.23,5.22,0.23,7.62,0.29c1.1-0.09,1.9-0.51,2.63-1.51c0.68-0.88,1.14-1.96,1.48-3.17c0.32-1.17,0.45-2.4,0.45-3.44
			c-0.45-10.5-0.47-20.78-0.28-30.83c0.23-10.02,0.69-20.17,1.41-30.44c0.76-10.34,1.86-21.05,3.08-32.29
			c0.07-0.2-0.02-0.71-0.34-1.41C198.76,44.92,198.41,44.25,197.89,43.36z"/>
		<path class="st1" d="M321.45,81.26c-0.31-2.87-0.83-5.68-1.33-8.4c-0.64-2.65-1.17-5.31-1.69-7.99c-0.07-0.87,0.02-1.77,0.11-2.4
			c0.38-0.57,0.56-1.12,0.79-1.65c0.13-0.47,0.22-0.77,0.04-1.1c-0.94-1.54-2.01-2.76-3.39-3.95c-1.16-1.14-2.24-2.44-3.12-3.83
			c-1.81-3.42-4.06-6.18-6.88-8.27c-2.84-2.22-5.98-4.01-9.36-5.46c-0.96-0.46-1.4-1.09-1.4-1.76c0.12-0.79,0.35-1.51,0.67-2.3
			c0.35-0.75,0.5-1.28,0.26-1.86c-0.54-0.99-1.42-1.65-2.51-1.98c-1.2-0.2-2.26-0.55-3.24-0.68c-1.1-0.25-1.87-0.58-2.18-1.13
			c-0.35-0.4-0.76-1.07-1.56-1.85c-0.64-0.76-1.36-1.31-2.34-1.62c-0.97-0.36-2.02-0.27-3.21,0.37c-1.07,0.78-2.17,1.72-3.28,2.92
			c-0.98,1.19-2.19,2.4-3.28,3.58c-0.6-0.67-0.89-1.29-0.86-2.1c0.02-0.61,0.11-1.39,0.31-2.05c0.24-0.77,0.36-1.39,0.49-2.05
			c-0.02-0.66-0.12-1.2-0.64-1.76c-0.75,0.42-1.52,0.63-2.19,0.52c-0.79,0-1.4-0.25-1.98-0.35c-0.63-0.24-1.15-0.1-1.75,0.09
			c-1.07,0.44-1.95,1.19-2.62,1.95c-0.66,0.89-1,1.85-0.93,3.05c-0.01,0.63,0.32,0.97,0.85,0.97c0.45,0,1.02-0.07,1.68-0.31
			c0.52-0.18,1.07-0.32,1.38-0.3c0.38,0,0.57,0.34,0.44,0.88c-0.21,1.59-0.78,2.7-1.64,3.48c-0.82,0.76-1.76,0.96-2.77,0.6
			c-0.86,1.62-1.19,3.15-0.97,4.71c0.07,1.42,0.46,2.74,1.27,4.06c0.62,1.21,1.36,2.2,2.24,3.17c0.85,0.9,1.63,1.65,2.3,2.12
			c0.42,0.42,0.63,0.86,0.44,1.28c-0.16,0.33-0.38,0.68-0.83,0.77c-0.32,0.2-0.53,0.22-0.65-0.02c-0.5-1.41-1.31-2.18-2.15-2.29
			c-0.89-0.24-1.95,0.12-3.07,0.71c0.14-2.5-0.41-4.78-1.35-6.77c-1.07-2.09-2.47-3.82-4.32-5.6c-1.84-1.65-3.77-3.1-6.08-4.55
			l-0.2-0.09c-0.22-0.21-0.32-0.43-0.41-0.79c-0.24-0.3-0.1-0.77,0.2-1.3c0.35-0.53,0.98-1.08,2.09-1.72
			c-3.48-0.46-6.97-0.73-10.25-0.66c-3.36-0.02-6.45,0.28-8.93,0.8c-2.46,2.61-4.84,5.07-7.11,7.35c-2.31,2.4-4.52,4.64-6.73,7.05
			c-2.04,2.24-4.15,4.75-6.27,7.45c-0.55,0.78-0.69,1.3-0.32,1.54c0.3,0.36,0.72,0.44,1.41,0.57c0.66,0,1.08,0,1.4,0.14
			c0.32-0.02,0.14,0.19-0.43,0.65c0.08,1.49,0.07,2.92,0.06,4.33c-0.11,1.41-0.69,2.73-1.56,3.93c-0.56-0.44-0.75-0.99-0.75-1.39
			c0.12-0.57,0.23-1.15,0.43-1.66c0.19-0.57,0.34-1.08,0.19-1.66c-1.15-0.32-2.28-0.23-3.33-0.02c-0.98,0.32-1.88,0.87-2.3,1.61
			c-1.52,2.4-2.92,5.09-4.23,8.03c-1.24,2.98-2.26,6.22-2.8,9.82c-1.32,6.9-1.69,13.61-1.56,20.17c0.29,6.67,1.26,12.93,2.7,18.82
			c1.57,6.02,3.62,11.48,6.26,16.33c2.71,4.83,5.94,9.13,9.53,12.54c3.54,3.3,7.82,5.93,12.58,7.74c4.89,1.9,10.13,3.18,15.66,3.74
			c5.7,0.63,11.34,0.55,17.04-0.03c5.71-0.68,11.04-1.88,16.3-3.58c5.17-1.78,9.76-4.05,13.83-6.7c3.96-2.84,7.06-6.06,9.4-9.68
			c3.4-3.55,6.17-7.87,8.4-12.53c2.23-4.8,4.11-9.92,5.61-15.36c1.47-5.43,2.71-11.02,3.86-16.89
			C321.5,87.22,321.59,84.19,321.45,81.26z M266.26,85c-0.53,2.06-0.73,4.21-0.6,6.42c0,2.2,0.1,4.38,0.23,6.71
			c0.11,2.2-0.01,4.72-0.44,7.08c-0.44,1.94-1.05,3.83-1.78,5.64c-0.76,1.93-1.56,3.27-2.31,4.18c-2.19,2.53-4.74,3.92-7.65,4.51
			c-2.81,0.5-5.79,0-8.95-1.55c-0.87-0.53-1.65-1.12-2.45-1.85c-0.79-0.88-1.38-1.8-1.79-2.92c-0.36-1.02-0.36-2.12,0.1-3.21
			c-1.07-0.42-1.56-0.92-1.74-1.56c-0.04-0.77,0.05-1.66,0.24-2.52c0.3-0.82,0.38-1.59,0.33-2.29c-0.44-2.97-0.6-6.06-0.39-9.21
			c0.18-3.06,0.89-6.17,2.31-9.02c-0.88-1.29-1.54-2.63-1.82-4.21c-0.38-1.67-0.44-3.33-0.35-5.29c0.24-2.84,1.19-5.79,2.72-8.73
			c1.57-2.91,3.46-5.48,5.67-7.77c0.47-0.29,1.27-0.56,2.37-0.56c1.18,0,2.41-0.08,3.87-0.28c1.3-0.09,2.67-0.48,3.95-1.28
			c1.68,1.17,3.24,2.75,4.59,4.63c1.42,1.92,2.44,4.1,2.98,6.68c0.61,2.46,0.49,5.32-0.35,8.26c-0.35,0.99-0.22,1.86,0.16,2.68
			c0.26,0.9,0.56,1.78,0.94,2.72C266.48,83.17,266.48,84.05,266.26,85z"/>
		<path class="st1" d="M156.37,94.39c-0.54-3.84-1.34-7.65-2.54-11.18L139.52,49.5c-2.27-0.26-4.33-0.28-5.98-0.05
			c-1.67,0.05-3.3,0.39-4.81,0.81c-0.88,0.2-1.77,0.63-2.61,1.05c-0.78,0.45-1.67,0.86-2.55,1.18c-0.86,0.44-1.74,0.63-2.74,0.63
			c-1.08,0.12-1.98,0.45-2.74,1.2c-0.88,0.64-1.4,1.4-1.76,2.25c-0.42,0.75-0.42,1.43-0.26,1.87c1.3,2.62,2.7,5.28,4.24,7.79
			c1.47,2.64,2.87,5.27,4.23,8.14c1.32,2.84,2.26,6.02,3.1,9.4c-2.5-0.27-4.8-0.37-6.76-0.4c-2.08-0.04-3.84,0.55-5.34,1.49
			c-3.53,2.36-6.51,5.51-8.86,9.48c-2.34,3.94-3.87,8.52-4.84,13.62c-0.94,5.03-0.95,10.61-0.26,16.5c0.52,3.38,1.25,6.36,2.34,8.67
			c1.06,2.26,2.03,4.03,2.88,5.27c0.96,1.08,1.41,1.71,1.52,1.73c0,0,0.52,0.47,1.72,1.09c1.2,0.77,2.93,1.46,5.21,2.36
			c2.18,0.81,5.04,1.36,8.18,1.59c3.3,0.28,6.01,0.31,8.22,0.11c2.27-0.18,3.91-0.53,5.02-0.71c1.2-0.33,1.75-0.45,1.75-0.45
			s0.75-0.43,2.41-1.3c1.56-0.81,3.5-2.27,6.02-4.16c3.55-4.24,6.08-9.15,7.79-14.67c1.72-5.56,2.53-11.45,2.38-17.6
			C156.96,102.29,156.75,98.32,156.37,94.39z M132,113.18c-0.13,1.61-0.51,2.96-0.94,4.34c-0.59,1.25-1.43,2.48-2.82,3.5
			c-0.7,0.58-1.22,0.55-1.81,0c-0.46-0.59-0.78-1.19-0.98-2.07c-0.36-0.8-0.58-1.61-0.77-2.17c-0.81-2.31-1.23-4.72-1.09-7.03
			c0.02-2.4,0.39-4.53,1.09-6.48c0.83-2.18,1.75-3.89,3-5.38c0.69-0.54,1.5-0.77,2.41-0.44c0.78,0.26,1.51,0.72,1.83,1.43
			c-0.61,0.65-0.8,1.45-0.72,2.16c0,0.79,0.22,1.49,0.57,2.29c0.3,0.71,0.53,1.4,0.77,2.08c0.1,0.77,0.07,1.48-0.38,2.27l0.56,1.15
			C132.49,110.31,132.21,111.69,132,113.18z"/>
		<path class="st1" d="M58.78,91.29c-0.32-1.88-0.85-3.71-1.56-5.47c-0.56-1.08-1.18-2.19-2.16-3.28c-0.88-1.21-1.84-1.98-2.92-2.46
			c-1.62-0.43-3.37-0.68-5.14-0.56c-1.86,0.19-3.69,0.56-5.34,1.25c-0.98,0.3-1.98,0.52-3.17,0.59c-1.11,0.12-2.2,0.45-3.06,0.78
			c-1,0.3-1.52,0.95-1.77,1.93c-0.82,3.89-1.38,7.74-1.76,11.44c-0.45,3.72-0.71,7.5-0.75,11.33c-0.16,3.8-0.09,7.79,0.06,11.91
			c-1.2,2.62-1.96,5.56-2.21,8.54c-0.26,3.04,0.04,8.88,0.87,11.5c1.95,0.02,3.82-0.09,5.69-0.09c1.74-0.01,3.37,0.28,4.78,0.76
			c0.13-1.44,0.26-6.09,0.3-7.93c0.14-1.86,0.29-5.56,0.55-7.55c0.08-1.83,0.34-3.58,0.77-5.33c0.41,2.21,0.49,3.93,0.71,5.58
			c0.2,1.66,0.73,5.14,0.81,6.57c0.11,0.75,0.09,1.51,0.09,2.4c-0.12,0.75,0.07,4.63,0.29,5.17c0.31,0.78,0.85,1.44,1.84,1.67
			c0.76,0.12,1.96-0.2,3.38-0.18c1.5-0.11,3.16,0.15,4.82,0.15c1.51-0.09,2.92-0.09,3.91-0.09c-1.06-3.84-2.11-10.67-3.26-14.48
			c-1.05-3.84-1.86-8.01-2.48-12.38c-0.11-0.47,0.1-0.88,0.66-1.33c0.43-0.43,0.99-0.83,1.65-1.36c0.55-0.55,1.12-1.13,1.55-1.77
			c1.1-1.7,1.9-3.67,2.23-5.65c0.35-2.04,0.82-4.15,0.94-6.23C59.29,94.89,59.11,93.04,58.78,91.29z M45.11,101.03
			c-0.66,1.22-1.54,2.33-2.65,3.21c-0.38-0.25-0.76-0.77-0.76-1.38c-0.11-0.77-0.06-1.54,0.17-2.27c0.14-0.87,0.28-1.49,0.55-2.22
			c0.1-0.38,0.1-0.86,0.12-1.75l0.02-2.14c0.11-0.6,0.29-1.24,0.52-1.48c0.23-0.13,0.73,0,1.36,0.64c0.99,0.91,1.47,2.14,1.56,3.35
			C46,98.39,45.75,99.65,45.11,101.03z"/>
		<path class="st1" d="M90.64,70.75c0.04-0.54-0.22-1.31-0.61-2.08c-0.33-0.78-0.86-1.31-1.44-1.76c-0.66-0.31-1.39-0.34-2.26,0.08
			c-1.54,0.76-3.07,1.3-4.81,1.62c-1.65,0.3-3.42,0.59-5.04,0.91c-1.62,0.33-3.16,0.86-4.6,1.72l-14.1,68.69l14.72,0.13
			c0.16-0.11,0.27-3.53,0.5-4.39c0.21-0.88,0.44-1.86,0.71-3.06c0.21-1.12,0.44-4.03,0.68-5c0.12-0.88,0.32-1.44,0.43-1.74
			c0.55-0.03,1.21-0.12,1.93,0.04c0.78,0.02,1.42-0.09,2.23-0.07c0.88,0,1.51-0.02,2.08,0l-0.03,1.71c0.11,0.86,0.11,3.58,0.15,4.68
			c0,1.19,0.1,2.41,0.1,3.39c0.1,1,0.08,4.12,0.07,4.62c2.94,0.38,5.89,0.72,8.83,1c3.05,0.23,6.09,0.23,9.16,0.26L90.64,70.75z
			 M79.63,113.64c-0.29,0.97-0.76,1.45-1.5,1.69c-0.86,0.23-1.72,0.23-2.58-0.04l2.46-14.92c0.72,1,1.33,2.45,1.58,3.92
			c0.32,1.64,0.45,3.1,0.45,4.68C79.88,110.68,79.75,112.28,79.63,113.64z"/>
	</g>
	<g>
		<path class="st1" d="M264.48,174.95c1.22,1.09,2.14,2.24,3.15,3.7l0,0c0.83,1.44,1.57,2.87,2.21,4.06l0,0
			c0.95,1.76,1.8,3.45,2.75,5.26l0,0c1.07,1.89,1.87,3.67,2.55,5.64l0,0c0.71,2.13,1.07,4.26,1.08,6.58l0,0
			c0.07,0.66,0.08,1.54,0.08,2.4l0,0c0.08,0.99-0.15,1.76-0.42,2.43l0,0c-0.32,0.63-0.83,0.74-1.82,0.53l0,0
			c-2.03-0.69-4-1.08-6.21-1.21l0,0c-2.32,0-4.47-0.03-6.67,0.06l0,0c-2.33,0.14-4.33,0.23-6.48,0.31l0,0
			c0.04-1.66-0.14-3.12-0.43-4.81l0,0c-0.32-1.59-0.82-2.81-1.7-4.07l0,0c-0.75-1.04-1.99-1.84-3.55-2.06l0,0
			c-0.66-0.1-1.32,0.09-2.12,0.43l0,0c-0.88,0.44-1.5,1.09-2.12,1.72l0,0c-1.09,1.56-1.84,3.15-2.36,5.02l0,0
			c-0.57,1.88-0.57,3.69-0.4,5.58l0,0c0.29,1.96,0.88,3.7,2.04,5.34l0,0c1.11,1.57,2.37,2.52,3.92,3.2l0,0
			c1.41,0.55,2.98,1.08,4.68,1.43l0,0c1.75,0.47,3.33,1.12,5.1,2.1l0,0c-0.49,2.34-0.76,4.76-0.93,7.18l0,0
			c-0.11,2.54-0.39,4.88-0.57,7.21l0,0c-0.24,2.44-0.59,4.45-1.2,6.52l0,0c-1.6-0.94-3.19-1.35-4.88-1.28l0,0
			c-1.79,0.02-3.3,0.4-4.64,1.17l0,0c-1.48,0.91-2.44,1.83-3.03,3.29l0,0c-1.13,2.41-1.82,4.99-2.09,7.93l0,0
			c-0.38,3.11-0.13,6.06,0.61,9.31l0,0c0.4,1.28,1.03,1.93,1.9,1.93l0,0c1,0.15,1.97-0.08,3.06-0.52l0,0
			c1.15-0.44,2.23-0.76,3.22-0.99l0,0c0.24-1.17,0.58-2.35,0.84-3.78l0,0c0.36-1.45,0.68-2.58,1.05-3.73l0,0
			c0.46-0.96,1.02-1.61,1.67-1.76l0,0c3.68-0.54,7.18-0.82,10.75-0.82l0,0c3.42-0.08,6.62,0.16,9.63,0.59l0,0
			c0.34,0.15,0.63,0.51,0.98,1.39l0,0c0.32,0.8,0.61,1.77,0.96,2.65l0,0c0.2,0.88,0.36,1.53,0.49,1.93l0,0c0,0.07,0,0.07,0,0.13l0,0
			c0,0.13,0,0.22,0,0.33l0,0c-0.7,1.57-1.14,3.14-1.53,4.93l0,0c-0.44,1.76-0.92,3.46-1.61,5.24l0,0c-1.63,3.72-3.7,6.99-6.31,10.2
			l0,0c-2.59,3.08-5.72,5.41-9.74,7.18l0,0c-3.94,1.66-8.53,2.29-14.2,1.82l0,0c-6.99-0.69-12.45-2.64-17.24-5.72l0,0
			c-4.58-3.27-8.05-7.37-10.43-12.61l0,0c-2.43-5.18-3.59-10.9-3.78-17.59l0,0c0-0.3,0.02-0.58,0.02-0.97l0,0c0-0.13,0-0.28,0-0.43
			l0,0c0.89-5.61,2.69-10.25,5.41-14.36l0,0c2.89-4.43,6.34-7.58,10.7-10.05l0,0c-0.09-0.89-0.27-1.67-0.57-2.6l0,0
			c-0.23-0.86-0.62-1.49-1.17-2.16l0,0c-1.99-1.82-3.52-4.11-5.02-6.9l0,0c-1.39-2.91-2.49-5.97-3.25-9.34l0,0
			c-0.67-3.39-0.81-6.67-0.43-10.22l0,0c0.39-3.44,1.44-6.57,3.26-9.69l0,0c1.14-1.89,2.3-3.69,3.69-5.46l0,0
			c1.49-1.87,3-3.35,4.9-4.81l0,0c1.79-1.51,2.66-2.09,6.16-3.46l0,0c7.96-2.14,21.17-0.12,26.48,2.69l0,0
			C262.73,173.74,264.5,174.9,264.48,174.95z"/>
		<path class="st1" d="M98.42,156.28c3.93,0.46,7.29,1.31,10.52,2.64l0,0c3.17,1.37,5.58,3.25,7.43,5.93l0,0
			c1.88,2.53,2.7,5.83,2.56,10.03l0,0c1.55,3.13,2.36,6.19,2.65,9.41l0,0c0.13,3.18-0.03,6.47-0.56,10.38l0,0
			c-0.22,3.05-0.43,5.99-0.66,9.03l0,0c-3.52,0.56-7.12,0.77-11.01,0.77l0,0c-3.66-0.15-7.18-0.38-10.8-1.06l0,0
			c-3.77-0.68-6.93-1.43-9.71-2.22l0,0c-0.96-0.32-1.59-1.07-2.11-2.06l0,0c-0.41-1.09-0.73-2.18-0.92-3.61l0,0
			c-0.2-1.15-0.41-2.25-0.69-3.4l0,0c-0.2-0.99-0.49-1.52-0.9-1.62l0,0c-1.88-0.66-3.62-1.34-5.45-2.01l0,0
			c-1.65-0.65-3.41-1.08-5.34-1.2l0,0c-1.86-0.19-3.52,0.2-5.46,1.25l0,0c-0.57,0.38-1,1-1.34,1.79l0,0
			c-0.24,0.76-0.48,1.62-0.53,2.5l0,0c-0.12,7.73-0.28,15.15-0.45,22.94l0,0c-0.14,5.85-0.08,11.85,0.15,18.73l0,0
			c0.3,5.85,0.89,11.57,1.94,17.81l0,0c0.11,0.88,0.49,1.93,1.13,3.28l0,0c0.55,0.94,1.24,1.96,2.23,2.82l0,0
			c1.1,0.79,2.34,1.46,3.77,2.1l0,0c1.44,0.56,2.94,0.9,4.35,1.01l0,0c1.45,0,2.74-0.36,3.64-1.09l0,0c1.6-1.43,2.57-3.14,3.42-5.25
			l0,0c0.84-2.32,1.64-4.58,2.47-6.96l0,0c0.12-0.45,0.16-0.91,0.07-1.42l0,0c-0.26-0.43-0.45-0.95-0.97-1.52l0,0
			c-0.31-0.56-0.84-0.8-1.61-0.8l0,0c-1.13,0.16-2.41,0.03-3.84-0.29l0,0c-1.31-0.2-2.51-0.77-3.58-1.69l0,0
			c-0.96-0.79-1.54-2.15-1.63-3.94l0,0c0.05-1.63-0.13-3.01-0.23-4.36l0,0c-0.16-1.53-0.69-2.56-1.42-3.48l0,0
			c0.49-2.44,0.87-4.65,0.94-6.57l0,0c0.07-1.93,0.21-3.81,0.33-5.75l0,0c0.1-1.9,0.55-3.54,1.26-5.46l0,0
			c2.68-0.97,5.55-1.52,8.76-1.74l0,0c3.38-0.06,6.53,0.05,9.98,0.58l0,0c3.4,0.48,6.67,1.02,10.1,1.79l0,0
			c0.79,0.09,1.73-0.09,2.66-0.63l0,0c0.9-0.58,1.96-1.1,3.06-1.62l0,0c1.24-0.47,2.43-0.64,3.73-0.32l0,0
			c0.99,0.2,1.86,0.64,2.59,1.17l0,0c0.8,0.57,1.58,1.13,2.38,1.7l0,0c0.86,0.55,1.73,0.74,2.85,0.74l0,0
			c-0.13,0.31-0.13,0.77-0.06,1.33l0,0c-0.05,12.7-0.05,20.73-0.03,25.18l0,0c-0.03,0.48-0.05,0.89-0.05,1.32l0,0
			c-0.01,0.69-0.06,1.29-0.06,1.98l0,0c-0.02,0.32-0.02,0.75-0.15,1.31l0,0c-0.01,0.3-0.08,0.65-0.11,1.08l0,0
			c-0.12,0.32-0.24,0.77-0.32,1.09l0,0c-0.04,0.33-0.15,0.65-0.27,1.1l0,0c-0.1,0.38-0.21,0.77-0.36,1.2l0,0
			c-0.61,1.98-1.41,3.58-2.31,4.9l0,0c-0.94,1.43-1.99,2.49-3.35,3.16l0,0c0.9-0.34,1.49-0.31,2.15,0.11l0,0
			c0.68,0.32,1.08,0.89,1.29,1.72l0,0c0.29,0.8,0.4,1.43,0.29,2.1l0,0c-1.42,7.83-3.79,14.49-7.47,20.38l0,0
			c-3.72,5.84-8.54,10.3-14.74,13.69l0,0c-6.3,3.28-13.64,4.86-22.76,4.88l0,0c-6.88-0.05-12.59-1.02-17.8-3.02l0,0
			c-5.06-2.02-9.28-4.6-12.96-8.02l0,0c-3.59-3.44-6.59-7.25-9.15-11.7l0,0c-2.59-4.45-4.72-8.97-6.72-14.23l0,0
			c-1.72-4.92-3.33-9.68-5.08-14.62l0,0c0-16.13,0.02-31.62,0.02-47.84l0,0c0.9-0.53,1.41-1.15,1.67-1.96l0,0
			c0.23-0.77,0.26-1.52,0.06-2.39l0,0c-0.08-0.75-0.36-1.53-0.92-2.19l0,0c-0.63-0.75-0.83-1.62-0.7-2.37l0,0
			c0.27-0.83,0.54-1.62,0.82-2.39l0,0c0.26-0.8,0.15-1.74-0.15-2.86l0,0c0.97-0.77,1.65-1.7,2.03-2.72l0,0
			c0.37-1.12,0.48-2.29,0.52-3.39l0,0c0.18-5.07,0.34-9.9,0.52-14.94l0,0c0.07-3.97,0.35-7.38,0.94-10.41l0,0
			c1.23-0.4,2.43-0.82,3.87-1.5l0,0c1.54-0.61,2.73-1.05,3.47-1.3l0,0c1.12-0.43,2.42-0.43,3.85-0.41l0,0
			c6.84,0.59,13.2,0.83,19.51,0.94l0,0c4.61,0.23,10.97,0.36,19.86,0.86l0,0C85.62,154.94,91.88,155.48,98.42,156.28z"/>
		<path class="st1" d="M443.01,262.1c-0.2-3.92-0.51-7.29-0.79-10.5c-0.23-1.01-0.95-1.53-2.29-1.65c-1.44-0.22-2.94-0.24-4.67-0.15
			c-1.94,0.26-3.39,0.22-4.86,0.26c0.12-5.55,0.14-10.77,0.09-16.28c0.04-5.47,0.22-10.45,0.58-15.39c0.17-2.69,0.4-5.53,0.57-8.75
			c0.26-3.32,0.31-6.42,0.35-9.72c-0.07-3.33-0.17-6.28-0.48-9.15c-6.54-0.63-12.84-1.19-19.34-1.81
			c-0.79,14.66-1.41,28.66-1.79,43.32c-0.27,14.88-0.55,28.85-0.83,43.35c1.45,0.56,2.74,0.76,3.97,0.66c1.22,0,2.28-0.21,3.28-0.54
			c0.97-0.21,1.93-0.3,2.95-0.43c2.68,0,5.38,0.03,8.22,0.13c3.02,0.04,5.66,0.02,8.32-0.08c2.77-0.13,5-0.51,6.99-1.18
			C443.23,269.88,443.15,265.96,443.01,262.1z M425.64,246.74c-0.22-0.91-0.21-1.75,0.02-2.65c0.24-0.85,0.61-1.42,0.88-1.74
			c0.32,1.99,0.62,3.91,0.94,5.89C426.36,247.92,425.87,247.51,425.64,246.74z M439.34,265.12c-0.31,0.77-0.85,1.28-1.56,1.51
			c0.12-0.33,0.03-0.94-0.07-1.85c-0.22-0.82-0.19-1.4-0.1-1.85c0.13-0.56,0.67-0.44,1.41,0.24
			C439.59,263.84,439.69,264.46,439.34,265.12z M441.15,271.58c-0.17,0.64-0.45,0.97-0.82,1.18l0.08-4.38
			c0.31,0.27,0.61,0.53,0.74,1.24C441.36,270.27,441.36,270.89,441.15,271.58z"/>
		<path class="st1" d="M475.93,252.38c-0.12-0.69-0.5-1.21-1-1.54c-0.67-0.54-1.4-0.76-2.29-0.89c-1.44-0.02-2.77-0.1-4.25-0.02
			c-1.42,0-2.83-0.2-4.08-0.65c0.67-6.45,1.17-12.9,1.47-19.9c0.24-7.09,0.45-13.77,0.41-20.74c0.15-1.76,0.27-3.44,0.41-5.1
			c0.19-1.79,0.24-3.39,0.14-5.02c0.03-1.57-0.39-2.85-1.04-3.95c-5.73-0.69-11.22-1.35-16.9-2.03l-0.07,2.75c0,0.19,0,0.34,0,0.52
			c-0.92,3.35-1.48,6.3-1.62,9.19c-0.12,2.86,0.05,5.51,0.67,8.3c-0.49,6.21-0.88,12.43-1.2,19.42c-0.29,7.12-0.48,13.76-0.54,21.07
			c-0.18,7.22-0.16,14.15-0.12,21.06c4.8-0.45,9.61-0.53,14.67-0.51c7.91,0.11,12.79,0.15,15.12,0.04v-0.33
			c-0.05,0.04-0.07,0-0.12,0l0.01-0.11c-0.4-2.45-0.36-8.92,0.29-19.77L475.93,252.38z M455.72,267.91
			c-0.73-0.8-1.38-1.77-1.94-2.65c-0.53-0.97-0.64-1.92-0.31-3.05c0.36-0.87,0.69-1.19,0.8-0.99c0.19,0.12,0.33,0.58,0.42,1.16
			c0,0.52-0.02,0.82-0.23,1.04c0.45,0.88,0.87,1.78,1.28,2.64C456.05,267.04,456.05,267.66,455.72,267.91z M462.05,270.65
			c-0.11,0.67-0.45,0.97-0.89,1.21c0.02-1.46,0.07-2.88,0.07-4.37c0.43,0.22,0.75,0.54,0.83,1.24
			C462.27,269.39,462.27,269.96,462.05,270.65z M465.89,258.4c-0.11,0.72-0.33,1.14-0.78,1.27c0.02-1.46,0.02-2.87,0.05-4.28
			c0.44,0.12,0.63,0.51,0.72,1.2C466.11,257.17,466.09,257.79,465.89,258.4z"/>
		<path class="st1" d="M515.08,265.69c-1.17-7.34-2.01-14.52-2.81-22.38c-0.85-7.75-1.69-15.73-2.44-23.23
			c-0.39-4.03-0.94-7.95-1.35-11.7c-0.41-3.81-1.25-7.07-2.4-10.19c-2.03,0.44-3.72,0.54-5.38,0.2c-1.51-0.2-3.13-0.64-4.66-1
			c-1.71-0.43-3.36-0.64-5.27-0.54c-1.1,0.11-1.82,0.64-2.4,1.39c-0.48,0.9-0.79,1.6-0.79,2.27c-0.97,6.61-1.91,12.6-3.16,18.92
			c-1.16,6.21-2.04,12.23-3.22,18.53c-0.44,2.22-2.08,14.56-5.51,35.92c0.08-0.04,0.17-0.07,0.23-0.15
			c0.36-1.13,1.02-1.22,1.36-1.44c0.89-0.41,1.62-0.22,2.64-0.22c1.1,0.11,1.72,0.04,2.97-0.08c1.67,0.02,4.61,0,6.11-0.19
			c3.21-0.24,3-0.32,3.55-2.79c0.22-0.99,0.56-1.83,0.67-2.93c0.25-1,0.4-2.02,0.7-3.03c0.14-0.84,0.35-2.21,0.72-2.57
			c0.21-0.06,1.75-0.27,2.4-0.21c0.77,0.04,0.98-0.07,1.8,0.04c0.76,0.02,0.89-0.03,1.6-0.04c0.22,0.86,0.74,3.55,0.74,4.3
			c0.09,0.78,0.22,1.53,0.52,2.3c0.21,0.8,0.31,1.66,0.42,2.5c0.24,2.06,0.69,1.57,1.47,1.91c0.88,0.2,1.58,0.09,2.47-0.02
			c1.6-0.13,1.27-0.32,2.93-0.66c1.54-0.18,4.18-0.52,5.87-0.64c0-0.33,0.1-0.74,0.1-1.3c0.13-0.68,0.13-1.2,0.13-1.64
			C515.19,266.46,515.21,266.03,515.08,265.69z M488.4,226.31c-0.01,0.02-0.02,0.07-0.11,0.11c-0.85-0.36-1.17-0.68-1.07-1.02
			c0.11-0.2,0.31-0.31,0.65-0.31c0.44,0.16,0.69,0.43,0.67,1.11C488.53,226.24,488.44,226.29,488.4,226.31z M499.38,243.35
			c-0.32,0.34-0.83,0.08-1.49,0.19c-0.55,0-1.28,0.07-1.73-0.05c0.09-2.71,0.42-5.27,0.55-7.71c0.13-2.33,0.47-4.25,0.77-6.42
			c0.1-0.28,0.17-0.57,0.33-1.51c0.1-0.59,0.27-1.11,0.44-1.76c0.13-0.58,0.23-1.06,0.38-1.4c0.29,1.65,0.5,3.34,0.69,5.33
			c0.09,2.13,0.29,4.01,0.29,6.14c0.08,1.98,0.26,4.23,0.4,5.79C500.04,242.61,499.82,243,499.38,243.35z"/>
		<path class="st1" d="M332.34,264.12c-1.51-4.77-3.04-9.55-4.62-14.52c-1.71-5.13-3.13-10.23-4.46-16
			c-0.13-0.67,0.36-1.38,1.21-2.16c1.03-0.75,2.13-1.62,3.34-2.61c1.32-0.9,2.29-1.93,3.09-3.06c1.93-2.96,3.25-6.13,4.08-9.65
			c0.83-3.7,1.23-7.18,1.05-10.92c-0.16-3.79-0.76-7.16-1.8-10.67c-1.1-3.39-2.58-6.37-4.24-9.04c-1.88-2.73-3.99-4.78-6.6-6.23
			c-7.31-0.46-14.18-1.13-21.37-1.95c-7.18-0.68-14.28-1.53-21.91-2.3c-0.8,8.72-1.25,17.1-1.5,25.83
			c-0.36,8.78-0.49,17.13-0.66,25.96c-0.14,8.8-0.4,17.39-0.76,26.45c-0.05,0.43-0.15,0.84-0.14,1.29
			c-0.24,0.52-0.46,1.02-0.67,1.51c-0.02,1.38,0.15,2.76,0.36,4.17c0.08,0.69,0.31,1.31,0.36,1.93c0.33,1.49,0.53,3.08,0.64,4.73
			c0.24,3.79,0.3,7.58,0,11.55c0,1.23,0.48,1.85,1.75,2.2c1.2,0.23,2.55,0.46,4.36,0.46c1.67-0.08,3.25,0,4.7,0.48
			c1.47,0.3,3.19,0.3,5.08-0.21c1.98-0.46,3.82-0.99,5.82-1.51c0.8-0.24,1.32-0.77,1.78-1.74c0.25-0.91,0.46-1.87,0.52-3.07
			c0.1-1.14,0.1-2.15,0.11-3.27c0.16-8.81,0.3-17.24,0.43-26c0.88-0.09,1.5,0.13,1.95,0.67c0.3,0.45,0.66,1.1,0.86,1.64
			c0.08,0.66,0.18,1.12,0.27,1.56c2.44,9.51,4.74,18.6,7.17,28.07c0.45,1.68,1.35,2.68,2.91,3.18c1.53,0.55,3.15,0.78,5.04,0.55
			c1.66-0.08,3.27-0.3,4.52-0.63c1.87-0.34,3.69-0.75,5.6-1.2c1.78-0.41,3.8-0.74,5.94-1.06C335.25,273.69,333.85,269,332.34,264.12
			z M311.68,210.12c-0.05,2.47-0.69,4.55-2.09,6.57c-0.75,0.86-1.5,1.39-2.51,1.7c-1.02,0.22-1.87,0.22-2.69-0.31
			c-0.7-0.34-1.1-0.89-1.1-1.56c-0.11-0.66-0.09-1.36,0.14-2.14c0.12-0.8,0.22-1.45,0.22-2.12c0.12-4.82,0.17-9.45,0.26-14.25
			c1.31-0.12,2.38,0,3.25,0.54c0.91,0.44,1.71,1.1,2.38,1.84c0.54,0.81,0.95,1.55,1.16,2.43
			C311.54,205.25,311.83,207.56,311.68,210.12z"/>
		<path class="st1" d="M408.7,188.88c-3.08-0.74-6.03-1.15-9.36-1.41c-3.21-0.31-6.39-0.56-9.71-0.77
			c-0.07,2.29-0.07,4.49-0.11,6.76c-0.04,2.34-0.08,4.65-0.18,6.88c-0.11,5.1-0.22,9.98-0.3,15.05c0,1,0.01,1.91,0.05,2.88
			c0.2,6.52,0.04,13.22-0.35,20.53c-0.48,8.83-1.53,19.26-2.41,27.51c0.22,2.11,0.94,1.89,1.58,4.01c0.41,1.67,0.94,3.24,1.49,4.68
			c1.02-0.21,1.96-0.41,2.95-0.67c0.58,0,1.2-0.11,1.98-0.11c1.69,0.02,3.37,0.04,5.04,0.15c1.76,0.09,3.29,0,4.58-0.19
			c1.44-0.23,2.54-0.78,3.41-1.66c0.48-9.28,0.76-17.99,0.98-26.72c0.11-8.73,0.27-17,0.42-25.73c0.12-8.69,0.33-17.15,0.62-26.32
			c0-0.34,0.22-0.86,0.48-1.66c0.35-0.63,0.36-1.38,0.36-1.93C410.12,189.48,409.72,189.04,408.7,188.88z M398.21,263.77
			c-0.35,0.19-0.7,0.04-0.91-0.41c0.48-0.46,0.89-0.87,1.32-1.33c0.44,0.34,0.53,0.54,0.43,1
			C398.85,263.37,398.63,263.66,398.21,263.77z"/>
		<path class="st1" d="M197.23,166.41c-4.98-0.48-9.62-1.11-14.47-1.89c-0.77-0.1-1.42,0.09-1.99,0.42
			c-0.43,0.47-0.77,0.97-0.87,1.51c-0.27,0.6-0.35,1.11-0.36,1.33c-0.7,8.86-1.25,17.46-1.56,26.53
			c-0.42,9.19-0.61,17.69-0.57,26.51c0,11.1,0.02,19.14,0,24.65c0.06,2.13-0.28,3.83-1.07,5.23c-0.74,1.49-1.72,2.49-2.92,3.37
			c-1.25,0.93-2.43,1.44-3.67,1.54c-0.87,0.11-1.83,0.11-2.95-0.12c-0.89-0.13-1.85-0.52-2.71-1.12c-0.75-0.52-1.15-1.27-1.27-2.4
			c-0.42-6.11-0.6-12.49-0.44-19.53c0.03-5.69,0.24-12.12,0.66-19.86c0.42-9.08,0.64-15.43,0.72-19.74
			c0.36-10.82,0.1-20.52-0.96-30.14c-11.22-1.11-23.77-3.12-34.99-4.24c-0.01,0.42-0.06,0.8-0.1,1.2c-0.13,0.46-0.13,0.78-0.13,0.91
			c0.11,0.64-0.03,1.3-0.11,2.06h0.06c-1.37,18.2-0.96,36.54-2.49,54.64c-0.22,12.01-0.4,19.82-0.6,24.1c0,0.47,0,0.97-0.03,1.44
			c-0.03,0.54-0.03,0.83,0.17,1.08c0.22,0.26,0.22,0.66,0,1.11c0.28,0.69,0.46,1.27,0.79,1.87c0.24,0.5,0.44,0.95,0.54,1.53
			c0,0.11,0.01,0.22,0.1,0.22c0.29,1.31,0.48,2.7,0.55,4.14c0.08,1.31,0.27,2.6,0.47,3.91c1.4,7.46,3.92,13.59,7.96,18.92
			c4.06,5.31,9.19,9.02,15.9,11.73c6.79,2.54,14.45,3.5,23.9,3.03c6.77-0.56,12.33-2.12,17.19-5.07c4.85-2.95,8.53-6.69,11.29-11.76
			c2.84-5.13,4.55-10.81,5.39-17.64c0-0.1,0-0.15,0-0.25c-0.09-1.57,0.27-3.03,1.11-4.34c0.45-0.91,0.67-1.75,0.8-2.73
			c0.77-27.43,1.52-53.64,2.22-80.87C207.96,167.45,203,167.08,197.23,166.41z M156.43,171.42c0.33-0.65,0.66-0.86,1.01-0.65
			c0.31,0.12,0.54,0.54,0.76,0.95c0.09,0.49,0.07,0.91-0.05,1.21c-0.35,0.91-0.77,1.22-1.09,0.97c-0.23-0.3-0.41-0.72-0.52-1.27
			C156.32,171.93,156.34,171.53,156.43,171.42z M155.65,178.29c0.24-0.32,0.67-0.44,1.24-0.53c0.53,0,1.08,0,1.53,0.09
			c-0.38,1.28-0.65,2.48-0.96,3.73c-0.36-0.12-0.65-0.33-0.99-0.67c-0.2-0.34-0.53-0.65-0.62-0.98
			C155.39,179.15,155.34,178.64,155.65,178.29z M152.28,183.65c0.2,0.3,0.43,0.74,0.43,1.3c0.07,0.55-0.04,0.97-0.27,1.28
			c-0.22,0.35-0.55,0.23-1.08-0.22c-0.33-0.31-0.51-0.72-0.51-1.3c-0.02-0.55,0.01-0.97,0.33-1.32
			C151.33,183.09,151.74,183.21,152.28,183.65z M148.07,175.98c0.42-0.89,1.12-1.52,1.9-1.99c0.73,0.82,1.02,1.3,1.02,1.76
			c-0.1,0.43-0.32,0.75-0.88,1.11c-0.45,0.21-1,0.52-1.52,0.73c-0.57,0.22-1.04,0.57-1.23,0.89
			C147.36,177.69,147.73,176.88,148.07,175.98z M143.49,174.53c0.34,0.01,0.53,0.3,0.64,1.11l-0.11-0.01
			c-0.07,0.04-0.16,0.09-0.24,0.11c-0.75-0.35-1.07-0.66-1.07-0.88C142.84,174.53,143.07,174.43,143.49,174.53z M142.97,185.99
			c0.64,0.12,1.16,0.22,1.73,0.55c0.53,0.22,1.15,0.32,2.03,0.23c0.23,0.34,0.23,0.64-0.13,1.1c-0.2,0.29-0.55,0.64-0.98,0.63
			c-0.47,0.1-0.87-0.07-1.31-0.51c-0.32,0.68-0.71,1.33-1,2.05c0.3,0.35,0.52,0.77,0.7,1.32c0.11,0.39,0.21,0.96,0,1.63
			c-0.47-0.02-0.79-0.11-0.77-0.55c-0.09-0.36-0.09-0.78-0.09-1.22c0.11-0.52,0.15-0.84,0.15-1.19c-1-1.19-1.93-2.31-2.88-3.53
			C141.42,185.99,142.26,185.89,142.97,185.99z M138.35,174.11c0.45,0.19,0.58,0.53,0.45,0.94c-0.26,0.35-0.47,0.53-0.9,0.77
			c-0.32,0.11-0.67,0-0.89-0.54C137.49,174.88,137.94,174.48,138.35,174.11z M132.86,191.98c0.36-0.69,0.48-1.3,0.51-2.07
			c0.1-0.8,0.23-1.51,0.58-2.21c0.35-0.65,0.99-1.05,1.97-1.31c1.16-0.18,1.53,0,1.43,0.58c-0.14,0.56-0.47,1.17-1.02,1.98
			c-0.58,0.75-0.92,1.37-1.15,1.83c-0.29,0.96-0.63,1.88-0.91,2.82c0.47-0.46,0.85-0.52,1.18-0.32c0.47,0.21,0.75,0.53,0.98,0.99
			c0.1,0.44,0.1,0.75-0.12,1.08c-0.79,0.56-1.42,0.69-2.02,0.23c-0.63-0.33-1.06-0.86-1.33-1.62
			C132.64,193.14,132.66,192.51,132.86,191.98z M131.28,201.02c0.32-0.2,0.86-0.11,1.6,0.35c1.01,0.56,1.72,1.3,2.38,2.28
			c0.49,1.12,0.8,2.07,1.03,3.2c-1.32,1.36-2.57,2.74-3.86,4.09c-0.66-0.43-0.94-0.94-0.78-1.61c0-0.55,0.12-1.21,0.42-1.98
			c0.28-0.64,0.59-1.28,0.72-1.96c0.25-0.66,0.25-1.29-0.07-1.83c-0.43,0.21-0.89,0.12-1.28-0.36c-0.37-0.32-0.55-0.63-0.52-1.19
			C130.82,201.58,130.94,201.24,131.28,201.02z M132.64,263.93c-0.03,0.02-0.08,0.02-0.08,0.04c-0.91-0.3-1.23-0.6-1.12-0.84
			c0.14-0.34,0.32-0.43,0.63-0.45c0.51,0.13,0.7,0.44,0.66,1.25H132.64z M135.84,214.25c-0.45,0.99-0.96,1.72-1.62,2.4
			c-0.82,0.65-1.8,0.86-3.01,0.75c0.39-0.98,0.82-1.73,1.47-2.29c0.66-0.63,1.34-1.19,2.15-1.72c0.79-0.47,1.42-1.11,1.99-1.77
			C136.56,212.39,136.22,213.24,135.84,214.25z M138.97,202.58c-0.1,0.44-0.43,0.76-0.88,0.99c-0.46,0.2-0.88,0.07-1.36-0.44
			c-0.52-0.7-0.56-1.21-0.25-1.54c0.2-0.2,0.63-0.33,1.21-0.33c0.55,0.03,0.88,0,1.1,0.22
			C139.12,201.73,139.19,202.15,138.97,202.58z M139.21,181.28c-0.34,0.25-0.67,0.22-1.08,0c-0.35-0.32-0.62-0.63-0.65-1.3
			c-0.07-0.55,0.03-1.07,0.52-1.87c0.43-0.31,0.71-0.33,1.06,0.09c0.31,0.38,0.52,0.89,0.63,1.55
			C139.76,180.43,139.55,180.97,139.21,181.28z M143.12,219.07c-0.46-0.42-0.87-0.87-1.31-1.31c0.23-0.57,0.58-0.68,0.9-0.45
			c0.43,0.13,0.63,0.33,0.84,0.79C143.65,218.43,143.53,218.74,143.12,219.07z M146.88,196.9c-0.93,1.03-1.55,2.18-2.05,3.52
			c-0.47,1.41-0.81,2.73-0.97,4.25c-0.27,1.42-0.38,2.71-0.52,4.02c-0.46,0.03-0.86,0-1.31,0.03c-0.58,0.08-0.99-0.11-1.17-0.33
			c0.76-0.57,1.22-1.19,1.13-2.17c0-0.92-0.32-1.54-0.94-2.12c0.77-0.43,1.41-0.88,2.08-1.51c0.58-0.69,0.72-1.51,0.5-2.51
			c-0.45-0.75-0.93-1.6-1.67-2.48c-0.78-0.9-1.27-1.87-1.81-2.87c-0.42-1.16-0.38-2.16,0.17-3.28c0.67,0.46,1.18,0.98,1.51,1.64
			c0.33,0.52,0.73,1,1.16,1.32c0.59,0.32,1.2,0.34,2.22-0.1c0.43-0.09,0.85-0.11,1.42,0c0.43,0.22,0.72,0.44,0.94,0.9
			C147.63,195.6,147.4,196.17,146.88,196.9z M147,184.37c-0.43-0.13-0.66-0.32-0.76-0.55c0-0.36,0.33-0.66,1.13-0.99
			c-0.33-0.75-0.39-1.28-0.07-1.75c0.24-0.31,0.65-0.53,1.08-0.55c0.56,0.02,0.98,0.19,1.27,0.55c0.49,0.48,0.47,0.99,0.11,1.66
			c-0.22,0.56-0.79,1.09-1.58,1.54C147.87,184.46,147.47,184.46,147,184.37z M151.08,189.86c-0.82,0.29-1.42,0.62-1.99,0.84
			c-0.57-0.85-0.5-1.61-0.22-1.96c0.48-0.46,1-0.64,1.69-0.66c0.77-0.04,1.39-0.04,2.07,0.13c1.4-0.38,2.76-0.74,4.17-1.08
			c-0.42-1.33-0.52-1.97-0.25-2.08c0.18-0.22,0.49,0,0.92,0.44c0.42,0.54,0.72,1.05,0.86,1.74c-0.03,0.88-0.15,1.75-0.48,2.51
			c-0.36,0.76-0.7,1.52-1.16,2.28c-0.46-0.45-0.77-0.97-1.06-1.64c-0.22-0.65-0.64-1.2-1.07-1.72c-0.42-0.46-1.05-0.68-1.95-0.46
			C152.27,188.99,151.85,189.62,151.08,189.86z M159.55,211.48c-0.23,0.91-0.8,1.72-1.81,2.39c-0.86-0.67-1.81-1.11-2.9-1.3
			c-1.2-0.34-2.2-0.15-3.08,0.52c-0.19-0.9-0.19-1.53,0.05-2.09c0.32-0.53,0.57-0.97,0.91-1.49c0.22-0.47,0.15-0.99-0.4-1.72
			c0.58-0.35,1.09-0.5,1.75-0.35c0.68,0.23,1.19,0.41,1.74,0.65c0.54,0.14,0.55,0.03,0.44-0.42c-1.26-2.62-2.18-5.35-2.79-8.01
			c-0.48-2.63-0.98-5.11-1.45-7.71c0.53,0.89,1.14,1.7,1.89,2.6c0.74,0.9,1.27,1.77,1.59,2.82c0.49,1.04,0.42,2.1-0.15,3.39
			c0.96-0.18,1.7,0.27,2.45,1.33c0.64,1.03,1.03,2.22,1.25,3.61c0.08,0.88,0.28,1.85,0.46,2.83
			C159.62,209.63,159.7,210.47,159.55,211.48z"/>
		<path class="st1" d="M387.17,269.66c-0.52-1.79-0.95-3.59-1.57-5.46c-1.66-4.37-2.97-8.8-4.24-13.59
			c-1.46-5.77-2.91-11.3-4.34-17.24c2.43-1.45,4.45-3.25,6.38-5.55c1.94-2.34,3.37-4.97,4.27-8.18c0.45-1.43,0.7-2.27,0.7-2.38
			c-0.13-0.35-0.13-1.21,0.04-2.52c0.13-2.01,0.13-2.95,0.13-2.95v-1.33c0.05-2.2,0.08-3.68-0.04-4.69
			c-0.09-1.54-0.17-2.91-0.38-4.35c-0.3-2.77-1.03-5.35-2.3-7.87c-1.85-3.7-4.27-6.4-7.54-8.57c-6.63-0.61-13.16-2.2-19.62-2.85
			c-6.15-0.57-12.26-0.25-18.56-0.87c-0.23,0-0.44,0.24-0.67,0.58c-0.33,0.44-0.41,0.63-0.54,0.88
			c-0.23,10.41-0.63,20.61-1.01,31.29c-0.26,10.76-0.55,21.07-0.65,31.67c-0.17,10.65-0.22,20.62-0.23,30.68
			c0.14,0.86,0.76,1.4,1.76,1.87c0.98,0.33,2.25,0.67,3.71,0.87c1.46,0.1,2.69,0.12,3.96,0.12c1.66-0.12,3.46-0.32,5.38-0.63
			c1.89-0.43,3.7-0.53,5.59-0.67c0.35-2.3,0.73-4.56,0.83-7.2c0.3-2.57,0.42-5.1,0.56-7.53c0.05-1.11,0.02-2.48-0.07-4.23
			c0.05-1.66-0.05-3.49,0.11-5.36c0-1.92,0.22-3.49,0.44-4.93c0.38-1.45,0.94-2.4,1.59-2.85c1.38,5.57,2.49,10.77,3.53,16.08
			c0.94,5.35,2.14,10.22,3.41,14.86c1.47,1.12,2.85,1.65,4.51,1.87c1.55,0.21,3.13,0.21,4.79,0.02c1.7-0.33,3.32-0.54,4.87-0.78
			c1.51-0.32,2.81-0.71,3.94-1.26c0.24-0.11,0.46-0.11,0.67-0.31c0.32-0.14,0.64-0.26,0.97-0.45c0.24-0.21,0.56-0.43,0.88-0.56
			C387.99,273.42,387.59,271.62,387.17,269.66z M386.31,216.23c0.11,0.88,0.01,1.74-0.3,2.58c-0.32,0.86-0.7,1.34-1.03,1.63
			c-0.14-1.97-0.24-3.92-0.36-5.96C385.66,214.95,386.18,215.43,386.31,216.23z M367.41,212.17c-0.23,1.09-0.56,2.29-0.89,3.7
			c-0.46,1.32-1.13,2.39-2.12,3.25c-0.92,0.99-2.28,1.32-4.17,1c-0.1-1.91-0.17-3.9-0.24-6.14c0-2.32,0.08-4.43,0.31-6.86
			c0.14-2.34,0.52-4.45,1.05-6.63c1.33,0.53,2.64,1.39,3.69,2.5c1.1,1.24,1.82,2.49,2.37,4.16
			C367.8,208.69,367.89,210.25,367.41,212.17z"/>
	</g>
	<path class="st1" d="M576.6,77.34c-0.14,14.37-11.92,25.95-26.3,25.84c-14.42-0.17-26.03-11.94-25.87-26.35
		c0.13-14.41,11.91-25.97,26.35-25.84C565.18,51.12,576.71,62.92,576.6,77.34z"/>
	<g>
		<path class="st0" d="M565.83,88.03c0.31-0.06,0.55-0.09,0.8-0.06c-0.07,0.08,0.4-0.41,0.31-0.28l-0.46-16.24l-0.39-6.19
			c-0.13-0.22-0.22-0.35-0.31-0.35l-0.27,0.02l-2.29-0.64l-1.48,0.47l-1.85-0.18c-0.3,0.12-0.53,0.18-0.65,0.3l-0.4,0.38
			c-0.17,0.44-0.31,0.71-0.31,0.93c0,0.42,0.04,0.69,0.16,0.8l-0.63,2.26c-0.05,1.84-0.35,3.4-0.97,4.7
			c-0.23,0.2-0.44,0.29-0.65,0.32c-0.33-0.03-0.66-0.04-0.85-0.19c-0.23-0.29-0.27-0.55-0.3-0.78c-0.22-0.3-0.34-0.57-0.3-0.74
			c-0.2-0.43-0.31-0.8-0.31-1.06c0.12-0.4,0.23-0.7,0.32-0.92l-0.74-4.58c-0.22-0.19-0.29-0.4-0.29-0.63l-0.58-0.54
			c-0.36-0.2-0.67-0.28-0.91-0.15c-0.42,0.09-0.72,0.15-0.91,0.13c-0.31-0.11-0.57-0.18-0.66-0.32c-0.29-0.2-0.55-0.22-0.73-0.02
			l-1.51,0.46l-1.69,0.25c-0.1,0.1-0.17,0.29-0.14,0.46l-0.03,0.77l-0.35,1.83c0,1.06-0.26,2.07-0.42,3.13
			c-0.09,0.61-0.53,1.57,0.1,2.07c0.65,0.5,1.61-0.2,1.85,0.6c0.29,0.86-0.18,2.17-0.29,3.06c-0.11,0.75-0.09,0.91-0.74,1.17
			c-0.49,0.2-0.89,0.32-1.37,0.33c-0.09,0.55-0.09,1.02-0.1,1.5c-0.03,0.57-0.21,1.08-0.23,1.66c-0.03,1.28-0.38,2.69-0.18,3.95
			c0,0.25,0.18,2.39-0.12,2.37c0.46,0.02,4.09,0.43,4.24,0.18c0.1-0.22,0.1-0.4,0-0.63l0.3-1.92l0.05-2.12l0.82-7.56
			c0.09-0.31,0.17-0.49,0.32-0.49c0.16-0.12,0.3-0.19,0.43-0.19l0.6,0.19c0.23,0.3,0.32,0.53,0.32,0.64l0.97,5.01L553,82.22
			l1.19,6.39l3.67-0.26l0.79-2.6L559,82.9c-0.02-0.09,0.04-0.28,0.09-0.49l0.12-0.28l0.48-3.82c0-0.26,0.14-0.59,0.33-1.01
			c0.44-0.31,0.78-0.4,1.11-0.28c0.51,0,0.75,0.23,0.75,0.75l0.27,2.27l-0.01,2.58l0.38,2.39l0.11,3.21l2.9-0.14
			C565.65,88.09,565.76,88.09,565.83,88.03"/>
		<path class="st0" d="M540.21,70.95l0.29-1.23c0.08-0.32,0.24-0.59,0.46-0.79l1.56-0.11c0.3,0,0.67,0.05,1.02,0.19
			c0.28,0.08,0.57,0.07,0.75,0c0.35-0.21,0.55-0.44,0.67-0.58l-0.32-3.63l-5.59-0.38l-1.55,0.45c-0.19,0-0.4-0.03-0.64-0.07
			c-0.79,0-0.98,0.3-1.32,1.74l-0.02,3.75c-0.12,0.54-0.07,1.04-0.05,1.49l0.38,15.8l4.35-0.21l-0.08-7.79l0.92-1.23
			c0.62-0.2,1.06-0.23,1.4-0.12l1.62-0.16l0.33-0.26l0.05-3.33c0-0.2-0.05-0.36-0.12-0.46c-0.25-0.2-0.38-0.29-0.51-0.29l-1.67,0.44
			l-1.66-0.64c-0.22-0.19-0.27-0.35-0.27-0.48c0-0.34-0.08-0.51-0.2-0.59L540,71.7C540,71.32,540.05,71.07,540.21,70.95z
			 M542.54,66.42c0.29,0,0.51,0.11,0.58,0.31c0.18,0.21,0.27,0.37,0.29,0.46c0,0.29-0.08,0.51-0.12,0.63l-0.31,0.48l-0.61-0.06
			c-0.26-0.06-0.32-0.18-0.32-0.29c-0.19-0.33-0.31-0.59-0.32-0.77C541.74,66.64,542.04,66.42,542.54,66.42z"/>
	</g>
</g>
<g>
	<path class="st2" d="M21.69,445.48v-76.32h30.45l10.82,10.08v19.95l-8.55,7.6l9.76,7.44v20.74l-11.24,10.5H21.69z M48.13,399.98
		v-16.31H37.68v16.31H48.13z M37.68,431.02h10.45v-16.78H37.68V431.02z"/>
	<path class="st2" d="M71.3,445.48v-76.32h15.99v76.32H71.3z"/>
	<path class="st2" d="M95.32,445.48v-76.32h14.99l13.2,42.81v-42.81h14.04v76.32H123.5l-14.25-45.92v45.92H95.32z"/>
	<path class="st2" d="M145.46,445.48v-76.32h15.99v76.32H145.46z"/>
	<path class="st2" d="M169.47,445.48v-76.32h15.99v61.86h19v14.46H169.47z"/>
	<path class="st2" d="M211.28,445.48v-76.32h15.99v76.32H211.28z"/>
	<path class="st2" d="M251.86,365.25l10.66-14.99h11.72l10.66,14.99h-7.13l-9.39-8.29l-9.39,8.29H251.86z M260.26,445.48v-76.32
		h15.99v76.32H260.26z"/>
	<path class="st2" d="M284.27,445.48v-76.32h14.99l13.2,42.81v-42.81h14.04v76.32h-14.04l-14.25-45.92v45.92H284.27z"/>
	<path class="st2" d="M340.59,445.48l-9.66-76.32h16.68l5.59,62.07h1.85l4.22-62.07h16.42l-9.08,76.32H340.59z"/>
	<path class="st2" d="M380.44,445.48v-76.32h15.99v76.32H380.44z"/>
	<path class="st2" d="M404.45,445.48v-76.32h14.99l13.2,42.81v-42.81h14.04v76.32h-14.04l-14.25-45.92v45.92H404.45z"/>
	<path class="st2" d="M453.8,379.66l11.4-10.5h19.85l11.72,10.5v17.84h-16.05v-13.83h-10.87v47.34h10.87v-11.24h-6.02v-14.09h22.06
		v29.29l-11.72,10.5h-19.85l-11.4-10.5V379.66z"/>
	<path class="st2" d="M504.32,445.48v-76.32h33.83v14.51h-17.84v14.04h14.88v14.46h-14.88v18.84h17.84v14.46H504.32z"/>
	<path class="st2" d="M562.43,369.16v22.27l-4.54,32.09h-6.81l-4.54-32.09v-22.27H562.43z M546.75,445.48v-14.83h15.46v14.83H546.75
		z"/>
</g>
<g>
	<path class="st0" d="M21.69,445.48v-76.32h30.45l10.82,10.08v19.95l-8.55,7.6l9.76,7.44v20.74l-11.24,10.5H21.69z M48.13,399.98
		v-16.31H37.68v16.31H48.13z M37.68,431.02h10.45v-16.78H37.68V431.02z"/>
	<path class="st0" d="M71.3,445.48v-76.32h15.99v76.32H71.3z"/>
	<path class="st0" d="M95.32,445.48v-76.32h14.99l13.2,42.81v-42.81h14.04v76.32H123.5l-14.25-45.92v45.92H95.32z"/>
	<path class="st0" d="M145.46,445.48v-76.32h15.99v76.32H145.46z"/>
	<path class="st0" d="M169.47,445.48v-76.32h15.99v61.86h19v14.46H169.47z"/>
	<path class="st0" d="M211.28,445.48v-76.32h15.99v76.32H211.28z"/>
	<path class="st0" d="M251.86,365.25l10.66-14.99h11.72l10.66,14.99h-7.13l-9.39-8.29l-9.39,8.29H251.86z M260.26,445.48v-76.32
		h15.99v76.32H260.26z"/>
	<path class="st0" d="M284.27,445.48v-76.32h14.99l13.2,42.81v-42.81h14.04v76.32h-14.04l-14.25-45.92v45.92H284.27z"/>
	<path class="st0" d="M340.59,445.48l-9.66-76.32h16.68l5.59,62.07h1.85l4.22-62.07h16.42l-9.08,76.32H340.59z"/>
	<path class="st0" d="M380.44,445.48v-76.32h15.99v76.32H380.44z"/>
	<path class="st0" d="M404.45,445.48v-76.32h14.99l13.2,42.81v-42.81h14.04v76.32h-14.04l-14.25-45.92v45.92H404.45z"/>
	<path class="st0" d="M453.8,379.66l11.4-10.5h19.85l11.72,10.5v17.84h-16.05v-13.83h-10.87v47.34h10.87v-11.24h-6.02v-14.09h22.06
		v29.29l-11.72,10.5h-19.85l-11.4-10.5V379.66z"/>
	<path class="st0" d="M504.32,445.48v-76.32h33.83v14.51h-17.84v14.04h14.88v14.46h-14.88v18.84h17.84v14.46H504.32z"/>
	<path class="st0" d="M562.43,369.16v22.27l-4.54,32.09h-6.81l-4.54-32.09v-22.27H562.43z M546.75,445.48v-14.83h15.46v14.83H546.75
		z"/>
</g>
</svg>
